<?xml version="1.0" standalone="no"?>
<!DOCTYPE svg PUBLIC "-//W3C//DTD SVG 1.1//EN" "http://www.w3.org/Graphics/SVG/1.1/DTD/svg11.dtd" >
<svg xmlns="http://www.w3.org/2000/svg" width="100%" height="100%">
<metadata>
Created by FontXChange 20110222 at Fri Oct 23 13:46:15 2015
 By James Beall
Copyright \(c\) 2015 Turner Broadcasting System, Inc.. All rights reserved.
</metadata>
<defs>
<font id="Turner-Italic" horiz-adv-x="610" >
  <font-face 
    font-family="Turner"
    font-weight="400"
    font-style="italic"
    font-stretch="normal"
    units-per-em="1000"
    panose-1="2 0 0 0 0 0 0 0 0 0"
    ascent="750"
    descent="-250"
    x-height="500"
    cap-height="700"
    bbox="-141 -244 1099 919"
    underline-thickness="0"
    underline-position="0"
    slope="-10"
    stemh="87"
    stemv="99"
    unicode-range="U+000D-FB02"
  />
<missing-glyph horiz-adv-x="483" 
d="M393 0h-363l132 750h363zM76 57l180 317l-68 317zM367 57l112 634l-180 -317zM285 421l167 289h-231zM334 38l-66 288l-165 -288h231z" />
    <glyph glyph-name="fi" unicode="fi" horiz-adv-x="523" 
d="M90 0l73 419h-105l15 81h105l8 48c19 105 70 175 200 175c31 0 73 -6 102 -14l-15 -79c-26 7 -53 12 -82 12c-49 0 -98 -15 -113 -100l-8 -42h250l-88 -500h-93l74 419h-157l-73 -419h-93z" />
    <glyph glyph-name="fl" unicode="fl" horiz-adv-x="561" 
d="M90 0l73 419h-105l15 81h105l8 48c19 106 79 175 210 175c60 0 124 -10 198 -23l-123 -700h-93l111 632c-32 7 -60 11 -93 11c-52 0 -103 -17 -118 -101l-8 -42h135l-15 -81h-134l-73 -419h-93z" />
    <glyph glyph-name=".notdef" horiz-adv-x="483" 
d="M393 0h-363l132 750h363zM76 57l180 317l-68 317zM367 57l112 634l-180 -317zM285 421l167 289h-231zM334 38l-66 288l-165 -288h231z" />
    <glyph glyph-name="NULL" horiz-adv-x="0" 
 />
    <glyph glyph-name="NULL" horiz-adv-x="0" 
 />
    <glyph glyph-name="CR" unicode="&#xd;" horiz-adv-x="244" 
 />
    <glyph glyph-name="space" unicode=" " horiz-adv-x="244" 
 />
    <glyph glyph-name="exclam" unicode="!" horiz-adv-x="230" 
d="M157 200h-76l73 500h105zM94 -5c-34 0 -61 28 -61 61c0 34 27 62 61 62s61 -28 61 -62c0 -33 -27 -61 -61 -61z" />
    <glyph glyph-name="quotedbl" unicode="&#x22;" horiz-adv-x="295" 
d="M162 486h-64l28 214h83zM307 486h-64l29 214h83z" />
    <glyph glyph-name="numbersign" unicode="#" horiz-adv-x="674" 
d="M410 0h-74l71 201h-183l-70 -201h-74l71 201h-114l11 64h125l60 170h-118l12 64h129l70 201h74l-71 -201h183l70 201h74l-71 -201h114l-12 -64h-125l-60 -170h118l-11 -64h-129zM429 265l60 170h-183l-60 -170h183z" />
    <glyph glyph-name="dollar" unicode="$" horiz-adv-x="567" 
d="M104 507c0 122 111 173 233 175l17 93h66l-17 -97c53 -7 107 -24 153 -47l-15 -80c-50 26 -103 42 -152 50l-36 -201c93 -27 182 -65 182 -175c0 -126 -115 -199 -250 -209l-16 -92h-66l17 93c-65 6 -133 24 -189 64l15 83c59 -45 125 -65 187 -70l43 243
c-91 27 -172 65 -172 170zM446 216c0 62 -54 87 -107 102l-39 -222c79 10 146 51 146 120zM193 513c0 -53 44 -77 98 -94l33 186c-70 -2 -131 -29 -131 -92z" />
    <glyph glyph-name="percent" unicode="%" horiz-adv-x="772" 
d="M192 0h-78l535 700h78zM423 550c0 -89 -71 -161 -162 -161s-161 72 -161 161s70 162 161 162s162 -73 162 -162zM261 453c52 0 92 43 92 97s-40 98 -92 98c-51 0 -90 -44 -90 -98s39 -97 90 -97zM573 -12c-91 0 -162 73 -162 162s71 161 162 161s161 -72 161 -161
s-70 -162 -161 -162zM573 52c52 0 91 44 91 98s-39 97 -91 97c-51 0 -91 -43 -91 -97s40 -98 91 -98z" />
    <glyph glyph-name="ampersand" unicode="&#x26;" horiz-adv-x="692" 
d="M549 0l-80 98c-68 -69 -144 -110 -229 -110c-100 0 -190 60 -190 169c0 125 100 194 184 238c-29 40 -50 87 -50 137c0 114 96 180 200 180c98 0 155 -62 155 -135c0 -92 -76 -151 -182 -202l119 -150c37 51 66 106 94 161h88c-35 -71 -80 -153 -134 -223l131 -163h-106z
M423 156l-143 179c-66 -32 -145 -83 -145 -170c0 -71 59 -101 115 -101c61 0 118 32 173 92zM312 433c81 38 143 78 143 136c0 36 -27 66 -77 66c-56 0 -108 -36 -108 -96c0 -36 16 -73 42 -106z" />
    <glyph glyph-name="quotesingle" unicode="'" horiz-adv-x="150" 
d="M162 486h-64l28 214h83z" />
    <glyph glyph-name="parenleft" unicode="(" horiz-adv-x="351" 
d="M442 794l-18 -94c-168 -100 -276 -275 -276 -483c0 -133 48 -251 136 -316l-15 -82c-139 75 -210 225 -210 396c0 251 141 469 383 579z" />
    <glyph glyph-name="parenright" unicode=")" horiz-adv-x="352" 
d="M-42 -181l18 94c168 100 276 275 276 483c0 133 -48 251 -136 316l15 82c139 -75 210 -225 210 -396c0 -251 -141 -469 -383 -579z" />
    <glyph glyph-name="asterisk" unicode="*" horiz-adv-x="410" 
d="M118 415l105 103l-140 44l31 75l130 -69l-1 147l80 -7l-25 -145l140 47l18 -78l-146 -21l88 -118l-69 -42l-65 132l-85 -119z" />
    <glyph glyph-name="plus" unicode="+" horiz-adv-x="695" 
d="M685 314h-275l-48 -274h-76l48 274h-274l13 76h274l49 274h76l-49 -274h275z" />
    <glyph glyph-name="comma" unicode="," horiz-adv-x="204" 
d="M53 -98h-53l65 96c-26 7 -45 30 -45 58c0 34 28 62 61 62c34 0 62 -27 62 -62c0 -19 -11 -41 -27 -64z" />
    <glyph glyph-name="hyphen" unicode="-" horiz-adv-x="367" 
d="M350 314h-283l13 76h283z" />
    <glyph glyph-name="period" unicode="." horiz-adv-x="205" 
d="M143 56c0 -33 -28 -61 -62 -61c-33 0 -61 28 -61 61c0 34 28 62 61 62c34 0 62 -28 62 -62z" />
    <glyph glyph-name="slash" unicode="/" horiz-adv-x="370" 
d="M-36 -40l416 780h90l-417 -780h-89z" />
    <glyph glyph-name="zero" unicode="0" horiz-adv-x="650" 
d="M299 -12c-146 0 -225 126 -225 287c0 232 136 437 340 437c146 0 225 -126 225 -287c0 -233 -137 -437 -340 -437zM308 72c146 0 235 175 235 353c0 115 -44 203 -138 203c-146 0 -235 -175 -235 -353c0 -115 44 -203 138 -203z" />
    <glyph glyph-name="one" unicode="1" horiz-adv-x="349" 
d="M246 0h-96l108 611h-152l16 89h248z" />
    <glyph glyph-name="two" unicode="2" horiz-adv-x="550" 
d="M14 0l12 65l312 264c82 69 122 131 122 193c0 66 -46 104 -111 104c-84 0 -137 -56 -161 -143h-94c31 139 131 229 264 229c114 0 200 -67 200 -179c0 -106 -74 -192 -161 -263l-226 -184h320l-15 -86h-462z" />
    <glyph glyph-name="three" unicode="3" horiz-adv-x="542" 
d="M37 191h93c-6 -76 46 -117 120 -117c84 0 161 51 161 141c0 66 -52 103 -152 103h-25l13 80h24c108 0 180 67 180 141c0 55 -44 87 -105 87c-72 0 -124 -38 -142 -103h-97c28 121 132 189 248 189c104 0 194 -57 194 -159c0 -70 -44 -152 -157 -194
c82 -25 114 -83 114 -147c0 -133 -123 -224 -259 -224c-132 0 -225 81 -210 203z" />
    <glyph glyph-name="four" unicode="4" horiz-adv-x="592" 
d="M26 156l13 76l414 472h114l-82 -464h99l-14 -84h-100l-28 -156h-94l28 156h-350zM149 240h242l62 351z" />
    <glyph glyph-name="five" unicode="5" horiz-adv-x="539" 
d="M8 46l25 81c47 -32 109 -54 175 -54c121 0 206 73 206 174c0 92 -79 131 -185 131c-48 0 -98 -6 -134 -15l101 337h374l-15 -86h-293l-49 -163c4 0 22 3 51 3c138 0 249 -70 249 -200c0 -155 -134 -266 -301 -266c-85 0 -169 32 -204 58z" />
    <glyph glyph-name="six" unicode="6" horiz-adv-x="578" 
d="M272 69c94 0 177 79 177 177c0 73 -49 127 -124 127c-94 0 -178 -77 -178 -176c0 -75 51 -128 125 -128zM188 483l186 217h121l-215 -241c-7 -8 -23 -26 -29 -35c26 17 59 28 91 28c118 -1 202 -81 204 -194c2 -148 -131 -270 -283 -270c-124 0 -208 87 -210 204
c-2 100 48 188 135 291z" />
    <glyph glyph-name="seven" unicode="7" horiz-adv-x="516" 
d="M88 0l368 614h-346l15 86h452l-12 -70l-369 -630h-108z" />
    <glyph glyph-name="eight" unicode="8" horiz-adv-x="555" 
d="M214 371c-61 31 -86 89 -86 144c0 123 110 197 229 197c107 0 194 -62 194 -168c0 -72 -45 -151 -138 -183c70 -29 104 -93 104 -156c0 -128 -120 -217 -255 -217c-122 0 -216 76 -216 188c0 85 58 163 168 195zM141 184c0 -70 55 -115 130 -115c83 0 152 54 152 137
c0 70 -54 116 -129 116c-85 0 -153 -55 -153 -138zM328 406c73 0 129 56 129 129c0 60 -42 98 -108 98c-75 0 -127 -47 -127 -118c0 -63 42 -109 106 -109z" />
    <glyph glyph-name="nine" unicode="9" horiz-adv-x="578" 
d="M368 631c-94 0 -177 -79 -177 -177c0 -73 49 -127 124 -127c94 0 178 77 178 176c0 75 -51 128 -125 128zM452 217l-186 -217h-121l215 241c7 8 23 26 29 35c-26 -17 -59 -28 -91 -28c-118 1 -202 81 -204 194c-2 148 131 270 283 270c124 0 208 -87 210 -204
c2 -100 -48 -188 -135 -291z" />
    <glyph glyph-name="colon" unicode=":" horiz-adv-x="204" 
d="M143 56c0 -33 -28 -61 -62 -61c-33 0 -61 28 -61 61c0 34 28 62 61 62c34 0 62 -28 62 -62zM139 325c-33 0 -61 28 -61 62s28 62 61 62c34 0 62 -28 62 -62s-28 -62 -62 -62z" />
    <glyph glyph-name="semicolon" unicode=";" horiz-adv-x="207" 
d="M52 -98h-53l65 96c-26 7 -45 30 -45 58c0 34 28 62 61 62c34 0 62 -27 62 -62c0 -19 -11 -41 -27 -64zM142 325c-33 0 -61 28 -61 62s28 62 61 62c34 0 62 -28 62 -62s-28 -62 -62 -62z" />
    <glyph glyph-name="less" unicode="&#x3c;" horiz-adv-x="565" 
d="M58 313l14 79l545 266l-16 -89l-460 -221l382 -221l-14 -80z" />
    <glyph glyph-name="equal" unicode="=" horiz-adv-x="567" 
d="M529 211h-479l13 76h479zM565 417h-479l14 76h479z" />
    <glyph glyph-name="greater" unicode="&#x3e;" horiz-adv-x="565" 
d="M11 47l16 89l460 220l-382 222l14 80l451 -266l-14 -79z" />
    <glyph glyph-name="question" unicode="?" horiz-adv-x="474" 
d="M183 200l7 38c18 105 63 147 133 194c53 35 99 66 99 127c0 49 -39 74 -100 74c-75 0 -134 -40 -149 -109h-88c26 125 129 189 246 189c88 0 183 -42 183 -144s-72 -148 -137 -191c-58 -39 -93 -72 -107 -145l-6 -33h-81zM199 -5c-34 0 -61 28 -61 61c0 34 27 62 61 62
s61 -28 61 -62c0 -33 -27 -61 -61 -61z" />
    <glyph glyph-name="at" unicode="@" horiz-adv-x="804" 
d="M600 11l-11 -66c-69 -41 -153 -61 -230 -61c-190 0 -306 137 -306 303c0 237 210 429 448 429c161 0 289 -103 289 -255c0 -175 -152 -303 -241 -303c-42 0 -68 26 -67 60c-44 -48 -94 -74 -151 -74c-71 0 -115 56 -115 137c0 150 128 280 247 280c49 0 87 -22 104 -63
l24 41h58l-96 -276c-9 -25 -6 -46 16 -46c53 0 158 119 158 241c0 126 -99 201 -230 201c-198 0 -380 -159 -380 -365c0 -142 88 -253 246 -253c81 0 172 28 237 70zM355 109c87 0 173 110 175 207c1 48 -21 84 -68 84c-84 0 -169 -106 -172 -212c-1 -47 21 -79 65 -79z" />
    <glyph glyph-name="A" unicode="A" horiz-adv-x="665" 
d="M-23 0l390 700h117l144 -700h-101l-36 187h-308l-102 -187h-104zM224 266h254l-66 345z" />
    <glyph glyph-name="B" unicode="B" horiz-adv-x="641" 
d="M42 0l123 700h283c107 0 209 -42 209 -154c0 -81 -55 -151 -157 -182c69 -24 117 -73 117 -153c0 -137 -111 -211 -260 -211h-315zM156 82h203c86 0 158 36 158 133c0 80 -62 108 -150 108h-169zM212 402h190c87 0 153 47 153 126c0 68 -58 89 -121 89h-184z" />
    <glyph glyph-name="C" unicode="C" horiz-adv-x="665" 
d="M617 140l-17 -97c-66 -37 -142 -55 -216 -55c-184 0 -312 136 -312 317c0 223 199 407 423 407c86 0 160 -21 213 -56l-17 -93c-46 35 -121 61 -197 61c-171 0 -320 -143 -320 -318c0 -131 87 -231 222 -231c79 0 162 27 221 65z" />
    <glyph glyph-name="D" unicode="D" horiz-adv-x="723" 
d="M156 87h124c57 0 105 11 145 30c107 51 187 154 187 276c0 94 -49 168 -127 202c-26 11 -62 18 -106 18h-130zM42 0l123 700h219c57 0 105 -8 144 -24c114 -45 186 -152 186 -281c0 -155 -107 -287 -245 -353c-55 -26 -121 -42 -193 -42h-234z" />
    <glyph glyph-name="E" unicode="E" horiz-adv-x="606" 
d="M544 0h-502l123 700h502l-15 -87h-403l-37 -211h365l-15 -87h-365l-41 -228h403z" />
    <glyph glyph-name="F" unicode="F" horiz-adv-x="591" 
d="M42 0l123 700h497l-14 -87h-399l-38 -215h365l-16 -88h-364l-55 -310h-99z" />
    <glyph glyph-name="G" unicode="G" horiz-adv-x="784" 
d="M396 293l14 84h371c0 -5 -2 -18 -3 -23c-11 -55 -28 -110 -54 -158c-70 -127 -192 -208 -339 -208c-186 0 -313 136 -313 317c0 223 199 407 427 407c88 0 169 -21 229 -63l-17 -94c-59 43 -135 69 -216 69c-172 0 -322 -143 -322 -318c0 -130 86 -231 220 -231
c128 0 233 91 271 218h-268z" />
    <glyph glyph-name="H" unicode="H" horiz-adv-x="736" 
d="M634 0h-99l56 315h-394l-56 -315h-99l123 700h99l-52 -298h394l52 298h99z" />
    <glyph glyph-name="I" unicode="I" horiz-adv-x="243" 
d="M141 0h-99l123 700h99z" />
    <glyph glyph-name="J" unicode="J" horiz-adv-x="516" 
d="M10 51l16 94c43 -43 102 -69 164 -69c70 0 118 32 146 89c13 26 21 55 30 103l77 432h99l-77 -434c-8 -47 -20 -88 -34 -121c-41 -94 -115 -157 -233 -157c-67 0 -138 21 -188 63z" />
    <glyph glyph-name="K" unicode="K" horiz-adv-x="599" 
d="M42 0l123 700h99l-56 -322l336 322h136l-371 -341l272 -359h-123l-256 347l-61 -347h-99z" />
    <glyph glyph-name="L" unicode="L" horiz-adv-x="589" 
d="M42 0l123 700h99l-108 -613h386l-15 -87h-485z" />
    <glyph glyph-name="M" unicode="M" horiz-adv-x="838" 
d="M42 0l123 700h113l153 -442l308 442h120l-123 -700h-97l97 552h-2l-330 -472h-2l-164 472h-1l-98 -552h-97z" />
    <glyph glyph-name="N" unicode="N" horiz-adv-x="734" 
d="M42 0l123 700h117l277 -567l99 567h97l-123 -700h-117l-277 567l-99 -567h-97z" />
    <glyph glyph-name="O" unicode="O" horiz-adv-x="820" 
d="M386 -12c-186 0 -314 138 -314 315c0 224 202 409 423 409c186 0 315 -137 315 -316c0 -223 -203 -408 -424 -408zM391 75c167 0 317 146 317 319c0 131 -88 230 -218 230c-166 0 -316 -143 -316 -318c0 -131 87 -231 217 -231z" />
    <glyph glyph-name="P" unicode="P" horiz-adv-x="638" 
d="M42 0l123 700h254c133 0 239 -58 239 -194c0 -176 -137 -250 -293 -250h-179l-45 -256h-99zM202 343h173c100 0 181 42 181 156c0 84 -61 115 -144 115h-163z" />
    <glyph glyph-name="Q" unicode="Q" horiz-adv-x="820" 
d="M593 -92l-56 110c-48 -19 -99 -30 -151 -30c-186 0 -314 138 -314 315c0 224 202 409 423 409c186 0 315 -137 315 -316c0 -141 -82 -268 -198 -341l56 -106zM497 96l-61 119l76 40l59 -117c80 57 137 151 137 256c0 131 -88 230 -218 230c-166 0 -316 -143 -316 -318
c0 -131 87 -231 217 -231c37 0 72 8 106 21z" />
    <glyph glyph-name="R" unicode="R" horiz-adv-x="660" 
d="M42 0l123 700h280c53 0 97 -9 128 -24c57 -28 91 -85 91 -157c0 -80 -40 -144 -100 -180c-25 -15 -54 -27 -86 -34l120 -305h-110l-106 288h-190l-51 -288h-99zM206 372h200c31 0 55 3 72 10c56 22 85 66 85 129c0 45 -20 78 -58 93c-15 6 -34 11 -65 11h-191z" />
    <glyph glyph-name="S" unicode="S" horiz-adv-x="607" 
d="M26 57l17 91c73 -55 158 -74 230 -74c106 0 203 44 203 133c0 78 -77 100 -146 120c-112 33 -221 70 -221 196c0 140 133 189 259 189c81 0 168 -20 236 -54l-17 -90c-73 37 -154 58 -224 58c-80 0 -153 -28 -153 -99c0 -72 75 -93 154 -116c104 -30 213 -68 213 -195
c0 -146 -144 -228 -307 -228c-81 0 -172 20 -244 69z" />
    <glyph glyph-name="T" unicode="T" horiz-adv-x="661" 
d="M349 0h-99l108 613h-248l15 87h597l-15 -87h-250z" />
    <glyph glyph-name="U" unicode="U" horiz-adv-x="729" 
d="M95 333l65 367h99l-65 -367c-5 -26 -7 -53 -7 -77c0 -97 48 -181 172 -181c115 0 176 69 209 165c9 26 16 54 21 84l67 376h99l-67 -378c-6 -36 -15 -70 -26 -102c-49 -141 -148 -232 -312 -232c-171 0 -262 102 -262 261c0 26 2 56 7 84z" />
    <glyph glyph-name="V" unicode="V" horiz-adv-x="645" 
d="M244 0l-144 700h100l109 -583l314 583h108l-390 -700h-97z" />
    <glyph glyph-name="W" unicode="W" horiz-adv-x="957" 
d="M166 0l-61 700h99l40 -577h3l271 577h102l67 -577h3l245 577h103l-307 -700h-113l-67 575h-2l-269 -575h-114z" />
    <glyph glyph-name="X" unicode="X" horiz-adv-x="643" 
d="M-31 0l326 368l-173 332h110l132 -264l224 264h124l-295 -337l194 -363h-115l-149 297l-255 -297h-123z" />
    <glyph glyph-name="Y" unicode="Y" horiz-adv-x="626" 
d="M234 0l53 301l-202 399h112l149 -315h2l260 315h119l-342 -399l-53 -301h-98z" />
    <glyph glyph-name="Z" unicode="Z" horiz-adv-x="640" 
d="M-8 0v2l518 611h-388l14 87h564v-2l-517 -611h407l-15 -87h-583z" />
    <glyph glyph-name="bracketleft" unicode="[" horiz-adv-x="314" 
d="M233 -173h-237l169 960h237l-12 -71h-148l-145 -819h148z" />
    <glyph glyph-name="backslash" unicode="\" horiz-adv-x="369" 
d="M247 -40l-146 780h84l146 -780h-84z" />
    <glyph glyph-name="bracketright" unicode="]" horiz-adv-x="315" 
d="M197 -173h-237l12 70h148l145 819h-148l12 71h237z" />
    <glyph glyph-name="asciicircum" unicode="^" horiz-adv-x="475" 
d="M49 356l240 356h87l114 -356h-83l-85 283l-185 -283h-88z" />
    <glyph glyph-name="underscore" unicode="_" horiz-adv-x="487" 
d="M439 -97h-486l14 77h486z" />
    <glyph glyph-name="grave" unicode="`" horiz-adv-x="430" 
d="M302 564l-136 152v3h107l103 -155h-74z" />
    <glyph glyph-name="a" unicode="a" horiz-adv-x="609" 
d="M428 0l13 76c-47 -54 -114 -88 -185 -88c-133 0 -203 94 -203 216c0 166 116 308 279 308c77 0 138 -39 167 -91l14 79h93l-88 -500h-90zM276 66c110 0 199 107 199 222c0 80 -48 146 -137 146c-108 0 -192 -102 -192 -224c0 -82 44 -144 130 -144z" />
    <glyph glyph-name="b" unicode="b" 
d="M30 0l123 700h93l-47 -272c47 51 113 84 182 84c132 0 203 -94 203 -216c0 -166 -117 -308 -280 -308c-79 0 -141 39 -169 93l-15 -81h-90zM299 66c108 0 192 102 192 224c0 82 -44 144 -130 144c-110 0 -199 -107 -199 -222c0 -80 48 -146 137 -146z" />
    <glyph glyph-name="c" unicode="c" horiz-adv-x="516" 
d="M466 114l-15 -85c-60 -33 -121 -41 -169 -41c-139 0 -228 98 -228 226c0 166 140 298 303 298c55 0 120 -14 171 -43l-14 -81c-50 31 -105 46 -155 46c-115 0 -211 -97 -211 -217c0 -88 56 -151 148 -151c52 0 109 14 170 48z" />
    <glyph glyph-name="d" unicode="d" horiz-adv-x="609" 
d="M428 0l13 76c-47 -54 -114 -88 -185 -88c-133 0 -203 94 -203 216c0 166 116 308 279 308c76 0 138 -39 167 -91l49 279h93l-123 -700h-90zM276 66c110 0 199 107 199 222c0 80 -48 146 -137 146c-108 0 -192 -102 -192 -224c0 -82 44 -144 130 -144z" />
    <glyph glyph-name="e" unicode="e" horiz-adv-x="586" 
d="M273 -12c-129 0 -219 98 -219 226c0 164 138 298 297 298c144 0 222 -95 207 -239c-2 -16 -5 -32 -7 -37h-407c-1 -10 -2 -20 -1 -29c5 -84 57 -142 137 -142c65 0 123 37 159 96h93c-51 -105 -148 -173 -259 -173zM161 303h305c9 85 -40 134 -120 134
s-154 -54 -185 -134z" />
    <glyph glyph-name="f" unicode="f" horiz-adv-x="372" 
d="M90 0l73 419h-105l15 81h105l8 48c19 104 71 175 196 175c29 0 56 -3 71 -6l-14 -79c-9 1 -30 4 -53 4c-45 0 -93 -15 -108 -100l-8 -42h144l-15 -81h-143l-73 -419h-93z" />
    <glyph glyph-name="g" unicode="g" 
d="M36 -57h84c5 -75 51 -108 127 -108c91 0 166 67 186 186l9 58c-47 -53 -115 -87 -185 -87c-133 0 -203 93 -203 214c0 165 116 306 278 306c77 0 139 -39 168 -91l14 79h93l-85 -480c-30 -171 -140 -264 -279 -264c-114 0 -207 59 -207 187zM276 69
c111 0 200 106 200 220c0 80 -48 145 -137 145c-108 0 -192 -101 -192 -222c0 -81 44 -143 129 -143z" />
    <glyph glyph-name="h" unicode="h" horiz-adv-x="580" 
d="M30 0l123 700h93l-47 -270c48 51 112 82 185 82c82 0 145 -37 161 -111c7 -29 6 -70 -3 -124l-49 -277h-93l49 278c8 46 8 71 2 93c-10 36 -40 63 -98 63c-94 0 -166 -69 -185 -180l-45 -254h-93z" />
    <glyph glyph-name="i" unicode="i" horiz-adv-x="212" 
d="M124 0h-93l88 500h93zM249 649c0 -31 -25 -56 -58 -56c-32 0 -57 25 -57 56c0 32 25 57 57 57c33 0 58 -25 58 -57z" />
    <glyph glyph-name="j" unicode="j" horiz-adv-x="225" 
d="M-141 -218l15 79c9 -2 30 -4 53 -4c45 0 93 14 108 99l96 544h93l-97 -549c-19 -105 -72 -175 -196 -175c-29 0 -56 3 -72 6zM261 649c0 -31 -25 -56 -58 -56c-32 0 -57 25 -57 56c0 32 25 57 57 57c33 0 58 -25 58 -57z" />
    <glyph glyph-name="k" unicode="k" horiz-adv-x="497" 
d="M30 0l123 700h93l-73 -418l240 218h120l-278 -241l226 -259h-114l-201 242l-43 -242h-93z" />
    <glyph glyph-name="l" unicode="l" horiz-adv-x="214" 
d="M123 0h-93l123 700h93z" />
    <glyph glyph-name="m" unicode="m" horiz-adv-x="890" 
d="M30 0l88 500h90l-13 -78c45 58 102 90 169 90c83 0 131 -44 144 -115c46 67 108 115 196 115c94 0 148 -54 153 -141c2 -29 -1 -69 -8 -111l-46 -260h-93l46 257c6 33 10 69 8 91c-5 54 -28 86 -90 86c-82 0 -146 -69 -165 -174l-46 -260h-93l46 257c6 33 10 65 8 87
c-4 54 -27 90 -90 90c-84 0 -147 -73 -166 -183l-45 -251h-93z" />
    <glyph glyph-name="n" unicode="n" horiz-adv-x="580" 
d="M30 0l88 500h93l-12 -70c48 51 112 82 185 82c82 0 145 -37 161 -111c7 -29 6 -70 -3 -124l-49 -277h-93l49 278c8 46 8 71 2 93c-10 36 -40 63 -98 63c-94 0 -166 -69 -185 -180l-45 -254h-93z" />
    <glyph glyph-name="o" unicode="o" horiz-adv-x="598" 
d="M275 -12c-132 0 -221 96 -221 226c0 164 139 298 296 298c132 0 221 -96 221 -226c0 -164 -139 -298 -296 -298zM278 66c105 0 201 97 201 220c0 85 -54 148 -132 148c-105 0 -200 -97 -200 -220c0 -85 53 -148 131 -148z" />
    <glyph glyph-name="p" unicode="p" horiz-adv-x="609" 
d="M-6 -200l123 700h90l-12 -76c47 53 114 88 185 88c133 0 203 -94 203 -216c0 -166 -116 -308 -279 -308c-77 0 -138 39 -168 91l-49 -279h-93zM298 66c108 0 192 102 192 224c0 82 -44 144 -130 144c-110 0 -199 -107 -199 -222c0 -80 48 -146 137 -146z" />
    <glyph glyph-name="q" unicode="q" horiz-adv-x="609" 
d="M390 -200l48 272c-47 -51 -113 -84 -182 -84c-132 0 -203 94 -203 216c0 166 117 308 280 308c79 0 141 -39 169 -93l14 81h90l-123 -700h-93zM276 66c110 0 199 107 199 222c0 80 -48 146 -137 146c-108 0 -192 -102 -192 -224c0 -82 44 -144 130 -144z" />
    <glyph glyph-name="r" unicode="r" horiz-adv-x="388" 
d="M30 0l88 500h90l-15 -88c43 66 109 99 188 99c13 0 31 -1 42 -2l-15 -82c-10 1 -20 2 -38 2c-81 0 -139 -40 -174 -107c-17 -31 -30 -81 -40 -135l-33 -187h-93z" />
    <glyph glyph-name="s" unicode="s" horiz-adv-x="481" 
d="M22 38l15 80c52 -36 111 -54 174 -54c84 0 139 32 139 84c0 53 -55 65 -121 80c-78 17 -151 46 -151 135c0 109 108 149 204 149c63 0 136 -17 181 -37l-14 -79c-53 24 -114 40 -171 40c-64 0 -112 -20 -112 -68c0 -47 48 -59 113 -75c72 -17 159 -42 159 -139
c0 -108 -101 -166 -224 -166c-78 0 -148 23 -192 50z" />
    <glyph glyph-name="t" unicode="t" horiz-adv-x="388" 
d="M210 0h-93l74 419h-133l14 81h133l27 153h93l-27 -153h133l-14 -81h-133z" />
    <glyph glyph-name="u" unicode="u" horiz-adv-x="546" 
d="M252 -12c-126 0 -191 73 -191 183c0 20 2 42 6 64l47 265h93l-48 -268c-3 -18 -5 -37 -5 -54c0 -59 23 -112 104 -112c73 0 113 41 135 102c5 16 10 33 13 51l50 281h93l-50 -277c-5 -25 -10 -48 -18 -70c-35 -98 -108 -165 -229 -165z" />
    <glyph glyph-name="v" unicode="v" horiz-adv-x="505" 
d="M175 0l-107 500h92l75 -408l218 408h100l-283 -500h-95z" />
    <glyph glyph-name="w" unicode="w" horiz-adv-x="734" 
d="M117 0l-46 500h90l26 -412h1l187 412h95l42 -412h1l172 412h93l-221 -500h-106l-43 402l-185 -402h-106z" />
    <glyph glyph-name="x" unicode="x" horiz-adv-x="501" 
d="M-32 0l245 261l-136 239h102l95 -180l156 180h115l-224 -243l148 -257h-100l-110 201l-179 -201h-112z" />
    <glyph glyph-name="y" unicode="y" horiz-adv-x="512" 
d="M67 -202l127 222l-127 480h94l92 -379l208 379h99l-279 -484l-125 -219z" />
    <glyph glyph-name="z" unicode="z" horiz-adv-x="521" 
d="M-9 0v2l379 417h-285l15 81h446v-2l-379 -418h299l-14 -80h-461z" />
    <glyph glyph-name="braceleft" unicode="{" horiz-adv-x="390" 
d="M100 -8l34 190c11 61 -8 90 -63 90h-34l13 70h34c55 0 83 29 94 90l36 202c19 110 82 153 174 153h90l-12 -71h-71c-53 0 -83 -29 -93 -87l-36 -197c-12 -70 -45 -112 -108 -128v-2c56 -18 75 -60 63 -129l-33 -189c-10 -57 9 -87 63 -87h70l-12 -70h-77
c-92 0 -151 55 -132 165z" />
    <glyph glyph-name="bar" unicode="|" horiz-adv-x="208" 
d="M-1 -186l179 1016h84l-179 -1016h-84z" />
    <glyph glyph-name="braceright" unicode="}" horiz-adv-x="391" 
d="M-40 -173l13 70h70c54 0 83 30 93 87l35 198c12 70 47 112 109 129l1 2c-58 16 -76 58 -64 128l33 188c10 58 -9 87 -62 87h-71l12 71h77c92 0 151 -56 132 -166l-33 -189c-11 -61 6 -90 61 -90h34l-12 -70h-34c-55 0 -83 -29 -94 -90l-36 -203
c-19 -110 -83 -152 -175 -152h-89z" />
    <glyph glyph-name="asciitilde" unicode="~" horiz-adv-x="566" 
d="M122 276l-59 27c23 72 68 129 143 130c100 2 143 -94 216 -91c41 1 68 35 83 85l60 -27c-23 -72 -68 -129 -143 -130c-101 -2 -144 94 -216 91c-41 -1 -69 -35 -84 -85z" />
    <glyph glyph-name="DEL" horiz-adv-x="0" 
 />
    <glyph glyph-name="uni00A0" unicode="&#xa0;" horiz-adv-x="244" 
 />
    <glyph glyph-name="exclamdown" unicode="&#xa1;" horiz-adv-x="231" 
d="M104 -194h-105l102 500h76zM165 511c34 0 61 -28 61 -61c0 -34 -27 -62 -61 -62s-61 28 -61 62c0 33 27 61 61 61z" />
    <glyph glyph-name="cent" unicode="&#xa2;" horiz-adv-x="516" 
d="M229 -90l16 90c-118 16 -189 107 -189 224c0 157 127 285 280 296l18 100h66l-18 -101c43 -6 89 -19 127 -40l-13 -79c-42 26 -85 41 -127 45l-66 -373c44 5 93 20 144 49l-15 -82c-48 -27 -99 -37 -141 -39l-16 -90h-66zM146 227c0 -78 42 -137 111 -151l66 368
c-100 -18 -177 -108 -177 -217z" />
    <glyph glyph-name="sterling" unicode="&#xa3;" horiz-adv-x="568" 
d="M46 0l15 83c12 5 23 11 33 17c67 39 99 92 99 148c0 25 -6 51 -12 74h-135l14 75h102c-6 21 -10 49 -10 77c0 173 134 238 267 238c64 0 134 -15 197 -44l-15 -90c-67 35 -130 51 -189 51c-90 0 -169 -39 -169 -150c0 -28 6 -58 13 -82h223l-14 -75h-189
c4 -20 7 -46 6 -69c-2 -63 -41 -127 -105 -170h349l-15 -83h-465z" />
    <glyph glyph-name="yen" unicode="&#xa5;" horiz-adv-x="659" 
d="M52 149l12 65h225l16 94h-225l12 67h188l-165 325h109l141 -295h1l245 295h119l-280 -325h188l-12 -67h-225l-16 -94h225l-12 -65h-225l-26 -149h-96l26 149h-225z" />
    <glyph glyph-name="brokenbar" unicode="&#xa6;" horiz-adv-x="208" 
d="M215 394h-84l77 436h84zM113 -186h-84l76 433h84z" />
    <glyph glyph-name="section" unicode="&#xa7;" horiz-adv-x="522" 
d="M57 -47l14 73c52 -27 108 -39 155 -39c75 0 125 33 125 83c0 47 -46 70 -108 86c-79 21 -173 53 -173 142c0 76 58 126 143 149c-40 21 -72 53 -72 108c0 115 113 156 208 156c52 0 116 -12 166 -35l-14 -73c-52 27 -108 40 -155 40c-75 0 -125 -34 -125 -85
c0 -46 49 -68 108 -85c78 -21 172 -53 172 -141c0 -77 -58 -127 -142 -150c39 -21 72 -54 72 -109c0 -114 -115 -155 -209 -155c-52 0 -117 13 -165 35zM258 221c88 -8 163 39 163 102c0 46 -48 68 -108 85c-88 9 -164 -38 -164 -101c0 -47 47 -70 109 -86z" />
    <glyph glyph-name="dieresis" unicode="&#xa8;" horiz-adv-x="428" 
d="M204 569c-29 0 -51 22 -51 51s22 51 51 51s51 -22 51 -51s-22 -51 -51 -51zM382 569c-29 0 -51 22 -51 51s22 51 51 51s51 -22 51 -51s-22 -51 -51 -51z" />
    <glyph glyph-name="copyright" unicode="&#xa9;" horiz-adv-x="819" 
d="M377 39c189 0 371 162 375 357c3 150 -98 265 -249 265c-189 0 -371 -162 -375 -357c-3 -150 97 -265 249 -265zM376 -12c-179 0 -303 136 -303 309c0 226 207 415 431 415c179 0 303 -136 303 -309c0 -226 -208 -415 -431 -415zM576 249l-13 -74
c-52 -27 -101 -36 -141 -36c-110 0 -181 76 -181 177c0 135 110 245 249 245c40 0 92 -11 134 -38l-12 -69c-43 27 -85 38 -123 38c-98 0 -166 -75 -166 -167c0 -68 41 -117 115 -117c38 0 85 12 138 41z" />
    <glyph glyph-name="ordfeminine" unicode="&#xaa;" horiz-adv-x="396" 
d="M320 378l7 38c-31 -30 -68 -45 -110 -45c-77 0 -125 58 -125 136c0 108 78 193 179 193c43 0 77 -17 98 -45l6 38h70l-55 -315h-70zM234 433c65 0 113 58 114 121c1 46 -23 83 -72 83c-63 0 -111 -55 -112 -122c-1 -47 24 -82 70 -82z" />
    <glyph glyph-name="guillemotleft" unicode="&#xab;" horiz-adv-x="434" 
d="M192 43l-145 186l10 59l211 185h2l-17 -92l-139 -127l95 -127l-15 -84h-2zM372 43l-145 186l10 59l211 185h2l-16 -92l-139 -127l94 -127l-15 -84h-2z" />
    <glyph glyph-name="logicalnot" unicode="&#xac;" horiz-adv-x="671" 
d="M608 154h-77l48 274h-504l13 76h581z" />
    <glyph glyph-name="registered" unicode="&#xae;" horiz-adv-x="599" 
d="M302 188c-131 0 -221 96 -221 223c0 166 149 301 314 301c131 0 221 -96 221 -223c0 -166 -149 -301 -314 -301zM303 230c136 0 262 113 265 254c2 106 -68 186 -176 186c-135 0 -262 -114 -264 -254c-2 -106 67 -186 175 -186zM220 309l50 280h108c19 0 36 -3 51 -8
c28 -10 46 -32 46 -66c0 -28 -13 -50 -29 -66c-9 -9 -20 -17 -32 -23l40 -117h-57l-30 103h-74l-19 -103h-54zM301 458h57c28 0 59 12 59 51c0 24 -17 34 -43 34h-58z" />
    <glyph glyph-name="macron" unicode="&#xaf;" horiz-adv-x="431" 
d="M116 579l12 66h342l-12 -66h-342z" />
    <glyph glyph-name="degree" unicode="&#xb0;" horiz-adv-x="355" 
d="M246 414c-80 0 -143 65 -143 149s63 149 143 149c81 0 144 -65 144 -149s-63 -149 -144 -149zM246 476c47 0 81 37 81 87s-34 87 -81 87s-80 -37 -80 -87s33 -87 80 -87z" />
    <glyph glyph-name="plusminus" unicode="&#xb1;" horiz-adv-x="671" 
d="M659 368h-251l-41 -230h-76l41 230h-250l13 76h250l41 229h76l-41 -229h251zM594 0h-577l13 76h577z" />
    <glyph glyph-name="twosuperior" unicode="&#xb2;" horiz-adv-x="360" 
d="M111 339l6 40l171 133c42 33 64 62 64 91c0 31 -24 49 -59 49c-42 0 -70 -29 -84 -71h-59c18 72 73 124 151 124c64 0 115 -37 115 -95c0 -55 -41 -100 -88 -135l-111 -83h167l-9 -53h-264z" />
    <glyph glyph-name="threesuperior" unicode="&#xb3;" horiz-adv-x="357" 
d="M125 445h58c-2 -38 25 -58 63 -58c42 0 82 23 83 65c0 30 -27 48 -81 48h-16l9 48h14c54 0 92 32 93 66c0 25 -22 40 -54 40c-37 0 -66 -19 -75 -51h-63c17 65 77 104 145 104c58 0 111 -33 111 -85c0 -36 -24 -75 -76 -97c39 -15 55 -44 55 -75
c0 -70 -71 -115 -148 -115c-74 0 -125 43 -118 110z" />
    <glyph glyph-name="acute" unicode="&#xb4;" horiz-adv-x="430" 
d="M204 564l103 155h107v-3l-136 -152h-74z" />
    <glyph glyph-name="mu" unicode="&#xb5;" horiz-adv-x="552" 
d="M-4 -200l123 700h94l-46 -261c-5 -30 -8 -55 -6 -77c4 -53 29 -96 101 -96c68 0 106 40 130 91c10 23 18 49 23 80l47 263h93l-46 -258c-9 -48 -18 -77 -31 -107c-43 -95 -119 -147 -218 -147c-58 0 -106 23 -127 59l-44 -247h-93z" />
    <glyph glyph-name="paragraph" unicode="&#xb6;" horiz-adv-x="558" 
d="M453 -100h-73l129 734h-95l-129 -734h-77l78 444h-13c-102 0 -180 44 -180 147c0 147 114 209 243 209h258z" />
    <glyph glyph-name="periodcentered" unicode="&#xb7;" horiz-adv-x="207" 
d="M136 291c-33 0 -61 28 -61 62c0 33 28 61 61 61c34 0 62 -28 62 -61c0 -34 -28 -62 -62 -62z" />
    <glyph glyph-name="cedilla" unicode="&#xb8;" horiz-adv-x="429" 
d="M76 -223l8 43c15 -10 39 -16 59 -16c43 0 64 30 64 58c0 25 -17 42 -53 42c-9 0 -23 -1 -34 -5l-5 4l29 97h42l-15 -58c46 -1 92 -28 92 -78c0 -60 -53 -104 -116 -104c-22 0 -53 6 -71 17z" />
    <glyph glyph-name="onesuperior" unicode="&#xb9;" horiz-adv-x="243" 
d="M143 341l54 305h-83l10 55h146l-63 -360h-64z" />
    <glyph glyph-name="ordmasculine" unicode="&#xba;" horiz-adv-x="388" 
d="M229 371c-82 0 -136 59 -136 139c0 105 91 190 194 190c81 0 136 -59 136 -139c0 -106 -91 -190 -194 -190zM236 433c59 0 114 54 115 121c1 45 -26 83 -73 83c-58 0 -112 -53 -114 -120c-1 -45 26 -84 72 -84z" />
    <glyph glyph-name="guillemotright" unicode="&#xbb;" horiz-adv-x="434" 
d="M195 43l17 93l138 126l-94 128l14 83h2l146 -185l-11 -59l-210 -186h-2zM14 43l17 93l139 126l-94 128l14 83h2l145 -185l-10 -59l-211 -186h-2z" />
    <glyph glyph-name="onequarter" unicode="&#xbc;" horiz-adv-x="688" 
d="M353 78l8 45l227 239h70l-41 -232h54l-9 -52h-55l-13 -78h-62l13 78h-192zM433 130h122l28 160zM178 341l54 305h-82l9 55h146l-64 -360h-63zM99 0l531 700h64l-531 -700h-64z" />
    <glyph glyph-name="onehalf" unicode="&#xbd;" horiz-adv-x="710" 
d="M77 0l531 700h64l-531 -700h-64zM176 341l54 305h-82l9 55h146l-64 -360h-63zM394 0l6 40l171 133c42 33 64 62 64 91c0 31 -24 49 -59 49c-42 0 -70 -29 -84 -71h-59c18 72 73 124 151 124c64 0 115 -37 115 -95c0 -55 -41 -100 -88 -135l-111 -83h167l-9 -53h-264z" />
    <glyph glyph-name="threequarters" unicode="&#xbe;" horiz-adv-x="760" 
d="M126 445h58c-2 -38 25 -58 63 -58c42 0 82 23 83 65c0 30 -27 48 -81 48h-16l9 48h14c54 0 92 32 93 66c0 25 -22 40 -54 40c-37 0 -66 -19 -75 -51h-63c17 65 77 104 145 104c58 0 111 -33 111 -85c0 -36 -24 -75 -76 -97c39 -15 55 -44 55 -75
c0 -70 -71 -115 -148 -115c-74 0 -125 43 -118 110zM176 0l529 700h63l-530 -700h-62zM422 78l9 45l226 239h70l-41 -232h55l-10 -52h-54l-14 -78h-62l14 78h-193zM502 130h122l28 160z" />
    <glyph glyph-name="questiondown" unicode="&#xbf;" horiz-adv-x="464" 
d="M323 -17h88c-26 -125 -130 -190 -246 -190c-88 0 -183 42 -183 144s71 148 136 191c59 39 94 72 107 145l6 34h81l-6 -38c-18 -106 -64 -147 -134 -194c-53 -35 -98 -66 -98 -127c0 -49 38 -75 99 -75c76 0 134 41 150 110zM297 511c33 0 61 -28 61 -61
c0 -34 -28 -62 -61 -62c-34 0 -62 28 -62 62c0 33 28 61 62 61z" />
    <glyph glyph-name="Agrave" unicode="&#xc0;" horiz-adv-x="665" 
d="M-23 0l390 700h117l144 -700h-101l-36 187h-308l-102 -187h-104zM224 266h254l-66 345zM416 754l-136 152v3h107l103 -155h-74z" />
    <glyph glyph-name="Aacute" unicode="&#xc1;" horiz-adv-x="665" 
d="M-23 0l390 700h117l144 -700h-101l-36 187h-308l-102 -187h-104zM224 266h254l-66 345zM392 754l103 155h107v-3l-136 -152h-74z" />
    <glyph glyph-name="Acircumflex" unicode="&#xc2;" horiz-adv-x="665" 
d="M-23 0l390 700h117l144 -700h-101l-36 187h-308l-102 -187h-104zM224 266h254l-66 345zM251 739l174 159h70l117 -159h-63l-95 98l-131 -98h-72z" />
    <glyph glyph-name="Atilde" unicode="&#xc3;" horiz-adv-x="665" 
d="M-23 0l390 700h117l144 -700h-101l-36 187h-308l-102 -187h-104zM224 266h254l-66 345zM307 764l-52 18c17 66 56 110 114 110c76 0 110 -71 164 -71c31 0 51 24 62 62l53 -17c-17 -66 -57 -110 -115 -110c-75 0 -109 71 -164 71c-31 0 -50 -24 -62 -63z" />
    <glyph glyph-name="Adieresis" unicode="&#xc4;" horiz-adv-x="665" 
d="M-23 0l390 700h117l144 -700h-101l-36 187h-308l-102 -187h-104zM224 266h254l-66 345zM355 759c-29 0 -51 22 -51 51s22 51 51 51s51 -22 51 -51s-22 -51 -51 -51zM533 759c-29 0 -51 22 -51 51s22 51 51 51s51 -22 51 -51s-22 -51 -51 -51z" />
    <glyph glyph-name="Aring" unicode="&#xc5;" horiz-adv-x="665" 
d="M628 0h-103l-35 187h-308l-102 -187h-103l386 693c-28 21 -46 55 -46 94c0 72 62 132 134 132c64 0 113 -51 113 -114c0 -52 -32 -97 -77 -119zM476 266l-65 345l-188 -345h253zM434 725c40 0 76 34 76 76c0 37 -27 66 -63 66c-40 0 -75 -35 -75 -77c0 -37 26 -65 62 -65
z" />
    <glyph glyph-name="AE" unicode="&#xc6;" horiz-adv-x="1038" 
d="M-52 0l580 700h571l-15 -87h-384l-37 -211h345l-15 -87h-346l-40 -228h384l-15 -87h-483l33 187h-306l-153 -187h-119zM281 266h259l61 347h-34z" />
    <glyph glyph-name="Ccedilla" unicode="&#xc7;" horiz-adv-x="665" 
d="M252 -223l8 43c15 -10 39 -16 59 -16c43 0 64 30 64 58c0 25 -17 42 -53 42c-9 0 -23 -1 -35 -5l-4 4l28 92c-149 27 -247 151 -247 310c0 223 199 407 423 407c86 0 160 -21 213 -56l-17 -93c-46 35 -121 61 -197 61c-171 0 -320 -143 -320 -318
c0 -131 87 -231 222 -231c79 0 162 27 221 65l-17 -97c-66 -37 -142 -55 -216 -55c-9 0 -17 1 -25 2l-12 -48c46 -1 92 -28 92 -78c0 -60 -53 -104 -116 -104c-23 0 -53 6 -71 17z" />
    <glyph glyph-name="Egrave" unicode="&#xc8;" horiz-adv-x="606" 
d="M544 0h-502l123 700h502l-15 -87h-403l-37 -211h365l-15 -87h-365l-41 -228h403zM436 764l-136 152v3h107l103 -155h-74z" />
    <glyph glyph-name="Eacute" unicode="&#xc9;" horiz-adv-x="606" 
d="M544 0h-502l123 700h502l-15 -87h-403l-37 -211h365l-15 -87h-365l-41 -228h403zM375 764l103 155h107v-3l-136 -152h-74z" />
    <glyph glyph-name="Ecircumflex" unicode="&#xca;" horiz-adv-x="606" 
d="M544 0h-502l123 700h502l-15 -87h-403l-37 -211h365l-15 -87h-365l-41 -228h403zM247 758l174 159h70l117 -159h-63l-95 98l-131 -98h-72z" />
    <glyph glyph-name="Edieresis" unicode="&#xcb;" horiz-adv-x="606" 
d="M544 0h-502l123 700h502l-15 -87h-403l-37 -211h365l-15 -87h-365l-41 -228h403zM349 769c-29 0 -51 22 -51 51s22 51 51 51s51 -22 51 -51s-22 -51 -51 -51zM527 769c-29 0 -51 22 -51 51s22 51 51 51s51 -22 51 -51s-22 -51 -51 -51z" />
    <glyph glyph-name="Igrave" unicode="&#xcc;" horiz-adv-x="243" 
d="M141 0h-99l123 700h99zM205 764l-136 152v3h107l103 -155h-74z" />
    <glyph glyph-name="Iacute" unicode="&#xcd;" horiz-adv-x="243" 
d="M141 0h-99l123 700h99zM187 764l103 155h107v-3l-136 -152h-74z" />
    <glyph glyph-name="Icircumflex" unicode="&#xce;" horiz-adv-x="243" 
d="M141 0h-99l123 700h99zM43 748l174 159h70l117 -159h-63l-95 98l-131 -98h-72z" />
    <glyph glyph-name="Idieresis" unicode="&#xcf;" horiz-adv-x="243" 
d="M197 828c0 -33 -28 -59 -60 -59c-27 0 -44 18 -44 43c0 33 28 58 61 58c26 0 43 -18 43 -42zM361 828c0 -33 -28 -59 -61 -59c-26 0 -43 18 -43 43c0 33 28 58 60 58c27 0 44 -18 44 -42zM141 0h-99l123 700h99z" />
    <glyph glyph-name="Eth" unicode="&#xd0;" horiz-adv-x="777" 
d="M126 0l57 326h-111l12 67h111l54 307h219c57 0 105 -8 144 -24c114 -45 186 -152 186 -281c0 -155 -107 -287 -245 -353c-55 -26 -121 -42 -193 -42h-234zM240 87h124c57 0 105 11 145 30c107 51 187 154 187 276c0 94 -49 168 -127 202c-26 11 -62 18 -106 18h-130
l-39 -220h188l-12 -67h-188z" />
    <glyph glyph-name="Ntilde" unicode="&#xd1;" horiz-adv-x="734" 
d="M42 0l123 700h117l277 -567l99 567h97l-123 -700h-117l-277 567l-99 -567h-97zM345 764l-52 18c17 66 56 110 114 110c76 0 110 -71 164 -71c31 0 51 24 62 62l53 -17c-17 -66 -57 -110 -115 -110c-75 0 -109 71 -164 71c-31 0 -50 -24 -62 -63z" />
    <glyph glyph-name="Ograve" unicode="&#xd2;" horiz-adv-x="820" 
d="M386 -12c-186 0 -314 138 -314 315c0 224 202 409 423 409c186 0 315 -137 315 -316c0 -223 -203 -408 -424 -408zM391 75c167 0 317 146 317 319c0 131 -88 230 -218 230c-166 0 -316 -143 -316 -318c0 -131 87 -231 217 -231zM539 764l-136 152v3h107l103 -155h-74z
" />
    <glyph glyph-name="Oacute" unicode="&#xd3;" horiz-adv-x="820" 
d="M386 -12c-186 0 -314 138 -314 315c0 224 202 409 423 409c186 0 315 -137 315 -316c0 -223 -203 -408 -424 -408zM391 75c167 0 317 146 317 319c0 131 -88 230 -218 230c-166 0 -316 -143 -316 -318c0 -131 87 -231 217 -231zM449 764l103 155h107v-3l-136 -152h-74z
" />
    <glyph glyph-name="Ocircumflex" unicode="&#xd4;" horiz-adv-x="820" 
d="M386 -12c-186 0 -314 138 -314 315c0 224 202 409 423 409c186 0 315 -137 315 -316c0 -223 -203 -408 -424 -408zM391 75c167 0 317 146 317 319c0 131 -88 230 -218 230c-166 0 -316 -143 -316 -318c0 -131 87 -231 217 -231zM332 758l174 159h70l117 -159h-63l-95 98
l-131 -98h-72z" />
    <glyph glyph-name="Otilde" unicode="&#xd5;" horiz-adv-x="820" 
d="M386 -12c-186 0 -314 138 -314 315c0 224 202 409 423 409c186 0 315 -137 315 -316c0 -223 -203 -408 -424 -408zM391 75c167 0 317 146 317 319c0 131 -88 230 -218 230c-166 0 -316 -143 -316 -318c0 -131 87 -231 217 -231zM378 764l-52 18c17 66 56 110 114 110
c76 0 110 -71 164 -71c31 0 51 24 62 62l53 -17c-17 -66 -57 -110 -115 -110c-75 0 -109 71 -164 71c-31 0 -50 -24 -62 -63z" />
    <glyph glyph-name="Odieresis" unicode="&#xd6;" horiz-adv-x="820" 
d="M386 -12c-186 0 -314 138 -314 315c0 224 202 409 423 409c186 0 315 -137 315 -316c0 -223 -203 -408 -424 -408zM391 75c167 0 317 146 317 319c0 131 -88 230 -218 230c-166 0 -316 -143 -316 -318c0 -131 87 -231 217 -231zM433 764c-29 0 -51 22 -51 51s22 51 51 51
s51 -22 51 -51s-22 -51 -51 -51zM611 764c-29 0 -51 22 -51 51s22 51 51 51s51 -22 51 -51s-22 -51 -51 -51z" />
    <glyph glyph-name="multiply" unicode="&#xd7;" 
d="M101 78l-46 54l262 222l-183 220l58 50l181 -219l261 221l46 -54l-261 -222l181 -220l-57 -50l-182 220z" />
    <glyph glyph-name="Oslash" unicode="&#xd8;" horiz-adv-x="820" 
d="M29 -12l114 109c-46 55 -71 126 -71 206c0 224 202 409 423 409c82 0 152 -27 205 -72l74 72h81l-115 -112c44 -54 70 -125 70 -204c0 -223 -203 -408 -424 -408c-81 0 -151 26 -204 70l-73 -70h-80zM214 168l418 405c-37 32 -86 51 -142 51c-166 0 -316 -143 -316 -318
c0 -53 14 -101 40 -138zM668 530l-418 -405c37 -31 85 -50 141 -50c167 0 317 146 317 319c0 52 -14 98 -40 136z" />
    <glyph glyph-name="Ugrave" unicode="&#xd9;" horiz-adv-x="729" 
d="M95 333l65 367h99l-65 -367c-5 -26 -7 -53 -7 -77c0 -97 48 -181 172 -181c115 0 176 69 209 165c9 26 16 54 21 84l67 376h99l-67 -378c-6 -36 -15 -70 -26 -102c-49 -141 -148 -232 -312 -232c-171 0 -262 102 -262 261c0 26 2 56 7 84zM463 754l-136 152v3h107
l103 -155h-74z" />
    <glyph glyph-name="Uacute" unicode="&#xda;" horiz-adv-x="729" 
d="M95 333l65 367h99l-65 -367c-5 -26 -7 -53 -7 -77c0 -97 48 -181 172 -181c115 0 176 69 209 165c9 26 16 54 21 84l67 376h99l-67 -378c-6 -36 -15 -70 -26 -102c-49 -141 -148 -232 -312 -232c-171 0 -262 102 -262 261c0 26 2 56 7 84zM418 754l103 155h107v-3
l-136 -152h-74z" />
    <glyph glyph-name="Ucircumflex" unicode="&#xdb;" horiz-adv-x="729" 
d="M95 333l65 367h99l-65 -367c-5 -26 -7 -53 -7 -77c0 -97 48 -181 172 -181c115 0 176 69 209 165c9 26 16 54 21 84l67 376h99l-67 -378c-6 -36 -15 -70 -26 -102c-49 -141 -148 -232 -312 -232c-171 0 -262 102 -262 261c0 26 2 56 7 84zM285 748l174 159h70l117 -159
h-63l-95 98l-131 -98h-72z" />
    <glyph glyph-name="Udieresis" unicode="&#xdc;" horiz-adv-x="729" 
d="M95 333l65 367h99l-65 -367c-5 -26 -7 -53 -7 -77c0 -97 48 -181 172 -181c115 0 176 69 209 165c9 26 16 54 21 84l67 376h99l-67 -378c-6 -36 -15 -70 -26 -102c-49 -141 -148 -232 -312 -232c-171 0 -262 102 -262 261c0 26 2 56 7 84zM388 764c-29 0 -51 22 -51 51
s22 51 51 51s51 -22 51 -51s-22 -51 -51 -51zM566 764c-29 0 -51 22 -51 51s22 51 51 51s51 -22 51 -51s-22 -51 -51 -51z" />
    <glyph glyph-name="Yacute" unicode="&#xdd;" horiz-adv-x="626" 
d="M234 0l53 301l-202 399h112l149 -315h2l260 315h119l-342 -399l-53 -301h-98zM371 749l103 155h107v-3l-136 -152h-74z" />
    <glyph glyph-name="Thorn" unicode="&#xde;" horiz-adv-x="635" 
d="M72 0l123 700h99l-22 -126h156c132 0 238 -58 238 -194c0 -176 -137 -250 -293 -250h-179l-23 -130h-99zM210 217h173c100 0 181 42 181 156c0 84 -61 115 -144 115h-163z" />
    <glyph glyph-name="germandbls" unicode="&#xdf;" horiz-adv-x="618" 
d="M73 -100l92 519h-105l14 81h105c23 117 100 212 238 212c92 0 177 -53 177 -143c0 -72 -44 -138 -134 -174c84 -30 124 -93 124 -166c0 -140 -123 -241 -275 -241c-27 0 -63 4 -84 9l14 78c18 -4 45 -7 67 -7c112 0 188 74 188 166c0 78 -65 123 -160 123l12 67
c90 5 155 62 155 131c0 49 -37 79 -92 79c-71 0 -122 -47 -138 -137l-105 -597h-93z" />
    <glyph glyph-name="agrave" unicode="&#xe0;" 
d="M428 0l13 76c-47 -54 -114 -88 -185 -88c-133 0 -203 94 -203 216c0 166 116 308 279 308c77 0 138 -39 167 -91l14 79h93l-88 -500h-90zM276 66c110 0 199 107 199 222c0 80 -48 146 -137 146c-108 0 -192 -102 -192 -224c0 -82 44 -144 130 -144zM372 564l-136 152v3
h107l103 -155h-74z" />
    <glyph glyph-name="aacute" unicode="&#xe1;" 
d="M428 0l13 76c-47 -54 -114 -88 -185 -88c-133 0 -203 94 -203 216c0 166 116 308 279 308c77 0 138 -39 167 -91l14 79h93l-88 -500h-90zM276 66c110 0 199 107 199 222c0 80 -48 146 -137 146c-108 0 -192 -102 -192 -224c0 -82 44 -144 130 -144zM311 564l103 155h107
v-3l-136 -152h-74z" />
    <glyph glyph-name="acircumflex" unicode="&#xe2;" 
d="M428 0l13 76c-47 -54 -114 -88 -185 -88c-133 0 -203 94 -203 216c0 166 116 308 279 308c77 0 138 -39 167 -91l14 79h93l-88 -500h-90zM276 66c110 0 199 107 199 222c0 80 -48 146 -137 146c-108 0 -192 -102 -192 -224c0 -82 44 -144 130 -144zM183 558l174 159h70
l117 -159h-63l-95 98l-131 -98h-72z" />
    <glyph glyph-name="atilde" unicode="&#xe3;" 
d="M428 0l13 76c-47 -54 -114 -88 -185 -88c-133 0 -203 94 -203 216c0 166 116 308 279 308c77 0 138 -39 167 -91l14 79h93l-88 -500h-90zM276 66c110 0 199 107 199 222c0 80 -48 146 -137 146c-108 0 -192 -102 -192 -224c0 -82 44 -144 130 -144zM244 569l-52 18
c17 66 56 110 114 110c76 0 110 -71 164 -71c31 0 51 24 62 62l53 -17c-17 -66 -57 -110 -115 -110c-75 0 -109 71 -164 71c-31 0 -50 -24 -62 -63z" />
    <glyph glyph-name="adieresis" unicode="&#xe4;" 
d="M428 0l13 76c-47 -54 -114 -88 -185 -88c-133 0 -203 94 -203 216c0 166 116 308 279 308c77 0 138 -39 167 -91l14 79h93l-88 -500h-90zM276 66c110 0 199 107 199 222c0 80 -48 146 -137 146c-108 0 -192 -102 -192 -224c0 -82 44 -144 130 -144zM283 569
c-29 0 -51 22 -51 51s22 51 51 51s51 -22 51 -51s-22 -51 -51 -51zM461 569c-29 0 -51 22 -51 51s22 51 51 51s51 -22 51 -51s-22 -51 -51 -51z" />
    <glyph glyph-name="aring" unicode="&#xe5;" 
d="M428 0l13 76c-47 -54 -114 -88 -185 -88c-133 0 -203 94 -203 216c0 166 116 308 279 308c77 0 138 -39 167 -91l14 79h93l-88 -500h-90zM276 66c110 0 199 107 199 222c0 80 -48 146 -137 146c-108 0 -192 -102 -192 -224c0 -82 44 -144 130 -144zM372 550
c-67 0 -115 53 -112 119c4 70 64 127 134 127c67 0 116 -54 112 -120c-4 -70 -64 -126 -134 -126zM377 602c39 0 72 32 75 72c2 39 -25 70 -62 70c-39 0 -72 -33 -75 -73c-2 -39 25 -69 62 -69z" />
    <glyph glyph-name="ae" unicode="&#xe6;" horiz-adv-x="968" 
d="M129 390l14 79c60 31 122 43 178 43c97 0 171 -35 192 -115c52 71 129 115 219 115c142 0 221 -95 207 -240c-1 -14 -5 -31 -6 -36h-408c-12 -103 41 -171 134 -171c69 0 126 37 163 96h90c-51 -105 -146 -173 -260 -173c-101 0 -169 54 -190 140
c-57 -83 -148 -140 -252 -140c-86 0 -176 42 -176 145c0 83 49 133 120 155c27 8 58 13 97 13h200c13 94 -44 135 -145 135c-51 0 -115 -14 -177 -46zM438 234h-192c-28 0 -50 -3 -67 -9c-39 -13 -63 -43 -63 -86c0 -55 44 -77 101 -77c102 0 191 71 221 172zM542 303h307
c7 85 -42 134 -125 134s-150 -53 -182 -134z" />
    <glyph glyph-name="ccedilla" unicode="&#xe7;" horiz-adv-x="516" 
d="M156 -223l7 43c15 -10 40 -16 60 -16c42 0 63 30 63 58c0 25 -17 42 -53 42c-9 0 -23 -1 -34 -5l-5 4l27 92c-104 22 -167 110 -167 219c0 164 140 298 303 298c55 0 120 -14 171 -43l-14 -81c-50 31 -105 46 -155 46c-115 0 -211 -97 -211 -217c0 -88 56 -151 148 -151
c52 0 109 14 170 48l-15 -85c-60 -33 -123 -41 -171 -41c-3 0 -15 0 -19 1l-11 -47c46 -1 92 -28 92 -78c0 -60 -53 -104 -116 -104c-22 0 -53 6 -70 17z" />
    <glyph glyph-name="egrave" unicode="&#xe8;" horiz-adv-x="587" 
d="M273 -12c-129 0 -219 98 -219 226c0 164 138 298 297 298c144 0 222 -95 207 -239c-2 -16 -5 -32 -7 -37h-407c-1 -10 -2 -20 -1 -29c5 -84 57 -142 137 -142c65 0 123 37 159 96h93c-51 -105 -148 -173 -259 -173zM161 303h305c9 85 -40 134 -120 134
s-154 -54 -185 -134zM363 564l-136 152v3h107l103 -155h-74z" />
    <glyph glyph-name="eacute" unicode="&#xe9;" horiz-adv-x="587" 
d="M273 -12c-129 0 -219 98 -219 226c0 164 138 298 297 298c144 0 222 -95 207 -239c-2 -16 -5 -32 -7 -37h-407c-1 -10 -2 -20 -1 -29c5 -84 57 -142 137 -142c65 0 123 37 159 96h93c-51 -105 -148 -173 -259 -173zM161 303h305c9 85 -40 134 -120 134
s-154 -54 -185 -134zM310 564l103 155h107v-3l-136 -152h-74z" />
    <glyph glyph-name="ecircumflex" unicode="&#xea;" horiz-adv-x="587" 
d="M273 -12c-129 0 -219 98 -219 226c0 164 138 298 297 298c144 0 222 -95 207 -239c-2 -16 -5 -32 -7 -37h-407c-1 -10 -2 -20 -1 -29c5 -84 57 -142 137 -142c65 0 123 37 159 96h93c-51 -105 -148 -173 -259 -173zM161 303h305c9 85 -40 134 -120 134
s-154 -54 -185 -134zM178 558l174 159h70l117 -159h-63l-95 98l-131 -98h-72z" />
    <glyph glyph-name="edieresis" unicode="&#xeb;" horiz-adv-x="587" 
d="M273 -12c-129 0 -219 98 -219 226c0 164 138 298 297 298c144 0 222 -95 207 -239c-2 -16 -5 -32 -7 -37h-407c-1 -10 -2 -20 -1 -29c5 -84 57 -142 137 -142c65 0 123 37 159 96h93c-51 -105 -148 -173 -259 -173zM161 303h305c9 85 -40 134 -120 134
s-154 -54 -185 -134zM284 569c-29 0 -51 22 -51 51s22 51 51 51s51 -22 51 -51s-22 -51 -51 -51zM462 569c-29 0 -51 22 -51 51s22 51 51 51s51 -22 51 -51s-22 -51 -51 -51z" />
    <glyph glyph-name="igrave" unicode="&#xec;" horiz-adv-x="214" 
d="M155 564l-136 152v3h107l103 -155h-74zM124 0h-93l88 500h93z" />
    <glyph glyph-name="iacute" unicode="&#xed;" horiz-adv-x="214" 
d="M139 564l103 155h107v-3l-136 -152h-74zM124 0h-93l88 500h93z" />
    <glyph glyph-name="icircumflex" unicode="&#xee;" horiz-adv-x="214" 
d="M124 0h-93l88 500h93zM-6 558l174 159h70l117 -159h-63l-95 98l-131 -98h-72z" />
    <glyph glyph-name="idieresis" unicode="&#xef;" horiz-adv-x="214" 
d="M155 628c0 -33 -28 -59 -62 -59c-26 0 -43 18 -43 43c0 33 29 58 61 58c27 0 44 -18 44 -42zM312 628c0 -33 -28 -59 -61 -59c-26 0 -44 19 -44 43c0 33 30 58 62 58c26 0 43 -18 43 -42zM124 0h-93l88 500h93z" />
    <glyph glyph-name="eth" unicode="&#xf0;" horiz-adv-x="598" 
d="M305 -12c-132 0 -221 96 -221 226c0 155 126 283 268 294c29 2 60 -2 85 -9l-55 98l-95 -56l-22 38l95 56l-34 62l76 45l33 -62l101 60l21 -38l-102 -61l98 -182c27 -51 49 -107 49 -171c0 -165 -140 -300 -297 -300zM308 66c105 0 201 97 201 220c0 85 -54 148 -135 148
c-102 0 -197 -97 -197 -220c0 -85 53 -148 131 -148z" />
    <glyph glyph-name="ntilde" unicode="&#xf1;" horiz-adv-x="578" 
d="M30 0l88 500h93l-12 -70c48 51 112 82 185 82c82 0 145 -37 161 -111c7 -29 6 -70 -3 -124l-49 -277h-93l49 278c8 46 8 71 2 93c-10 36 -40 63 -98 63c-94 0 -166 -69 -185 -180l-45 -254h-93zM219 569l-52 18c17 66 56 110 114 110c76 0 110 -71 164 -71
c31 0 51 24 62 62l53 -17c-17 -66 -57 -110 -115 -110c-75 0 -109 71 -164 71c-31 0 -50 -24 -62 -63z" />
    <glyph glyph-name="ograve" unicode="&#xf2;" horiz-adv-x="599" 
d="M275 -12c-132 0 -221 96 -221 226c0 164 139 298 296 298c132 0 221 -96 221 -226c0 -164 -139 -298 -296 -298zM278 66c105 0 201 97 201 220c0 85 -54 148 -132 148c-105 0 -200 -97 -200 -220c0 -85 53 -148 131 -148zM375 564l-136 152v3h107l103 -155h-74z" />
    <glyph glyph-name="oacute" unicode="&#xf3;" horiz-adv-x="599" 
d="M275 -12c-132 0 -221 96 -221 226c0 164 139 298 296 298c132 0 221 -96 221 -226c0 -164 -139 -298 -296 -298zM278 66c105 0 201 97 201 220c0 85 -54 148 -132 148c-105 0 -200 -97 -200 -220c0 -85 53 -148 131 -148zM307 564l103 155h107v-3l-136 -152h-74z" />
    <glyph glyph-name="ocircumflex" unicode="&#xf4;" horiz-adv-x="599" 
d="M275 -12c-132 0 -221 96 -221 226c0 164 139 298 296 298c132 0 221 -96 221 -226c0 -164 -139 -298 -296 -298zM278 66c105 0 201 97 201 220c0 85 -54 148 -132 148c-105 0 -200 -97 -200 -220c0 -85 53 -148 131 -148zM186 553l174 159h70l117 -159h-63l-95 98
l-131 -98h-72z" />
    <glyph glyph-name="otilde" unicode="&#xf5;" horiz-adv-x="599" 
d="M275 -12c-132 0 -221 96 -221 226c0 164 139 298 296 298c132 0 221 -96 221 -226c0 -164 -139 -298 -296 -298zM278 66c105 0 201 97 201 220c0 85 -54 148 -132 148c-105 0 -200 -97 -200 -220c0 -85 53 -148 131 -148zM232 564l-52 18c17 66 56 110 114 110
c76 0 110 -71 164 -71c31 0 51 24 62 62l53 -17c-17 -66 -57 -110 -115 -110c-75 0 -109 71 -164 71c-31 0 -50 -24 -62 -63z" />
    <glyph glyph-name="odieresis" unicode="&#xf6;" horiz-adv-x="599" 
d="M275 -12c-132 0 -221 96 -221 226c0 164 139 298 296 298c132 0 221 -96 221 -226c0 -164 -139 -298 -296 -298zM278 66c105 0 201 97 201 220c0 85 -54 148 -132 148c-105 0 -200 -97 -200 -220c0 -85 53 -148 131 -148zM288 569c-29 0 -51 22 -51 51s22 51 51 51
s51 -22 51 -51s-22 -51 -51 -51zM466 569c-29 0 -51 22 -51 51s22 51 51 51s51 -22 51 -51s-22 -51 -51 -51z" />
    <glyph glyph-name="divide" unicode="&#xf7;" horiz-adv-x="578" 
d="M568 314h-508l13 76h508zM288 110c-32 0 -58 26 -58 58c0 31 26 58 58 58c31 0 58 -27 58 -58c0 -32 -27 -58 -58 -58zM353 480c-32 0 -58 26 -58 58c0 31 26 58 58 58c31 0 58 -27 58 -58c0 -32 -27 -58 -58 -58z" />
    <glyph glyph-name="oslash" unicode="&#xf8;" horiz-adv-x="600" 
d="M16 -12l83 83c-29 38 -45 87 -45 143c0 164 139 298 296 298c57 0 106 -18 142 -48l49 48h72l-85 -86c27 -38 43 -86 43 -140c0 -164 -139 -298 -296 -298c-55 0 -103 17 -140 46l-46 -46h-73zM165 137l266 265c-21 20 -51 32 -84 32c-105 0 -200 -97 -200 -220
c0 -29 6 -56 18 -77zM460 358l-264 -263c21 -18 50 -29 82 -29c105 0 201 97 201 220c0 27 -7 52 -19 72z" />
    <glyph glyph-name="ugrave" unicode="&#xf9;" horiz-adv-x="546" 
d="M252 -12c-126 0 -191 73 -191 183c0 20 2 42 6 64l47 265h93l-48 -268c-3 -18 -5 -37 -5 -54c0 -59 23 -112 104 -112c73 0 113 41 135 102c5 16 10 33 13 51l50 281h93l-50 -277c-5 -25 -10 -48 -18 -70c-35 -98 -108 -165 -229 -165zM327 564l-136 152v3h107l103 -155
h-74z" />
    <glyph glyph-name="uacute" unicode="&#xfa;" horiz-adv-x="546" 
d="M252 -12c-126 0 -191 73 -191 183c0 20 2 42 6 64l47 265h93l-48 -268c-3 -18 -5 -37 -5 -54c0 -59 23 -112 104 -112c73 0 113 41 135 102c5 16 10 33 13 51l50 281h93l-50 -277c-5 -25 -10 -48 -18 -70c-35 -98 -108 -165 -229 -165zM296 564l103 155h107v-3l-136 -152
h-74z" />
    <glyph glyph-name="ucircumflex" unicode="&#xfb;" horiz-adv-x="546" 
d="M252 -12c-126 0 -191 73 -191 183c0 20 2 42 6 64l47 265h93l-48 -268c-3 -18 -5 -37 -5 -54c0 -59 23 -112 104 -112c73 0 113 41 135 102c5 16 10 33 13 51l50 281h93l-50 -277c-5 -25 -10 -48 -18 -70c-35 -98 -108 -165 -229 -165zM160 558l174 159h70l117 -159h-63
l-95 98l-131 -98h-72z" />
    <glyph glyph-name="udieresis" unicode="&#xfc;" horiz-adv-x="546" 
d="M252 -12c-126 0 -191 73 -191 183c0 20 2 42 6 64l47 265h93l-48 -268c-3 -18 -5 -37 -5 -54c0 -59 23 -112 104 -112c73 0 113 41 135 102c5 16 10 33 13 51l50 281h93l-50 -277c-5 -25 -10 -48 -18 -70c-35 -98 -108 -165 -229 -165zM261 564c-29 0 -51 22 -51 51
s22 51 51 51s51 -22 51 -51s-22 -51 -51 -51zM439 564c-29 0 -51 22 -51 51s22 51 51 51s51 -22 51 -51s-22 -51 -51 -51z" />
    <glyph glyph-name="yacute" unicode="&#xfd;" horiz-adv-x="513" 
d="M67 -202l127 222l-127 480h94l92 -379l208 379h99l-279 -484l-125 -219zM284 559l103 155h107v-3l-136 -152h-74z" />
    <glyph glyph-name="thorn" unicode="&#xfe;" 
d="M25 -200l159 900h93l-48 -272c47 51 113 84 182 84c133 0 203 -94 203 -216c0 -166 -116 -308 -279 -308c-80 0 -138 39 -168 91l-49 -279h-93zM329 66c108 0 192 102 192 224c0 82 -44 144 -130 144c-110 0 -199 -107 -199 -222c0 -80 48 -146 137 -146z" />
    <glyph glyph-name="ydieresis" unicode="&#xff;" horiz-adv-x="513" 
d="M67 -202l127 222l-127 480h94l92 -379l208 379h99l-279 -484l-125 -219zM251 559c-29 0 -51 22 -51 51s22 51 51 51s51 -22 51 -51s-22 -51 -51 -51zM429 559c-29 0 -51 22 -51 51s22 51 51 51s51 -22 51 -51s-22 -51 -51 -51z" />
    <glyph glyph-name="dotlessi" unicode="&#x131;" horiz-adv-x="214" 
d="M124 0h-93l88 500h93z" />
    <glyph glyph-name="Lslash" unicode="&#x141;" horiz-adv-x="643" 
d="M611 0h-485l49 277l-121 -56l13 72l121 57l61 350h99l-52 -300l214 99l-13 -72l-214 -100l-43 -240h386z" />
    <glyph glyph-name="lslash" unicode="&#x142;" horiz-adv-x="338" 
d="M215 0h-93l53 300l-117 -54l13 71l116 55l58 328h93l-49 -281l117 54l-13 -72l-117 -54z" />
    <glyph glyph-name="OE" unicode="&#x152;" horiz-adv-x="1030" 
d="M599 87h384l-15 -87h-567c-57 0 -105 8 -143 24c-114 46 -186 153 -186 281c0 154 105 289 243 354c54 25 121 41 195 41h581l-15 -87h-384l-37 -211h345l-15 -87h-346zM406 87h94l93 526h-88c-56 0 -106 -10 -146 -29c-107 -50 -186 -155 -186 -277
c0 -93 48 -170 127 -202c26 -11 60 -18 106 -18z" />
    <glyph glyph-name="oe" unicode="&#x153;" horiz-adv-x="1009" 
d="M274 -12c-131 0 -220 96 -220 226c0 164 139 298 296 298c93 0 161 -50 192 -124c51 74 138 124 234 124c143 0 220 -97 204 -240c-1 -13 -4 -31 -6 -36h-408c0 -12 0 -24 1 -35c3 -79 58 -136 136 -136c65 0 122 37 159 96h92c-51 -105 -149 -173 -260 -173
c-91 0 -159 49 -188 123c-52 -74 -137 -123 -232 -123zM278 66c105 0 200 98 200 219c0 86 -53 149 -131 149c-105 0 -201 -98 -201 -219c0 -86 53 -149 132 -149zM584 303h304c9 85 -39 134 -120 134c-80 0 -153 -54 -184 -134z" />
    <glyph glyph-name="Scaron" unicode="&#x160;" horiz-adv-x="607" 
d="M26 57l17 91c73 -55 158 -74 230 -74c106 0 203 44 203 133c0 78 -77 100 -146 120c-112 33 -221 70 -221 196c0 140 133 189 259 189c81 0 168 -20 236 -54l-17 -90c-73 37 -154 58 -224 58c-80 0 -153 -28 -153 -99c0 -72 75 -93 154 -116c104 -30 213 -68 213 -195
c0 -146 -144 -228 -307 -228c-81 0 -172 20 -244 69zM357 758l-117 159h63l96 -98l130 98h72l-174 -159h-70z" />
    <glyph glyph-name="scaron" unicode="&#x161;" horiz-adv-x="481" 
d="M22 38l15 80c52 -36 111 -54 174 -54c84 0 139 32 139 84c0 53 -55 65 -121 80c-78 17 -151 46 -151 135c0 109 108 149 204 149c63 0 136 -17 181 -37l-14 -79c-53 24 -114 40 -171 40c-64 0 -112 -20 -112 -68c0 -47 48 -59 113 -75c72 -17 159 -42 159 -139
c0 -108 -101 -166 -224 -166c-78 0 -148 23 -192 50zM269 558l-117 159h63l96 -98l130 98h72l-174 -159h-70z" />
    <glyph glyph-name="Ydieresis" unicode="&#x178;" horiz-adv-x="626" 
d="M234 0l53 301l-202 399h112l149 -315h2l260 315h119l-342 -399l-53 -301h-98zM334 754c-29 0 -51 22 -51 51s22 51 51 51s51 -22 51 -51s-22 -51 -51 -51zM512 754c-29 0 -51 22 -51 51s22 51 51 51s51 -22 51 -51s-22 -51 -51 -51z" />
    <glyph glyph-name="Zcaron" unicode="&#x17d;" horiz-adv-x="640" 
d="M-8 0v2l518 611h-388l14 87h564v-2l-517 -611h407l-15 -87h-583zM386 758l-117 159h63l96 -98l130 98h72l-174 -159h-70z" />
    <glyph glyph-name="zcaron" unicode="&#x17e;" horiz-adv-x="521" 
d="M-9 0v2l379 417h-285l15 81h446v-2l-379 -418h299l-14 -80h-461zM292 558l-117 159h63l96 -98l130 98h72l-174 -159h-70z" />
    <glyph glyph-name="florin" unicode="&#x192;" horiz-adv-x="409" 
d="M-91 -180l23 81c51 0 101 18 125 103l117 415h-105l22 81h105l14 51c30 105 83 175 207 175c28 0 64 -3 78 -6l-21 -78c-10 2 -31 4 -53 4c-46 0 -97 -15 -120 -100l-13 -46h143l-22 -81h-143l-119 -423c-31 -110 -86 -176 -238 -176z" />
    <glyph glyph-name="circumflex" unicode="&#x2c6;" horiz-adv-x="430" 
d="M102 558l174 159h70l117 -159h-63l-95 98l-131 -98h-72z" />
    <glyph glyph-name="caron" unicode="&#x2c7;" horiz-adv-x="430" 
d="M248 558l-117 159h63l96 -98l130 98h72l-174 -159h-70z" />
    <glyph glyph-name="breve" unicode="&#x2d8;" horiz-adv-x="428" 
d="M153 700h61c-2 -53 27 -94 83 -94s92 41 99 94h65c-10 -86 -78 -154 -167 -154c-90 0 -145 68 -141 154z" />
    <glyph glyph-name="dotaccent" unicode="&#x2d9;" horiz-adv-x="427" 
d="M291 558c-29 0 -51 22 -51 51s22 51 51 51s51 -22 51 -51s-22 -51 -51 -51z" />
    <glyph glyph-name="ring" unicode="&#x2da;" horiz-adv-x="427" 
d="M286 524c-67 0 -115 53 -112 119c4 70 64 127 134 127c67 0 116 -54 112 -120c-4 -70 -64 -126 -134 -126zM291 576c39 0 72 32 75 72c2 39 -25 70 -62 70c-39 0 -72 -33 -75 -73c-2 -39 25 -69 62 -69z" />
    <glyph glyph-name="ogonek" unicode="&#x2db;" horiz-adv-x="428" 
d="M242 -177l-8 -45c-21 -9 -45 -15 -73 -15c-60 0 -100 35 -100 83c0 63 59 115 147 151l38 -17c-87 -48 -123 -86 -123 -128c0 -28 21 -44 54 -44c21 0 45 5 65 15z" />
    <glyph glyph-name="tilde" unicode="&#x2dc;" horiz-adv-x="430" 
d="M149 564l-52 18c17 66 56 110 114 110c76 0 110 -71 164 -71c31 0 51 24 62 62l53 -17c-17 -66 -57 -110 -115 -110c-75 0 -109 71 -164 71c-31 0 -50 -24 -62 -63z" />
    <glyph glyph-name="hungarumlaut" unicode="&#x2dd;" horiz-adv-x="430" 
d="M158 554l76 155h93v-3l-103 -152h-66zM325 554l76 155h93v-3l-103 -152h-66z" />
    <glyph glyph-name="pi" unicode="&#x3c0;" horiz-adv-x="652" 
d="M84 0l75 423h-98l13 77h615l-14 -77h-113l-44 -246c-15 -85 28 -101 75 -101l-14 -78c-142 0 -171 77 -153 181l43 244h-217l-75 -423h-93z" />
    <glyph glyph-name="endash" unicode="&#x2013;" horiz-adv-x="523" 
d="M506 314h-439l13 76h439z" />
    <glyph glyph-name="emdash" unicode="&#x2014;" horiz-adv-x="676" 
d="M659 314h-592l13 76h592z" />
    <glyph glyph-name="quoteleft" unicode="&#x2018;" horiz-adv-x="185" 
d="M241 700l-65 -96c26 -7 45 -30 45 -58c0 -34 -28 -62 -61 -62c-34 0 -62 27 -62 62c0 19 11 41 27 64l63 90h53z" />
    <glyph glyph-name="quoteright" unicode="&#x2019;" horiz-adv-x="169" 
d="M140 484h-53l65 96c-26 7 -45 30 -45 58c0 34 28 62 61 62c34 0 62 -27 62 -62c0 -19 -11 -41 -27 -64z" />
    <glyph glyph-name="quotesinglbase" unicode="&#x201a;" horiz-adv-x="204" 
d="M53 -98h-53l65 96c-26 7 -45 30 -45 58c0 34 28 62 61 62c34 0 62 -27 62 -62c0 -19 -11 -41 -27 -64z" />
    <glyph glyph-name="quotedblleft" unicode="&#x201c;" horiz-adv-x="345" 
d="M241 700l-65 -96c26 -7 45 -30 45 -58c0 -34 -28 -62 -61 -62c-34 0 -62 27 -62 62c0 19 11 41 27 64l63 90h53zM401 700l-65 -96c26 -7 45 -30 45 -58c0 -34 -28 -62 -61 -62c-34 0 -62 27 -62 62c0 19 11 41 27 64l63 90h53z" />
    <glyph glyph-name="quotedblright" unicode="&#x201d;" horiz-adv-x="329" 
d="M300 484h-53l65 96c-26 7 -45 30 -45 58c0 34 28 62 61 62c34 0 62 -27 62 -62c0 -19 -11 -41 -27 -64zM140 484h-53l65 96c-26 7 -45 30 -45 58c0 34 28 62 61 62c34 0 62 -27 62 -62c0 -19 -11 -41 -27 -64z" />
    <glyph glyph-name="quotedblbase" unicode="&#x201e;" horiz-adv-x="331" 
d="M197 -98h-53l65 96c-26 7 -45 30 -45 58c0 34 28 62 61 62c34 0 62 -27 62 -62c0 -19 -11 -41 -27 -64zM37 -98h-53l65 96c-26 7 -45 30 -45 58c0 34 28 62 61 62c34 0 62 -27 62 -62c0 -19 -11 -41 -27 -64z" />
    <glyph glyph-name="dagger" unicode="&#x2020;" horiz-adv-x="546" 
d="M255 -141h-76l100 565h-203l13 76h203l36 204h76l-36 -204h204l-13 -76h-204z" />
    <glyph glyph-name="daggerdbl" unicode="&#x2021;" horiz-adv-x="569" 
d="M503 45h-203l-36 -203h-76l36 203h-204l13 76h204l54 303h-204l13 76h204l36 204h76l-36 -204h203l-13 -76h-203l-54 -303h203z" />
    <glyph glyph-name="bullet" unicode="&#x2022;" horiz-adv-x="252" 
d="M158 267c-48 0 -86 38 -86 86s38 86 86 86s86 -38 86 -86s-38 -86 -86 -86z" />
    <glyph glyph-name="ellipsis" unicode="&#x2026;" horiz-adv-x="618" 
d="M143 56c0 -33 -28 -61 -62 -61c-33 0 -61 28 -61 61c0 34 28 62 61 62c34 0 62 -28 62 -62zM288 -5c-34 0 -61 28 -61 61c0 34 27 62 61 62s61 -28 61 -62c0 -33 -27 -61 -61 -61zM556 56c0 -33 -28 -61 -62 -61c-33 0 -61 28 -61 61c0 34 28 62 61 62
c34 0 62 -28 62 -62z" />
    <glyph glyph-name="perthousand" unicode="&#x2030;" horiz-adv-x="1135" 
d="M192 0h-78l535 700h78zM423 550c0 -89 -71 -161 -162 -161s-161 72 -161 161s70 162 161 162s162 -73 162 -162zM261 453c52 0 92 43 92 97s-40 98 -92 98c-51 0 -90 -44 -90 -98s39 -97 90 -97zM573 -12c-91 0 -162 73 -162 162s71 161 162 161s161 -72 161 -161
s-70 -162 -161 -162zM573 52c52 0 91 44 91 98s-39 97 -91 97c-51 0 -91 -43 -91 -97s40 -98 91 -98zM936 -12c-91 0 -162 73 -162 162s71 161 162 161s161 -72 161 -161s-70 -162 -161 -162zM936 52c52 0 91 44 91 98s-39 97 -91 97c-51 0 -91 -43 -91 -97s40 -98 91 -98z
" />
    <glyph glyph-name="guilsinglleft" unicode="&#x2039;" horiz-adv-x="254" 
d="M192 43l-145 186l10 59l211 185h2l-17 -92l-139 -127l95 -127l-15 -84h-2z" />
    <glyph glyph-name="guilsinglright" unicode="&#x203a;" horiz-adv-x="254" 
d="M14 43l17 93l139 126l-94 128l14 83h2l145 -185l-10 -59l-211 -186h-2z" />
    <glyph glyph-name="fraction" unicode="&#x2044;" horiz-adv-x="382" 
d="M-84 0l531 700h82l-531 -700h-82z" />
    <glyph glyph-name="Euro" unicode="&#x20ac;" horiz-adv-x="732" 
d="M51 241l10 61h106c2 31 7 63 17 95h-106l11 63h116c69 149 209 252 366 252c76 0 152 -21 204 -56l-15 -88c-49 35 -120 61 -193 61c-106 0 -206 -69 -261 -169h301l-12 -63h-317c-9 -30 -14 -61 -16 -95h317l-11 -61h-302c19 -102 96 -170 203 -170c74 0 153 25 215 66
l-17 -95c-62 -36 -127 -54 -202 -54c-158 0 -275 107 -294 253h-120z" />
    <glyph glyph-name="trademark" unicode="&#x2122;" horiz-adv-x="676" 
d="M166 404l44 246h-104l9 50h260l-9 -50h-103l-44 -246h-53zM356 404l52 296h67l56 -173l118 173h71l-52 -296h-50l40 226l-143 -207l-69 207l-40 -226h-50z" />
    <glyph glyph-name="Omega" unicode="&#x2126;" horiz-adv-x="724" 
d="M12 0l16 88h206l5 29c-103 69 -154 164 -154 265c0 180 154 330 368 330c175 0 276 -108 276 -246c0 -133 -82 -256 -261 -349l-5 -29h205l-16 -88h-285l28 154c169 90 230 189 233 300c2 105 -65 172 -183 172c-151 0 -259 -101 -262 -248c-1 -85 39 -164 139 -230
l-25 -148h-285z" />
    <glyph glyph-name="partialdiff" unicode="&#x2202;" horiz-adv-x="597" 
d="M275 -12c-132 0 -221 96 -221 226c0 155 126 283 268 294c29 2 60 -2 85 -9l-111 198l76 45l151 -283c27 -51 49 -107 49 -171c0 -165 -140 -300 -297 -300zM278 66c105 0 201 97 201 220c0 85 -54 148 -135 148c-102 0 -197 -97 -197 -220c0 -85 53 -148 131 -148z" />
    <glyph glyph-name="Delta" unicode="&#x2206;" horiz-adv-x="637" 
d="M1 0l13 81l347 619h101l128 -619l-14 -81h-575zM118 84h374l-97 510z" />
    <glyph glyph-name="product" unicode="&#x220f;" horiz-adv-x="724" 
d="M622 0h-99l108 613h-382l-108 -613h-99l123 700h580z" />
    <glyph glyph-name="summation" unicode="&#x2211;" horiz-adv-x="613" 
d="M-34 -107v2l341 401l-199 402v2h564l-15 -87h-400l164 -324l-265 -309h389l-15 -87h-564z" />
    <glyph glyph-name="minus" unicode="&#x2212;" horiz-adv-x="549" 
d="M559 314h-459l13 76h459z" />
    <glyph glyph-name="radical" unicode="&#x221a;" horiz-adv-x="599" 
d="M328 0h-86l-91 429h-90l13 75h142l79 -407l323 703h88z" />
    <glyph glyph-name="infinity" unicode="&#x221e;" 
d="M337 289c-21 -50 -67 -87 -124 -87c-82 0 -142 66 -142 151c0 86 60 152 142 152c57 0 103 -37 124 -88c21 51 66 88 125 88c81 0 141 -66 141 -152c0 -85 -60 -151 -141 -151c-59 0 -104 37 -125 87zM366 353c8 -51 44 -89 92 -89s80 38 80 89c0 52 -32 90 -80 90
s-84 -38 -92 -90zM308 353c-8 52 -44 90 -92 90s-80 -38 -80 -90c0 -51 32 -89 80 -89s84 38 92 89z" />
    <glyph glyph-name="integral" unicode="&#x222b;" horiz-adv-x="307" 
d="M-66 -200l14 81c64 0 111 19 126 104l94 533c21 120 80 182 233 182l-14 -81c-64 0 -111 -20 -126 -105l-94 -532c-21 -120 -80 -182 -233 -182z" />
    <glyph glyph-name="approxequal" unicode="&#x2248;" horiz-adv-x="572" 
d="M558 334l-15 -83c-32 -30 -83 -56 -135 -56c-91 0 -138 78 -224 78c-49 0 -93 -25 -134 -62l15 83c32 29 83 55 134 55c91 0 140 -78 225 -78c50 0 93 26 134 63zM586 497l-14 -83c-32 -30 -83 -56 -135 -56c-91 0 -138 78 -224 78c-49 0 -94 -25 -134 -62l14 82
c32 30 84 56 135 56c91 0 139 -78 224 -78c50 0 94 25 134 63z" />
    <glyph glyph-name="notequal" unicode="&#x2260;" horiz-adv-x="567" 
d="M529 211h-270l-89 -134h-77l89 134h-132l13 76h169l86 130h-232l14 76h270l90 135h77l-90 -135h132l-14 -76h-170l-86 -130h233z" />
    <glyph glyph-name="lessequal" unicode="&#x2264;" horiz-adv-x="589" 
d="M78 351l15 82l536 231l-17 -88l-448 -188l382 -187l-13 -81zM17 0l14 76h494l-13 -76h-495z" />
    <glyph glyph-name="greaterequal" unicode="&#x2265;" horiz-adv-x="589" 
d="M38 120l16 88l449 187l-383 188l14 81l454 -231l-15 -82zM17 0l14 76h494l-13 -76h-495z" />
    <glyph glyph-name="lozenge" unicode="&#x25ca;" horiz-adv-x="549" 
d="M203 0l-149 351l273 349h80l149 -349l-273 -351h-80zM250 64l225 293l-115 279l-224 -291z" />
    <glyph glyph-name="apple" unicode="&#xf8ff;" horiz-adv-x="947" 
d="M846 67c-85 -85 -196 -127 -307 -127s-222 42 -306 127c-85 85 -127 196 -127 307c0 110 42 221 127 306c84 85 195 127 306 127s222 -42 307 -127c84 -85 127 -196 127 -306c0 -111 -43 -222 -127 -307zM757 350h-39c-5 -5 -11 -6 -17 -6c-11 0 -17 7 -17 15h77
c2 8 3 15 3 21c0 27 -18 49 -48 49c-33 0 -60 -25 -65 -58c-5 -34 16 -57 48 -57c26 0 47 14 58 36zM730 384h-40c4 9 13 16 24 16c10 0 16 -7 16 -16zM869 403c0 14 -11 25 -25 25c-13 0 -24 -11 -24 -25c0 -13 11 -25 24 -25c14 0 25 12 25 25zM633 316l12 68
c5 27 -8 45 -33 45c-13 0 -28 -8 -35 -18l4 15h-35l-19 -110h38l11 62c2 11 9 18 19 18c9 0 14 -8 12 -18l-11 -62h37zM272 316l13 75h30l6 35h-99l-6 -35h31l-13 -75h38zM426 368l10 58h-37l-11 -61c-2 -10 -9 -17 -19 -17c-9 0 -14 6 -12 17l11 61h-38l-10 -58
c-6 -36 12 -54 45 -54c31 0 55 17 61 54zM465 316l19 110h-38l-19 -110h38zM534 403c0 14 -11 25 -25 25c-13 0 -25 -11 -25 -25c0 -13 12 -25 25 -25c14 0 25 12 25 25zM800 316l19 110h-38l-19 -110h38z" />
    </font>
</defs>
</svg>
