<?xml version="1.0" standalone="no"?>
<!DOCTYPE svg PUBLIC "-//W3C//DTD SVG 1.1//EN" "http://www.w3.org/Graphics/SVG/1.1/DTD/svg11.dtd" >
<svg xmlns="http://www.w3.org/2000/svg" width="100%" height="100%">
<metadata>
Created by FontXChange 20110222 at Fri Oct 23 13:46:14 2015
 By James Beall
Copyright \(c\) 2015 Turner Broadcasting System, Inc.. All rights reserved.
</metadata>
<defs>
<font id="Turner-Bold" horiz-adv-x="603" >
  <font-face 
    font-family="Turner"
    font-weight="700"
    font-stretch="normal"
    units-per-em="1000"
    panose-1="2 0 0 0 0 0 0 0 0 0"
    ascent="750"
    descent="-250"
    x-height="500"
    cap-height="700"
    bbox="-70 -250 1089 961"
    underline-thickness="0"
    underline-position="0"
    stemh="153"
    stemv="183"
    unicode-range="U+000D-FB02"
  />
<missing-glyph horiz-adv-x="483" 
d="M423 0h-363v750h363v-750zM96 57l124 317l-124 317v-634zM387 57v634l-124 -317zM241 421l116 289h-231zM357 38l-116 288l-115 -288h231z" />
    <glyph glyph-name="fi" unicode="fi" horiz-adv-x="600" 
d="M550 0h-170v360h-103v-360h-170v360h-92v140h92v16c0 124 56 211 221 211c48 0 98 -8 122 -12v-137c-6 1 -48 8 -87 8c-49 0 -86 -11 -86 -66v-20h273v-500z" />
    <glyph glyph-name="fl" unicode="fl" horiz-adv-x="650" 
d="M600 0h-170v580c-24 5 -48 8 -76 8c-51 0 -77 -13 -77 -67v-21h112v-140h-112v-360h-170v360h-92v140h92v16c0 122 59 211 231 211c58 0 163 -13 262 -28v-699z" />
    <glyph glyph-name=".notdef" horiz-adv-x="483" 
d="M423 0h-363v750h363v-750zM96 57l124 317l-124 317v-634zM387 57v634l-124 -317zM241 421l116 289h-231zM357 38l-116 288l-115 -288h231z" />
    <glyph glyph-name="NULL" horiz-adv-x="0" 
 />
    <glyph glyph-name="NULL" horiz-adv-x="0" 
 />
    <glyph glyph-name="CR" unicode="&#xd;" horiz-adv-x="230" 
 />
    <glyph glyph-name="space" unicode=" " horiz-adv-x="230" 
 />
    <glyph glyph-name="exclam" unicode="!" horiz-adv-x="278" 
d="M210 250h-142l-25 450h192zM139 -6c-54 0 -97 44 -97 98s43 98 97 98s97 -44 97 -98s-43 -98 -97 -98z" />
    <glyph glyph-name="quotedbl" unicode="&#x22;" horiz-adv-x="375" 
d="M147 455h-102l-15 245h132zM330 455h-102l-15 245h132z" />
    <glyph glyph-name="numbersign" unicode="#" horiz-adv-x="712" 
d="M482 0h-119l31 180h-137l-31 -180h-119l31 180h-113v99h131l25 142h-119v99h136l32 180h119l-32 -180h137l32 180h119l-32 -180h114v-99h-131l-25 -142h119v-99h-137zM412 279l25 142h-137l-25 -142h137z" />
    <glyph glyph-name="dollar" unicode="$" horiz-adv-x="574" 
d="M322 -75h-63v92c-65 3 -139 20 -210 56v145c69 -45 141 -66 210 -69v149c-114 30 -224 77 -224 204c0 120 100 175 224 179v94h63v-96c52 -6 111 -21 165 -42v-141c-65 31 -122 48 -165 54v-123c108 -30 222 -78 222 -202c0 -119 -94 -193 -222 -206v-94zM322 281v-128
c46 9 66 33 66 66c0 32 -29 49 -66 62zM259 444v109c-43 -3 -69 -19 -69 -47c0 -30 23 -47 69 -62z" />
    <glyph glyph-name="percent" unicode="%" horiz-adv-x="769" 
d="M230 0h-117l426 700h117zM191 388c-91 0 -161 73 -161 162s70 162 161 162s162 -73 162 -162s-71 -162 -162 -162zM192 494c30 0 50 25 50 56s-20 56 -50 56s-50 -25 -50 -56s20 -56 50 -56zM577 -12c-91 0 -161 73 -161 162s70 162 161 162s162 -73 162 -162
s-71 -162 -162 -162zM578 94c30 0 50 25 50 56s-20 56 -50 56s-50 -25 -50 -56s20 -56 50 -56z" />
    <glyph glyph-name="ampersand" unicode="&#x26;" horiz-adv-x="701" 
d="M717 0h-183l-66 70c-52 -50 -120 -82 -197 -82c-115 0 -227 73 -227 210c0 96 58 155 120 196c-34 43 -60 87 -60 145c0 108 88 173 196 173c116 0 188 -75 188 -168c0 -74 -46 -132 -122 -174l89 -92c15 35 27 69 40 111h141c-21 -74 -53 -149 -86 -212zM380 163
l-131 139c-35 -24 -66 -58 -66 -105c0 -60 49 -85 92 -85c36 0 77 16 105 51zM283 459c44 25 67 54 67 82c0 27 -20 48 -52 48c-31 0 -55 -20 -55 -50c0 -27 19 -53 40 -80z" />
    <glyph glyph-name="quotesingle" unicode="'" horiz-adv-x="192" 
d="M147 455h-102l-15 245h132z" />
    <glyph glyph-name="parenleft" unicode="(" horiz-adv-x="377" 
d="M357 -48v-155c-202 104 -312 291 -312 509s110 405 312 509v-155c-96 -76 -152 -196 -152 -354s56 -278 152 -354z" />
    <glyph glyph-name="parenright" unicode=")" horiz-adv-x="377" 
d="M20 -203v155c96 76 152 196 152 354s-56 278 -152 354v155c202 -104 312 -291 312 -509s-110 -405 -312 -509z" />
    <glyph glyph-name="asterisk" unicode="*" horiz-adv-x="434" 
d="M377 410l-100 -73l-60 127l-60 -127l-100 73l99 97l-136 17l38 118l122 -65l-25 135h124l-26 -136l123 66l38 -118l-137 -17z" />
    <glyph glyph-name="plus" unicode="+" horiz-adv-x="694" 
d="M410 40h-126v249h-249v126h249v249h126v-249h249v-126h-249v-249z" />
    <glyph glyph-name="comma" unicode="," horiz-adv-x="264" 
d="M132 -129h-76l64 124c-49 5 -85 47 -85 97c0 54 43 98 97 98s97 -43 97 -96c0 -27 -11 -59 -30 -95z" />
    <glyph glyph-name="hyphen" unicode="-" horiz-adv-x="374" 
d="M339 289h-304v126h304v-126z" />
    <glyph glyph-name="period" unicode="." horiz-adv-x="264" 
d="M132 -6c-54 0 -97 44 -97 98s43 98 97 98s97 -44 97 -98s-43 -98 -97 -98z" />
    <glyph glyph-name="slash" unicode="/" horiz-adv-x="394" 
d="M146 -40h-151l252 780h151z" />
    <glyph glyph-name="zero" unicode="0" horiz-adv-x="678" 
d="M339 132c80 0 120 92 120 218s-40 218 -120 218s-120 -92 -120 -218s40 -218 120 -218zM339 -12c-188 0 -294 160 -294 362s106 362 294 362s294 -160 294 -362s-106 -362 -294 -362z" />
    <glyph glyph-name="one" unicode="1" horiz-adv-x="392" 
d="M327 0h-175v543h-130v157h305v-700z" />
    <glyph glyph-name="two" unicode="2" horiz-adv-x="568" 
d="M534 0h-479v121l238 247c38 39 63 80 63 121c0 47 -27 77 -73 77c-49 0 -79 -37 -86 -107h-162c10 156 99 253 250 253c136 0 244 -82 244 -221c0 -91 -52 -168 -123 -231l-126 -112h254v-148z" />
    <glyph glyph-name="three" unicode="3" horiz-adv-x="589" 
d="M277 291h-49v132h39c63 0 96 33 96 77c0 45 -34 66 -73 66c-51 0 -81 -38 -84 -87h-166c5 139 105 233 256 233c140 0 239 -76 239 -186c0 -61 -28 -121 -103 -157c89 -38 122 -100 122 -170c0 -122 -112 -211 -255 -211c-151 0 -267 99 -269 242h167
c3 -58 43 -96 98 -96c50 0 87 31 87 79c0 46 -36 78 -105 78z" />
    <glyph glyph-name="four" unicode="4" horiz-adv-x="625" 
d="M513 0h-165v140h-318v119l295 440h188v-413h90v-146h-90v-140zM348 286v217l-133 -217h133z" />
    <glyph glyph-name="five" unicode="5" horiz-adv-x="562" 
d="M23 43l20 143c61 -35 115 -52 175 -52c88 0 131 43 131 104c0 67 -53 104 -154 104c-47 0 -99 -8 -143 -22l49 380h408v-148h-272l-12 -92c13 1 19 1 31 1c154 0 266 -77 266 -221c0 -147 -113 -252 -282 -252c-82 0 -155 23 -217 55z" />
    <glyph glyph-name="six" unicode="6" horiz-adv-x="610" 
d="M312 462h7c136 0 253 -81 253 -225c0 -141 -110 -249 -262 -249c-157 0 -270 108 -270 254c0 82 34 157 89 235l154 223h205l-158 -214zM306 129c59 0 98 42 98 102c0 59 -39 99 -97 99c-56 0 -99 -36 -99 -101c0 -64 42 -100 98 -100z" />
    <glyph glyph-name="seven" unicode="7" horiz-adv-x="539" 
d="M279 0h-189l234 552h-299v148h489v-105z" />
    <glyph glyph-name="eight" unicode="8" horiz-adv-x="606" 
d="M462 370c72 -39 106 -99 106 -165c0 -120 -108 -217 -265 -217s-265 97 -265 217c0 66 34 126 106 165c-55 36 -85 92 -85 151c0 115 110 191 244 191s244 -76 244 -191c0 -59 -31 -115 -85 -151zM399 209c0 51 -42 90 -96 90s-96 -39 -96 -90s42 -90 96 -90s96 39 96 90
zM303 430c44 0 77 33 77 77s-33 77 -77 77s-77 -33 -77 -77s33 -77 77 -77z" />
    <glyph glyph-name="nine" unicode="9" horiz-adv-x="610" 
d="M327 0h-205l153 206l23 32h-7c-136 0 -253 81 -253 225c0 141 110 249 262 249c157 0 270 -108 270 -254c0 -82 -34 -157 -89 -235zM303 370c56 0 99 36 99 101c0 64 -42 100 -98 100c-59 0 -98 -42 -98 -102c0 -59 39 -99 97 -99z" />
    <glyph glyph-name="colon" unicode=":" horiz-adv-x="264" 
d="M132 -6c-54 0 -97 44 -97 98s43 98 97 98s97 -44 97 -98s-43 -98 -97 -98zM132 289c-54 0 -97 44 -97 98s43 98 97 98s97 -44 97 -98s-43 -98 -97 -98z" />
    <glyph glyph-name="semicolon" unicode=";" horiz-adv-x="263" 
d="M131 289c-54 0 -97 44 -97 98s43 98 97 98s97 -44 97 -98s-43 -98 -97 -98zM131 -129h-76l64 124c-49 5 -85 47 -85 97c0 54 43 98 97 98s97 -43 97 -96c0 -27 -11 -59 -30 -95z" />
    <glyph glyph-name="less" unicode="&#x3c;" horiz-adv-x="590" 
d="M560 2l-530 288v125l530 288v-147l-393 -204l393 -203v-147z" />
    <glyph glyph-name="equal" unicode="=" horiz-adv-x="594" 
d="M554 179h-514v126h514v-126zM554 399h-514v126h514v-126z" />
    <glyph glyph-name="greater" unicode="&#x3e;" horiz-adv-x="590" 
d="M560 290l-530 -288v147l393 203l-393 204v147l530 -288v-125z" />
    <glyph glyph-name="question" unicode="?" horiz-adv-x="493" 
d="M231 -6c-54 0 -97 44 -97 98s43 98 97 98s97 -44 97 -98s-43 -98 -97 -98zM299 251h-137v40c0 85 26 127 94 171c30 20 53 38 53 68s-25 48 -61 48c-52 0 -79 -34 -83 -90h-147c5 146 106 228 235 228c99 0 215 -48 215 -176c0 -86 -59 -133 -108 -166
c-44 -30 -61 -58 -61 -103v-20z" />
    <glyph glyph-name="at" unicode="@" horiz-adv-x="836" 
d="M657 30v-88c-67 -46 -162 -68 -245 -68c-227 0 -367 164 -367 363c0 220 172 390 402 390c192 0 349 -119 349 -305c0 -163 -120 -269 -206 -269c-50 0 -89 35 -96 77c-36 -59 -83 -87 -134 -87c-82 0 -138 67 -138 176c0 147 94 249 192 249c44 0 85 -16 109 -55l16 34
h85l-44 -251c-6 -37 -2 -61 22 -61c46 0 111 83 111 188c0 141 -118 226 -266 226c-181 0 -319 -128 -319 -308c0 -155 102 -289 282 -289c89 0 184 33 247 78zM393 149c50 0 95 57 95 145c0 45 -19 75 -56 75c-50 0 -95 -57 -95 -145c0 -45 19 -75 56 -75z" />
    <glyph glyph-name="A" unicode="A" horiz-adv-x="720" 
d="M720 0h-192l-51 155h-233l-53 -155h-191l262 700h196zM435 285l-75 227l-76 -227h151z" />
    <glyph glyph-name="B" unicode="B" horiz-adv-x="675" 
d="M382 0h-317v700h320c132 0 249 -44 249 -171c0 -61 -31 -123 -110 -161c87 -33 126 -95 126 -166c0 -134 -112 -202 -268 -202zM249 142h121c57 0 95 21 95 74s-38 74 -95 74h-121v-148zM249 422h112c54 0 89 18 89 67c0 50 -35 69 -89 69h-112v-136z" />
    <glyph glyph-name="C" unicode="C" horiz-adv-x="632" 
d="M597 192v-166c-56 -26 -123 -38 -189 -38c-210 0 -368 159 -368 362s158 362 368 362c66 0 133 -12 189 -38v-166c-49 30 -116 50 -179 50c-118 0 -192 -89 -192 -208s74 -208 192 -208c63 0 130 20 179 50z" />
    <glyph glyph-name="D" unicode="D" horiz-adv-x="741" 
d="M299 0h-234v700h234c75 0 146 -13 206 -40c117 -52 196 -156 196 -310s-79 -258 -196 -310c-60 -27 -131 -40 -206 -40zM248 151h51c38 0 73 6 103 18c70 28 114 89 114 181s-44 153 -114 181c-30 12 -65 18 -103 18h-51v-398z" />
    <glyph glyph-name="E" unicode="E" horiz-adv-x="631" 
d="M606 0h-541v700h541v-152h-358v-115h319v-153h-319v-128h358v-152z" />
    <glyph glyph-name="F" unicode="F" horiz-adv-x="616" 
d="M566 265h-318v-265h-183v700h536v-152h-353v-130h318v-153z" />
    <glyph glyph-name="G" unicode="G" horiz-adv-x="782" 
d="M563 264h-201v142h381c2 -11 4 -40 4 -66c0 -46 -8 -105 -29 -153c-52 -117 -155 -199 -321 -199c-210 0 -357 159 -357 362s162 362 387 362c73 0 157 -13 221 -44v-165c-64 37 -139 55 -210 55c-139 0 -213 -89 -213 -208s66 -210 179 -210c75 0 145 43 159 124z" />
    <glyph glyph-name="H" unicode="H" horiz-adv-x="764" 
d="M699 0h-183v281h-268v-281h-183v700h183v-266h268v266h183v-700z" />
    <glyph glyph-name="I" unicode="I" horiz-adv-x="313" 
d="M248 0h-183v700h183v-700z" />
    <glyph glyph-name="J" unicode="J" horiz-adv-x="551" 
d="M308 279v421h183v-400c0 -38 -3 -85 -11 -119c-25 -113 -101 -193 -252 -193c-60 0 -145 15 -203 48v166c63 -46 125 -59 164 -59c61 0 93 26 108 65c8 21 11 45 11 71z" />
    <glyph glyph-name="K" unicode="K" horiz-adv-x="670" 
d="M689 0h-227l-214 331v-331h-183v700h183v-319l194 319h224l-231 -340z" />
    <glyph glyph-name="L" unicode="L" horiz-adv-x="634" 
d="M609 0h-544v700h183v-548h361v-152z" />
    <glyph glyph-name="M" unicode="M" horiz-adv-x="872" 
d="M807 0h-178v411h-1l-191 -342h-3l-190 342h-1v-411h-178v700h186l185 -337l185 337h186v-700z" />
    <glyph glyph-name="N" unicode="N" horiz-adv-x="756" 
d="M691 0h-195l-255 413v-413h-176v700h196l255 -412v412h175v-700z" />
    <glyph glyph-name="O" unicode="O" horiz-adv-x="815" 
d="M775 350c0 -203 -162 -362 -367 -362c-206 0 -368 159 -368 362s162 362 368 362c205 0 367 -159 367 -362zM408 142c104 0 182 87 182 208s-78 208 -182 208c-105 0 -182 -87 -182 -208s77 -208 182 -208z" />
    <glyph glyph-name="P" unicode="P" horiz-adv-x="667" 
d="M248 0h-183v700h293c155 0 279 -69 279 -235c0 -167 -124 -236 -279 -236h-110v-229zM248 380h110c55 0 94 22 94 85c0 62 -39 85 -94 85h-110v-170z" />
    <glyph glyph-name="Q" unicode="Q" horiz-adv-x="815" 
d="M714 -20l-121 -76l-67 102c-37 -11 -77 -18 -118 -18c-206 0 -368 159 -368 362s162 362 368 362c205 0 367 -159 367 -362c0 -111 -48 -208 -125 -274zM435 144l-71 109l121 76l70 -107c22 35 35 78 35 128c0 121 -78 208 -182 208c-105 0 -182 -87 -182 -208
s77 -208 182 -208c9 0 18 0 27 2z" />
    <glyph glyph-name="R" unicode="R" horiz-adv-x="702" 
d="M677 0h-208l-119 253h-101v-253h-184v700h300c50 0 96 -7 136 -22c83 -31 137 -96 137 -197c0 -52 -16 -95 -44 -129c-19 -23 -42 -42 -70 -57zM249 399h113c21 0 39 3 54 10c24 11 38 32 38 65s-14 54 -38 66c-15 7 -33 11 -54 11h-113v-152z" />
    <glyph glyph-name="S" unicode="S" horiz-adv-x="618" 
d="M45 50v166c86 -58 158 -80 246 -80c73 0 115 25 115 74s-48 66 -108 81c-142 31 -254 78 -254 223s123 198 251 198c73 0 158 -13 245 -49v-165c-99 50 -189 66 -236 66c-48 0 -79 -16 -79 -50c0 -40 35 -56 113 -74c123 -29 250 -77 250 -222
c0 -147 -128 -230 -284 -230c-84 0 -172 17 -259 62z" />
    <glyph glyph-name="T" unicode="T" horiz-adv-x="681" 
d="M432 0h-183v548h-224v152h631v-152h-224v-548z" />
    <glyph glyph-name="U" unicode="U" horiz-adv-x="745" 
d="M501 311v389h184v-392c0 -70 -12 -128 -36 -176c-47 -94 -141 -144 -277 -144c-134 0 -226 48 -274 140c-25 48 -38 109 -38 180v392h183v-389c0 -26 2 -50 7 -71c15 -62 53 -100 122 -100c71 0 108 38 122 99c5 21 7 46 7 72z" />
    <glyph glyph-name="V" unicode="V" horiz-adv-x="700" 
d="M438 0h-176l-262 700h192l158 -483l158 483h192z" />
    <glyph glyph-name="W" unicode="W" horiz-adv-x="975" 
d="M793 0h-197l-106 471h-4l-106 -471h-197l-178 700h194l93 -457h4l104 457h176l103 -457h5l93 457h193z" />
    <glyph glyph-name="X" unicode="X" horiz-adv-x="714" 
d="M719 0h-214l-149 252l-148 -252h-213l238 364l-217 336h214l125 -221l128 221h214l-217 -336z" />
    <glyph glyph-name="Y" unicode="Y" horiz-adv-x="690" 
d="M436 0h-182v286l-269 414h208l151 -263h2l151 263h208l-269 -414v-286z" />
    <glyph glyph-name="Z" unicode="Z" horiz-adv-x="672" 
d="M647 0h-631v2l327 546h-310v152h613v-2l-326 -546h327v-152z" />
    <glyph glyph-name="bracketleft" unicode="[" horiz-adv-x="356" 
d="M336 -201h-286v1016h286v-109h-128v-798h128v-109z" />
    <glyph glyph-name="backslash" unicode="\" horiz-adv-x="394" 
d="M398 -40h-151l-252 780h151z" />
    <glyph glyph-name="bracketright" unicode="]" horiz-adv-x="356" 
d="M306 -201h-286v109h128v798h-128v109h286v-1016z" />
    <glyph glyph-name="asciicircum" unicode="^" horiz-adv-x="528" 
d="M518 345h-152l-102 237l-102 -237h-152l176 367h156z" />
    <glyph glyph-name="underscore" unicode="_" horiz-adv-x="514" 
d="M514 -147h-514v126h514v-126z" />
    <glyph glyph-name="grave" unicode="`" horiz-adv-x="500" 
d="M342 564h-113l-158 166v7h177z" />
    <glyph glyph-name="a" unicode="a" 
d="M553 0h-160v53c-32 -40 -79 -65 -141 -65c-134 0 -217 113 -217 262s83 262 217 262c56 0 99 -21 131 -54v42h170v-500zM296 121c53 0 93 51 93 129s-40 129 -93 129s-93 -51 -93 -129s40 -129 93 -129z" />
    <glyph glyph-name="b" unicode="b" 
d="M210 0h-160v700h170v-242c32 33 75 54 131 54c134 0 217 -113 217 -262s-83 -262 -217 -262c-63 0 -109 25 -141 65v-53zM307 121c53 0 93 51 93 129s-40 129 -93 129s-93 -51 -93 -129s40 -129 93 -129z" />
    <glyph glyph-name="c" unicode="c" horiz-adv-x="506" 
d="M475 168v-136c-62 -32 -123 -44 -173 -44c-157 0 -267 113 -267 262s110 262 267 262c50 0 111 -12 173 -44v-136c-55 33 -103 47 -144 47c-81 0 -128 -51 -128 -129s47 -129 128 -129c41 0 89 14 144 47z" />
    <glyph glyph-name="d" unicode="d" 
d="M553 0h-160v53c-32 -40 -79 -65 -141 -65c-134 0 -217 113 -217 262s83 262 217 262c56 0 99 -21 131 -54v242h170v-700zM296 121c53 0 93 51 93 129s-40 129 -93 129s-93 -51 -93 -129s40 -129 93 -129z" />
    <glyph glyph-name="e" unicode="e" horiz-adv-x="575" 
d="M540 213h-350c11 -65 54 -96 100 -96c42 0 71 19 88 55h151c-34 -105 -113 -184 -241 -184c-141 0 -253 113 -253 262s112 262 258 262c148 0 250 -115 250 -256c0 -20 -2 -38 -3 -43zM194 314h181c-10 50 -48 73 -91 73s-78 -23 -90 -73z" />
    <glyph glyph-name="f" unicode="f" horiz-adv-x="415" 
d="M277 0h-170v360h-92v140h92v16c0 122 56 211 201 211c35 0 73 -5 92 -9v-137c-6 1 -34 5 -51 5c-40 0 -72 -11 -72 -66v-20h122v-140h-122v-360z" />
    <glyph glyph-name="g" unicode="g" 
d="M393 16v49c-32 -40 -79 -65 -141 -65c-134 0 -217 113 -217 256s83 256 215 256c51 0 91 -17 123 -45v33h180v-476c0 -174 -101 -267 -247 -267c-115 0 -230 58 -251 208h153c10 -51 51 -72 93 -72c60 0 92 43 92 123zM296 133c53 0 93 50 93 123s-40 123 -93 123
s-93 -50 -93 -123s40 -123 93 -123z" />
    <glyph glyph-name="h" unicode="h" horiz-adv-x="593" 
d="M548 0h-170v280c0 24 -1 39 -5 51c-8 28 -28 48 -65 48c-58 0 -88 -46 -88 -119v-260h-170v700h170v-257c35 41 89 69 152 69c83 0 137 -40 161 -111c10 -29 15 -73 15 -121v-280z" />
    <glyph glyph-name="i" unicode="i" horiz-adv-x="270" 
d="M220 0h-170v500h170v-500zM232 648c0 -52 -43 -93 -98 -93s-97 41 -97 93s42 94 97 94s98 -42 98 -94z" />
    <glyph glyph-name="j" unicode="j" horiz-adv-x="288" 
d="M-55 -221v136c6 -1 34 -5 51 -5c40 0 72 11 72 66v524h170v-519c0 -122 -56 -211 -201 -211c-35 0 -73 5 -92 9zM251 648c0 -52 -43 -93 -98 -93s-97 41 -97 93s42 94 97 94s98 -42 98 -94z" />
    <glyph glyph-name="k" unicode="k" horiz-adv-x="533" 
d="M554 0h-193l-141 231v-231h-170v700h170v-415l126 215h185l-156 -241z" />
    <glyph glyph-name="l" unicode="l" horiz-adv-x="270" 
d="M220 0h-170v700h170v-700z" />
    <glyph glyph-name="m" unicode="m" horiz-adv-x="879" 
d="M834 0h-170v281c0 23 -1 39 -4 51c-8 29 -27 47 -57 47c-49 0 -76 -42 -76 -109v-270h-170v281c0 23 -1 39 -4 51c-8 29 -27 47 -57 47c-51 0 -76 -46 -76 -119v-260h-170v500h160v-68c37 52 78 80 148 80c67 0 119 -34 145 -87c35 53 90 87 161 87
c77 0 135 -45 156 -111c9 -29 14 -73 14 -120v-281z" />
    <glyph glyph-name="n" unicode="n" horiz-adv-x="593" 
d="M548 0h-170v280c0 24 -1 39 -5 51c-8 28 -28 48 -65 48c-58 0 -88 -46 -88 -119v-260h-170v500h160v-68c39 48 92 80 162 80c83 0 137 -40 161 -111c10 -29 15 -73 15 -121v-280z" />
    <glyph glyph-name="o" unicode="o" horiz-adv-x="588" 
d="M294 -12c-147 0 -259 113 -259 262s112 262 259 262s259 -113 259 -262s-112 -262 -259 -262zM294 121c53 0 93 52 93 129s-40 129 -93 129s-93 -52 -93 -129s40 -129 93 -129z" />
    <glyph glyph-name="p" unicode="p" 
d="M220 -200h-170v700h160v-54c32 41 78 66 141 66c134 0 217 -113 217 -262s-83 -262 -217 -262c-56 0 -99 21 -131 54v-242zM307 121c53 0 93 51 93 129s-40 129 -93 129s-93 -51 -93 -129s40 -129 93 -129z" />
    <glyph glyph-name="q" unicode="q" 
d="M553 -200h-170v241c-32 -33 -75 -53 -131 -53c-134 0 -217 113 -217 262s83 262 217 262c56 0 99 -21 131 -54v42h170v-700zM296 121c53 0 93 51 93 129s-40 129 -93 129s-93 -51 -93 -129s40 -129 93 -129z" />
    <glyph glyph-name="r" unicode="r" horiz-adv-x="429" 
d="M220 0h-170v500h160v-94c29 70 83 103 160 103c12 0 34 -1 44 -2v-143c-7 1 -17 3 -34 3c-78 0 -123 -35 -145 -93c-10 -26 -15 -69 -15 -116v-158z" />
    <glyph glyph-name="s" unicode="s" horiz-adv-x="487" 
d="M38 37v134c70 -41 128 -57 188 -57c55 0 84 17 84 41c0 31 -39 36 -92 44c-92 14 -181 53 -181 159c0 118 106 154 201 154c67 0 131 -12 192 -38v-131c-69 31 -144 43 -183 43s-62 -9 -62 -30c0 -24 27 -33 83 -44c92 -18 191 -46 191 -157s-97 -167 -224 -167
c-82 0 -141 18 -197 49z" />
    <glyph glyph-name="t" unicode="t" horiz-adv-x="432" 
d="M301 0h-170v360h-116v140h116v164h170v-164h116v-140h-116v-360z" />
    <glyph glyph-name="u" unicode="u" horiz-adv-x="560" 
d="M345 199v301h170v-284c0 -42 -8 -80 -24 -112c-36 -73 -109 -116 -211 -116c-101 0 -174 40 -210 110c-16 32 -25 70 -25 113v289h170v-301c0 -14 2 -27 6 -38c10 -25 30 -40 59 -40c28 0 48 14 58 38c5 11 7 25 7 40z" />
    <glyph glyph-name="v" unicode="v" horiz-adv-x="550" 
d="M364 0h-178l-180 500h170l99 -347l99 347h170z" />
    <glyph glyph-name="w" unicode="w" horiz-adv-x="757" 
d="M632 0h-182l-71 331l-72 -331h-182l-115 500h160l57 -331h1l70 331h161l70 -331h1l57 331h160z" />
    <glyph glyph-name="x" unicode="x" horiz-adv-x="551" 
d="M561 0h-194l-92 156l-91 -156h-194l176 254l-164 246h197l76 -146l77 146h197l-164 -246z" />
    <glyph glyph-name="y" unicode="y" horiz-adv-x="548" 
d="M291 -211h-153l76 218l-209 493h170l111 -301l87 301h170l-175 -490z" />
    <glyph glyph-name="z" unicode="z" horiz-adv-x="526" 
d="M497 0h-484v2l232 358h-211v140h467v-2l-232 -358h228v-140z" />
    <glyph glyph-name="braceleft" unicode="{" horiz-adv-x="448" 
d="M428 -201h-111c-120 0 -190 56 -190 194v177c0 61 -16 83 -71 83h-36v108h36c55 0 71 22 71 83v177c0 138 70 194 190 194h111v-109h-72c-50 0 -71 -25 -71 -73v-179c0 -70 -21 -126 -112 -146v-2c91 -20 112 -76 112 -146v-179c0 -48 21 -73 71 -73h72v-109z" />
    <glyph glyph-name="bar" unicode="|" horiz-adv-x="250" 
d="M195 -200h-140v1030h140v-1030z" />
    <glyph glyph-name="braceright" unicode="}" horiz-adv-x="448" 
d="M131 -201h-111v109h72c50 0 71 25 71 73v179c0 70 21 126 112 146v2c-91 20 -112 76 -112 146v179c0 48 -21 73 -71 73h-72v109h111c120 0 190 -56 190 -194v-177c0 -61 16 -83 71 -83h36v-108h-36c-55 0 -71 -22 -71 -83v-177c0 -138 -70 -194 -190 -194z" />
    <glyph glyph-name="asciitilde" unicode="~" horiz-adv-x="607" 
d="M486 462l96 -42c-26 -112 -89 -167 -167 -167c-99 0 -147 88 -216 88c-34 0 -62 -22 -78 -86l-96 42c26 112 89 167 167 167c99 0 147 -88 216 -88c34 0 62 22 78 86z" />
    <glyph glyph-name="DEL" horiz-adv-x="0" 
 />
    <glyph glyph-name="uni00A0" unicode="&#xa0;" horiz-adv-x="230" 
 />
    <glyph glyph-name="exclamdown" unicode="&#xa1;" horiz-adv-x="278" 
d="M68 256h142l25 -450h-192zM139 512c54 0 97 -44 97 -98s-43 -98 -97 -98s-97 44 -97 98s43 98 97 98z" />
    <glyph glyph-name="cent" unicode="&#xa2;" horiz-adv-x="506" 
d="M349 -92h-63v91c-149 7 -251 117 -251 261s102 254 251 261v91h63v-94c39 -5 82 -18 126 -40v-132c-47 28 -89 43 -126 47v-267c37 5 79 19 126 48v-132c-44 -23 -87 -35 -126 -41v-93zM286 129v262c-62 -14 -97 -62 -97 -131s35 -118 97 -131z" />
    <glyph glyph-name="sterling" unicode="&#xa3;" horiz-adv-x="590" 
d="M560 0h-492v140h5c67 0 92 45 92 96c0 23 -5 41 -13 62h-132v121h84c-9 27 -15 54 -15 88c0 150 116 205 240 205c62 0 142 -14 218 -47v-146c-84 42 -148 54 -196 54c-69 0 -108 -24 -108 -80c0 -24 7 -51 18 -74h201v-121h-148c2 -12 4 -25 4 -39
c0 -47 -25 -90 -68 -119h310v-140z" />
    <glyph glyph-name="yen" unicode="&#xa5;" horiz-adv-x="720" 
d="M658 135h-212v-135h-172v135h-212v90h212v69h-212v95h157l-204 311h203l141 -243h2l141 243h203l-205 -311h158v-95h-212v-69h212v-90z" />
    <glyph glyph-name="brokenbar" unicode="&#xa6;" horiz-adv-x="250" 
d="M195 380h-140v450h140v-450zM195 -200h-140v440h140v-440z" />
    <glyph glyph-name="section" unicode="&#xa7;" horiz-adv-x="564" 
d="M92 -57v117c67 -30 134 -43 183 -43c53 0 91 13 91 47c0 37 -43 52 -103 65c-100 23 -223 55 -223 163c0 63 40 107 102 133c-47 29 -81 72 -81 134c0 111 110 153 217 153c60 0 131 -12 195 -38v-117c-68 30 -135 43 -183 43c-54 0 -91 -13 -91 -47
c0 -37 42 -52 102 -65c100 -23 223 -55 223 -163c0 -64 -41 -108 -103 -133c47 -29 82 -72 82 -134c0 -111 -110 -153 -217 -153c-60 0 -131 12 -194 38zM283 377c-66 4 -107 -30 -107 -66c0 -37 37 -56 104 -71c67 -5 108 29 108 66c0 36 -38 55 -105 71z" />
    <glyph glyph-name="dieresis" unicode="&#xa8;" horiz-adv-x="501" 
d="M224 643c0 -42 -34 -75 -78 -75s-78 33 -78 75s34 75 78 75s78 -33 78 -75zM433 643c0 -42 -34 -75 -78 -75s-78 33 -78 75s34 75 78 75s78 -33 78 -75z" />
    <glyph glyph-name="copyright" unicode="&#xa9;" horiz-adv-x="812" 
d="M406 -12c-201 0 -361 161 -361 362s160 362 361 362s361 -161 361 -362s-160 -362 -361 -362zM406 48c165 0 297 133 297 302s-132 302 -297 302s-297 -133 -297 -302s132 -302 297 -302zM565 284v-110c-50 -25 -99 -35 -139 -35c-127 0 -215 91 -215 211s88 211 215 211
c40 0 89 -10 139 -35v-110c-44 27 -83 38 -117 38c-67 0 -105 -41 -105 -104s38 -104 105 -104c34 0 73 11 117 38z" />
    <glyph glyph-name="ordfeminine" unicode="&#xaa;" horiz-adv-x="400" 
d="M162 372c-86 0 -137 71 -137 164s51 164 137 164c39 0 70 -12 91 -37v30h112v-314h-112v30c-21 -25 -52 -37 -91 -37zM195 466c30 0 53 27 53 70s-23 70 -53 70s-53 -27 -53 -70s23 -70 53 -70z" />
    <glyph glyph-name="guillemotleft" unicode="&#xab;" horiz-adv-x="461" 
d="M231 19h-2l-199 196v87l199 196h2v-128l-104 -112l104 -111v-128zM431 19h-2l-199 196v87l199 196h2v-128l-104 -112l104 -111v-128z" />
    <glyph glyph-name="logicalnot" unicode="&#xac;" horiz-adv-x="674" 
d="M624 140h-126v249h-478v126h604v-375z" />
    <glyph glyph-name="registered" unicode="&#xae;" horiz-adv-x="590" 
d="M558 450c0 -148 -115 -262 -263 -262s-263 114 -263 262s115 262 263 262s263 -114 263 -262zM426 309h-80l-48 103h-36v-103h-70v280h110c20 0 38 -3 54 -9c33 -12 55 -38 55 -79c0 -20 -7 -38 -18 -51c-7 -9 -17 -17 -28 -23zM262 469h36c21 0 43 8 43 33
c0 22 -18 31 -43 31h-36v-64zM295 238c117 0 208 92 208 212s-91 212 -208 212s-208 -92 -208 -212s91 -212 208 -212z" />
    <glyph glyph-name="macron" unicode="&#xaf;" horiz-adv-x="500" 
d="M435 579h-370v103h370v-103z" />
    <glyph glyph-name="degree" unicode="&#xb0;" horiz-adv-x="358" 
d="M179 403c-83 0 -149 67 -149 154c0 88 66 155 149 155s149 -67 149 -155c0 -87 -66 -154 -149 -154zM179 496c33 0 57 26 57 61c0 36 -24 62 -57 62s-57 -26 -57 -62c0 -35 24 -61 57 -61z" />
    <glyph glyph-name="plusminus" unicode="&#xb1;" horiz-adv-x="684" 
d="M644 374h-239v-194h-126v194h-239v126h239v194h126v-194h239v-126zM644 0h-604v126h604v-126z" />
    <glyph glyph-name="twosuperior" unicode="&#xb2;" horiz-adv-x="360" 
d="M323 340h-273v67l133 126c20 18 32 37 32 56c0 21 -12 34 -35 34c-24 0 -38 -19 -42 -54h-99c6 84 56 137 142 137c78 0 140 -43 140 -116c0 -46 -30 -87 -70 -119l-57 -47h129v-84z" />
    <glyph glyph-name="threesuperior" unicode="&#xb3;" horiz-adv-x="357" 
d="M176 487h-27v72h21c32 0 48 17 48 36s-16 30 -35 30c-25 0 -41 -19 -43 -44h-99c2 76 60 125 145 125c80 0 137 -40 137 -98c0 -30 -14 -60 -49 -79c42 -20 59 -51 59 -85c0 -64 -63 -110 -145 -110c-86 0 -152 51 -153 129h100c2 -29 24 -48 51 -48c24 0 43 15 43 36
c0 20 -18 36 -53 36z" />
    <glyph glyph-name="acute" unicode="&#xb4;" horiz-adv-x="500" 
d="M271 564h-113l94 173h177v-7z" />
    <glyph glyph-name="mu" unicode="&#xb5;" horiz-adv-x="570" 
d="M225 -200h-170v700h170v-301c0 -14 2 -27 6 -38c10 -25 30 -40 59 -40c28 0 48 14 58 38c5 11 7 25 7 40v301h170v-284c0 -42 -8 -80 -24 -112c-36 -73 -113 -116 -195 -116c-31 0 -58 4 -81 12v-200z" />
    <glyph glyph-name="paragraph" unicode="&#xb6;" horiz-adv-x="605" 
d="M555 -100h-105v710h-82v-710h-115v437h-10c-114 0 -208 52 -208 182s94 181 208 181h312v-800z" />
    <glyph glyph-name="periodcentered" unicode="&#xb7;" horiz-adv-x="264" 
d="M132 254c-54 0 -97 44 -97 98s43 98 97 98s97 -44 97 -98s-43 -98 -97 -98z" />
    <glyph glyph-name="cedilla" unicode="&#xb8;" horiz-adv-x="500" 
d="M165 -231v60c17 -11 38 -19 59 -19c34 0 49 23 49 46c0 26 -18 45 -55 45c-9 0 -24 -1 -34 -5l-5 4l14 100h56l-5 -49c57 -4 108 -38 108 -98c0 -58 -49 -103 -113 -103c-25 0 -53 7 -74 19z" />
    <glyph glyph-name="onesuperior" unicode="&#xb9;" horiz-adv-x="243" 
d="M198 340h-106v271h-71v89h177v-360z" />
    <glyph glyph-name="ordmasculine" unicode="&#xba;" horiz-adv-x="390" 
d="M365 536c0 -93 -74 -164 -170 -164s-170 71 -170 164s74 164 170 164s170 -71 170 -164zM195 466c30 0 53 28 53 70s-23 70 -53 70s-53 -28 -53 -70s23 -70 53 -70z" />
    <glyph glyph-name="guillemotright" unicode="&#xbb;" horiz-adv-x="461" 
d="M431 215l-199 -196h-2v128l104 111l-104 112v128h2l199 -196v-87zM231 215l-199 -196h-2v128l104 111l-104 112v128h2l199 -196v-87z" />
    <glyph glyph-name="onequarter" unicode="&#xbc;" horiz-adv-x="688" 
d="M609 0h-101v70h-175v66l164 223h112v-206h49v-83h-49v-70zM508 153v95l-66 -95h66zM198 340h-106v271h-71v89h177v-360zM176 0h-93l406 700h93z" />
    <glyph glyph-name="onehalf" unicode="&#xbd;" horiz-adv-x="710" 
d="M157 0h-93l406 700h93zM198 340h-106v271h-71v89h177v-360zM667 0h-273v67l133 126c20 18 32 37 32 56c0 21 -12 34 -35 34c-24 0 -38 -19 -42 -54h-99c6 84 56 137 142 137c78 0 140 -43 140 -116c0 -46 -30 -87 -70 -119l-57 -47h129v-84z" />
    <glyph glyph-name="threequarters" unicode="&#xbe;" horiz-adv-x="760" 
d="M176 487h-27v72h21c32 0 48 17 48 36s-16 30 -35 30c-25 0 -41 -19 -43 -44h-99c2 76 60 125 145 125c80 0 137 -40 137 -98c0 -30 -14 -60 -49 -79c42 -20 59 -51 59 -85c0 -64 -63 -110 -145 -110c-86 0 -152 51 -153 129h100c2 -29 24 -48 51 -48c24 0 43 15 43 36
c0 20 -18 36 -53 36zM255 0h-93l406 700h93zM680 0h-101v70h-175v66l164 223h112v-206h49v-83h-49v-70zM579 153v95l-66 -95h66z" />
    <glyph glyph-name="questiondown" unicode="&#xbf;" horiz-adv-x="493" 
d="M262 512c54 0 97 -44 97 -98s-43 -98 -97 -98s-97 44 -97 98s43 98 97 98zM194 255h137v-40c0 -85 -26 -127 -94 -171c-30 -20 -53 -38 -53 -68s25 -48 61 -48c52 0 79 34 83 90h147c-5 -146 -106 -228 -235 -228c-99 0 -215 48 -215 176c0 86 59 133 108 166
c44 30 61 58 61 103v20z" />
    <glyph glyph-name="Agrave" unicode="&#xc0;" horiz-adv-x="720" 
d="M720 0h-192l-51 155h-233l-53 -155h-191l262 700h196zM435 285l-75 227l-76 -227h151zM441 754h-113l-158 166v7h177z" />
    <glyph glyph-name="Aacute" unicode="&#xc1;" horiz-adv-x="720" 
d="M720 0h-192l-51 155h-233l-53 -155h-191l262 700h196zM435 285l-75 227l-76 -227h151zM390 754h-113l94 173h177v-7z" />
    <glyph glyph-name="Acircumflex" unicode="&#xc2;" horiz-adv-x="720" 
d="M720 0h-192l-51 155h-233l-53 -155h-191l262 700h196zM435 285l-75 227l-76 -227h151zM565 744h-94l-111 77l-111 -77h-94l156 177h98z" />
    <glyph glyph-name="Atilde" unicode="&#xc3;" horiz-adv-x="720" 
d="M720 0h-192l-51 155h-233l-53 -155h-191l262 700h196zM435 285l-75 227l-76 -227h151zM496 918l78 -25c-16 -92 -69 -137 -127 -137c-71 0 -110 62 -160 62c-25 0 -45 -16 -56 -60l-78 25c16 92 69 137 127 137c71 0 110 -62 160 -62c25 0 45 16 56 60z" />
    <glyph glyph-name="Adieresis" unicode="&#xc4;" horiz-adv-x="720" 
d="M720 0h-192l-51 155h-233l-53 -155h-191l262 700h196zM435 285l-75 227l-76 -227h151zM333 833c0 -42 -34 -75 -78 -75s-78 33 -78 75s34 75 78 75s78 -33 78 -75zM542 833c0 -42 -34 -75 -78 -75s-78 33 -78 75s34 75 78 75s78 -33 78 -75z" />
    <glyph glyph-name="Aring" unicode="&#xc5;" horiz-adv-x="720" 
d="M720 0h-192l-51 155h-233l-53 -155h-191l264 705c-30 26 -49 66 -49 110c0 81 64 146 145 146s145 -65 145 -146c0 -44 -19 -84 -50 -110zM435 285l-75 227l-76 -227h151zM360 750c34 0 61 28 61 65s-27 65 -61 65s-61 -28 -61 -65s27 -65 61 -65z" />
    <glyph glyph-name="AE" unicode="&#xc6;" horiz-adv-x="1046" 
d="M1021 0h-521v155h-229l-80 -155h-206l384 700h652v-152h-338v-115h299v-153h-299v-128h338v-152zM500 285v263h-32l-134 -263h166z" />
    <glyph glyph-name="Ccedilla" unicode="&#xc7;" horiz-adv-x="632" 
d="M285 -231v60c17 -11 38 -19 59 -19c34 0 49 23 49 46c0 26 -18 45 -55 45c-9 0 -24 -1 -34 -5l-5 4l14 100c-161 39 -273 179 -273 350c0 203 158 362 368 362c66 0 133 -12 189 -38v-166c-49 30 -116 50 -179 50c-118 0 -192 -89 -192 -208s74 -208 192 -208
c63 0 130 20 179 50v-166c-56 -26 -123 -38 -189 -38c-14 0 -27 1 -40 2l-4 -39c57 -4 108 -38 108 -98c0 -58 -49 -103 -113 -103c-25 0 -53 7 -74 19z" />
    <glyph glyph-name="Egrave" unicode="&#xc8;" horiz-adv-x="631" 
d="M606 0h-541v700h541v-152h-358v-115h319v-153h-319v-128h358v-152zM423 764h-113l-158 166v7h177z" />
    <glyph glyph-name="Eacute" unicode="&#xc9;" horiz-adv-x="631" 
d="M606 0h-541v700h541v-152h-358v-115h319v-153h-319v-128h358v-152zM371 764h-113l94 173h177v-7z" />
    <glyph glyph-name="Ecircumflex" unicode="&#xca;" horiz-adv-x="631" 
d="M606 0h-541v700h541v-152h-358v-115h319v-153h-319v-128h358v-152zM541 758h-94l-111 77l-111 -77h-94l156 177h98z" />
    <glyph glyph-name="Edieresis" unicode="&#xcb;" horiz-adv-x="631" 
d="M606 0h-541v700h541v-152h-358v-115h319v-153h-319v-128h358v-152zM313 843c0 -42 -34 -75 -78 -75s-78 33 -78 75s34 75 78 75s78 -33 78 -75zM522 843c0 -42 -34 -75 -78 -75s-78 33 -78 75s34 75 78 75s78 -33 78 -75z" />
    <glyph glyph-name="Igrave" unicode="&#xcc;" horiz-adv-x="313" 
d="M248 0h-183v700h183v-700zM238 764h-113l-158 166v7h177z" />
    <glyph glyph-name="Iacute" unicode="&#xcd;" horiz-adv-x="313" 
d="M248 0h-183v700h183v-700zM188 764h-113l94 173h177v-7z" />
    <glyph glyph-name="Icircumflex" unicode="&#xce;" horiz-adv-x="313" 
d="M248 0h-183v700h183v-700zM361 748h-94l-111 77l-111 -77h-94l156 177h98z" />
    <glyph glyph-name="Idieresis" unicode="&#xcf;" horiz-adv-x="313" 
d="M129 843c0 -42 -34 -75 -78 -75s-78 33 -78 75s34 75 78 75s78 -33 78 -75zM338 843c0 -42 -34 -75 -78 -75s-78 33 -78 75s34 75 78 75s78 -33 78 -75zM248 0h-183v700h183v-700z" />
    <glyph glyph-name="Eth" unicode="&#xd0;" horiz-adv-x="795" 
d="M353 0h-234v312h-104v95h104v293h234c75 0 146 -13 206 -40c117 -52 196 -156 196 -310s-79 -258 -196 -310c-60 -27 -131 -40 -206 -40zM302 151h51c38 0 73 6 103 18c70 28 114 89 114 181s-44 153 -114 181c-30 12 -65 18 -103 18h-51v-142h121v-95h-121v-161z" />
    <glyph glyph-name="Ntilde" unicode="&#xd1;" horiz-adv-x="756" 
d="M691 0h-195l-255 413v-413h-176v700h196l255 -412v412h175v-700zM515 918l78 -25c-16 -92 -69 -137 -127 -137c-71 0 -110 62 -160 62c-25 0 -45 -16 -56 -60l-78 25c16 92 69 137 127 137c71 0 110 -62 160 -62c25 0 45 16 56 60z" />
    <glyph glyph-name="Ograve" unicode="&#xd2;" horiz-adv-x="815" 
d="M775 350c0 -203 -162 -362 -367 -362c-206 0 -368 159 -368 362s162 362 368 362c205 0 367 -159 367 -362zM408 142c104 0 182 87 182 208s-78 208 -182 208c-105 0 -182 -87 -182 -208s77 -208 182 -208zM501 764h-113l-158 166v7h177z" />
    <glyph glyph-name="Oacute" unicode="&#xd3;" horiz-adv-x="815" 
d="M775 350c0 -203 -162 -362 -367 -362c-206 0 -368 159 -368 362s162 362 368 362c205 0 367 -159 367 -362zM408 142c104 0 182 87 182 208s-78 208 -182 208c-105 0 -182 -87 -182 -208s77 -208 182 -208zM428 764h-113l94 173h177v-7z" />
    <glyph glyph-name="Ocircumflex" unicode="&#xd4;" horiz-adv-x="815" 
d="M775 350c0 -203 -162 -362 -367 -362c-206 0 -368 159 -368 362s162 362 368 362c205 0 367 -159 367 -362zM408 142c104 0 182 87 182 208s-78 208 -182 208c-105 0 -182 -87 -182 -208s77 -208 182 -208zM612 758h-94l-111 77l-111 -77h-94l156 177h98z" />
    <glyph glyph-name="Otilde" unicode="&#xd5;" horiz-adv-x="815" 
d="M775 350c0 -203 -162 -362 -367 -362c-206 0 -368 159 -368 362s162 362 368 362c205 0 367 -159 367 -362zM408 142c104 0 182 87 182 208s-78 208 -182 208c-105 0 -182 -87 -182 -208s77 -208 182 -208zM542 918l78 -25c-16 -92 -69 -137 -127 -137
c-71 0 -110 62 -160 62c-25 0 -45 -16 -56 -60l-78 25c16 92 69 137 127 137c71 0 110 -62 160 -62c25 0 45 16 56 60z" />
    <glyph glyph-name="Odieresis" unicode="&#xd6;" horiz-adv-x="815" 
d="M775 350c0 -203 -162 -362 -367 -362c-206 0 -368 159 -368 362s162 362 368 362c205 0 367 -159 367 -362zM408 142c104 0 182 87 182 208s-78 208 -182 208c-105 0 -182 -87 -182 -208s77 -208 182 -208zM381 838c0 -42 -34 -75 -78 -75s-78 33 -78 75s34 75 78 75
s78 -33 78 -75zM590 838c0 -42 -34 -75 -78 -75s-78 33 -78 75s34 75 78 75s78 -33 78 -75z" />
    <glyph glyph-name="multiply" unicode="&#xd7;" horiz-adv-x="624" 
d="M512 65l-200 200l-200 -200l-87 87l200 200l-200 200l87 87l200 -200l200 200l87 -87l-200 -200l200 -200z" />
    <glyph glyph-name="Oslash" unicode="&#xd8;" horiz-adv-x="815" 
d="M160 -12h-105l90 107c-65 65 -105 154 -105 255c0 203 162 362 368 362c76 0 146 -22 204 -60l50 60h105l-93 -111c62 -65 101 -153 101 -251c0 -203 -162 -362 -367 -362c-75 0 -143 21 -201 57zM257 229l250 298c-28 20 -62 31 -99 31c-105 0 -182 -87 -182 -208
c0 -47 11 -88 31 -121zM561 466l-249 -296c28 -18 60 -28 96 -28c104 0 182 87 182 208c0 44 -10 84 -29 116z" />
    <glyph glyph-name="Ugrave" unicode="&#xd9;" horiz-adv-x="745" 
d="M501 311v389h184v-392c0 -70 -12 -128 -36 -176c-47 -94 -141 -144 -277 -144c-134 0 -226 48 -274 140c-25 48 -38 109 -38 180v392h183v-389c0 -26 2 -50 7 -71c15 -62 53 -100 122 -100c71 0 108 38 122 99c5 21 7 46 7 72zM443 754h-113l-158 166v7h177z" />
    <glyph glyph-name="Uacute" unicode="&#xda;" horiz-adv-x="745" 
d="M501 311v389h184v-392c0 -70 -12 -128 -36 -176c-47 -94 -141 -144 -277 -144c-134 0 -226 48 -274 140c-25 48 -38 109 -38 180v392h183v-389c0 -26 2 -50 7 -71c15 -62 53 -100 122 -100c71 0 108 38 122 99c5 21 7 46 7 72zM421 754h-113l94 173h177v-7z" />
    <glyph glyph-name="Ucircumflex" unicode="&#xdb;" horiz-adv-x="745" 
d="M501 311v389h184v-392c0 -70 -12 -128 -36 -176c-47 -94 -141 -144 -277 -144c-134 0 -226 48 -274 140c-25 48 -38 109 -38 180v392h183v-389c0 -26 2 -50 7 -71c15 -62 53 -100 122 -100c71 0 108 38 122 99c5 21 7 46 7 72zM577 748h-94l-111 77l-111 -77h-94l156 177
h98z" />
    <glyph glyph-name="Udieresis" unicode="&#xdc;" horiz-adv-x="745" 
d="M501 311v389h184v-392c0 -70 -12 -128 -36 -176c-47 -94 -141 -144 -277 -144c-134 0 -226 48 -274 140c-25 48 -38 109 -38 180v392h183v-389c0 -26 2 -50 7 -71c15 -62 53 -100 122 -100c71 0 108 38 122 99c5 21 7 46 7 72zM345 838c0 -42 -34 -75 -78 -75
s-78 33 -78 75s34 75 78 75s78 -33 78 -75zM554 838c0 -42 -34 -75 -78 -75s-78 33 -78 75s34 75 78 75s78 -33 78 -75z" />
    <glyph glyph-name="Yacute" unicode="&#xdd;" horiz-adv-x="690" 
d="M436 0h-182v286l-269 414h208l151 -263h2l151 263h208l-269 -414v-286zM389 749h-113l94 173h177v-7z" />
    <glyph glyph-name="Thorn" unicode="&#xde;" horiz-adv-x="667" 
d="M248 0h-183v700h183v-112h110c155 0 279 -69 279 -235c0 -167 -124 -236 -279 -236h-110v-117zM248 268h110c55 0 94 22 94 85c0 62 -39 85 -94 85h-110v-170z" />
    <glyph glyph-name="germandbls" unicode="&#xdf;" horiz-adv-x="666" 
d="M282 -100h-170v460h-92v140h94c12 125 92 212 240 212c123 0 231 -67 231 -175c0 -63 -36 -124 -104 -150c101 -37 155 -98 155 -189c0 -130 -104 -216 -243 -216c-30 0 -60 4 -73 6v134s23 -4 43 -4c67 0 109 36 109 97c0 71 -59 100 -152 100v122c70 0 103 33 103 79
c0 39 -26 65 -68 65c-48 0 -73 -34 -73 -96v-585z" />
    <glyph glyph-name="agrave" unicode="&#xe0;" 
d="M553 0h-160v53c-32 -40 -79 -65 -141 -65c-134 0 -217 113 -217 262s83 262 217 262c56 0 99 -21 131 -54v42h170v-500zM296 121c53 0 93 51 93 129s-40 129 -93 129s-93 -51 -93 -129s40 -129 93 -129zM393 564h-113l-158 166v7h177z" />
    <glyph glyph-name="aacute" unicode="&#xe1;" 
d="M553 0h-160v53c-32 -40 -79 -65 -141 -65c-134 0 -217 113 -217 262s83 262 217 262c56 0 99 -21 131 -54v42h170v-500zM296 121c53 0 93 51 93 129s-40 129 -93 129s-93 -51 -93 -129s40 -129 93 -129zM331 564h-113l94 173h177v-7z" />
    <glyph glyph-name="acircumflex" unicode="&#xe2;" 
d="M553 0h-160v53c-32 -40 -79 -65 -141 -65c-134 0 -217 113 -217 262s83 262 217 262c56 0 99 -21 131 -54v42h170v-500zM296 121c53 0 93 51 93 129s-40 129 -93 129s-93 -51 -93 -129s40 -129 93 -129zM514 558h-94l-111 77l-111 -77h-94l156 177h98z" />
    <glyph glyph-name="atilde" unicode="&#xe3;" 
d="M553 0h-160v53c-32 -40 -79 -65 -141 -65c-134 0 -217 113 -217 262s83 262 217 262c56 0 99 -21 131 -54v42h170v-500zM296 121c53 0 93 51 93 129s-40 129 -93 129s-93 -51 -93 -129s40 -129 93 -129zM440 723l78 -25c-16 -92 -69 -137 -127 -137
c-71 0 -110 62 -160 62c-25 0 -45 -16 -56 -60l-78 25c16 92 69 137 127 137c71 0 110 -62 160 -62c25 0 45 16 56 60z" />
    <glyph glyph-name="adieresis" unicode="&#xe4;" 
d="M553 0h-160v53c-32 -40 -79 -65 -141 -65c-134 0 -217 113 -217 262s83 262 217 262c56 0 99 -21 131 -54v42h170v-500zM296 121c53 0 93 51 93 129s-40 129 -93 129s-93 -51 -93 -129s40 -129 93 -129zM275 643c0 -42 -34 -75 -78 -75s-78 33 -78 75s34 75 78 75
s78 -33 78 -75zM484 643c0 -42 -34 -75 -78 -75s-78 33 -78 75s34 75 78 75s78 -33 78 -75z" />
    <glyph glyph-name="aring" unicode="&#xe5;" 
d="M553 0h-160v53c-32 -40 -79 -65 -141 -65c-134 0 -217 113 -217 262s83 262 217 262c56 0 99 -21 131 -54v42h170v-500zM296 121c53 0 93 51 93 129s-40 129 -93 129s-93 -51 -93 -129s40 -129 93 -129zM303 553c-81 0 -145 65 -145 146s64 146 145 146s145 -65 145 -146
s-64 -146 -145 -146zM303 634c34 0 61 28 61 65s-27 65 -61 65s-61 -28 -61 -65s27 -65 61 -65z" />
    <glyph glyph-name="ae" unicode="&#xe6;" horiz-adv-x="926" 
d="M888 213h-350c11 -65 53 -96 102 -96c39 0 69 19 86 55h151c-33 -104 -115 -184 -238 -184c-85 0 -153 38 -196 99c-46 -56 -118 -99 -211 -99c-95 0 -199 45 -199 172c0 75 36 120 97 141c25 9 60 13 98 13h152c-13 47 -64 73 -142 73c-49 0 -100 -10 -158 -40v126
c55 26 115 39 177 39c83 0 157 -23 202 -81c43 50 106 81 182 81c148 0 250 -115 250 -256c0 -20 -2 -38 -3 -43zM379 213h-149c-15 0 -28 -2 -37 -5c-21 -7 -32 -23 -32 -46c0 -39 34 -55 78 -55c70 0 122 40 140 106zM542 314h181c-10 50 -48 73 -91 73s-78 -23 -90 -73z
" />
    <glyph glyph-name="ccedilla" unicode="&#xe7;" horiz-adv-x="506" 
d="M200 -231v60c17 -11 38 -19 59 -19c34 0 49 23 49 46c0 26 -18 45 -55 45c-9 0 -24 -1 -34 -5l-5 4l13 97c-116 29 -192 129 -192 253c0 149 110 262 267 262c50 0 111 -12 173 -44v-136c-55 33 -103 47 -144 47c-81 0 -128 -51 -128 -129s47 -129 128 -129
c41 0 89 14 144 47v-136c-62 -32 -123 -44 -173 -44c-7 0 -13 0 -19 1l-4 -38c57 -4 108 -38 108 -98c0 -58 -49 -103 -113 -103c-25 0 -53 7 -74 19z" />
    <glyph glyph-name="egrave" unicode="&#xe8;" horiz-adv-x="578" 
d="M540 213h-350c11 -65 54 -96 100 -96c42 0 71 19 88 55h151c-34 -105 -113 -184 -241 -184c-141 0 -253 113 -253 262s112 262 258 262c148 0 250 -115 250 -256c0 -20 -2 -38 -3 -43zM194 314h181c-10 50 -48 73 -91 73s-78 -23 -90 -73zM375 564h-113l-158 166v7h177z
" />
    <glyph glyph-name="eacute" unicode="&#xe9;" horiz-adv-x="578" 
d="M540 213h-350c11 -65 54 -96 100 -96c42 0 71 19 88 55h151c-34 -105 -113 -184 -241 -184c-141 0 -253 113 -253 262s112 262 258 262c148 0 250 -115 250 -256c0 -20 -2 -38 -3 -43zM194 314h181c-10 50 -48 73 -91 73s-78 -23 -90 -73zM342 564h-113l94 173h177v-7z
" />
    <glyph glyph-name="ecircumflex" unicode="&#xea;" horiz-adv-x="578" 
d="M540 213h-350c11 -65 54 -96 100 -96c42 0 71 19 88 55h151c-34 -105 -113 -184 -241 -184c-141 0 -253 113 -253 262s112 262 258 262c148 0 250 -115 250 -256c0 -20 -2 -38 -3 -43zM194 314h181c-10 50 -48 73 -91 73s-78 -23 -90 -73zM494 558h-94l-111 77l-111 -77
h-94l156 177h98z" />
    <glyph glyph-name="edieresis" unicode="&#xeb;" horiz-adv-x="578" 
d="M540 213h-350c11 -65 54 -96 100 -96c42 0 71 19 88 55h151c-34 -105 -113 -184 -241 -184c-141 0 -253 113 -253 262s112 262 258 262c148 0 250 -115 250 -256c0 -20 -2 -38 -3 -43zM194 314h181c-10 50 -48 73 -91 73s-78 -23 -90 -73zM269 643c0 -42 -34 -75 -78 -75
s-78 33 -78 75s34 75 78 75s78 -33 78 -75zM478 643c0 -42 -34 -75 -78 -75s-78 33 -78 75s34 75 78 75s78 -33 78 -75z" />
    <glyph glyph-name="igrave" unicode="&#xec;" horiz-adv-x="270" 
d="M220 0h-170v500h170v-500zM210 564h-113l-158 166v7h177z" />
    <glyph glyph-name="iacute" unicode="&#xed;" horiz-adv-x="270" 
d="M220 0h-170v500h170v-500zM178 564h-113l94 173h177v-7z" />
    <glyph glyph-name="icircumflex" unicode="&#xee;" horiz-adv-x="270" 
d="M220 0h-170v500h170v-500zM340 558h-94l-111 77l-111 -77h-94l156 177h98z" />
    <glyph glyph-name="idieresis" unicode="&#xef;" horiz-adv-x="270" 
d="M109 643c0 -42 -34 -75 -78 -75s-78 33 -78 75s34 75 78 75s78 -33 78 -75zM318 643c0 -42 -34 -75 -78 -75s-78 33 -78 75s34 75 78 75s78 -33 78 -75zM220 0h-170v500h170v-500z" />
    <glyph glyph-name="eth" unicode="&#xf0;" horiz-adv-x="585" 
d="M265 510l-48 65l-68 -46l-27 39l67 45l-46 63l119 80l45 -64l68 45l27 -39l-67 -45l137 -194c48 -69 81 -119 81 -209c0 -149 -112 -262 -259 -262s-259 113 -259 262c0 113 64 205 160 243c22 9 45 15 70 17zM294 121c54 0 95 52 95 129s-41 129 -95 129
s-95 -52 -95 -129s41 -129 95 -129z" />
    <glyph glyph-name="ntilde" unicode="&#xf1;" horiz-adv-x="593" 
d="M548 0h-170v280c0 24 -1 39 -5 51c-8 28 -28 48 -65 48c-58 0 -88 -46 -88 -119v-260h-170v500h160v-68c39 48 92 80 162 80c83 0 137 -40 161 -111c10 -29 15 -73 15 -121v-280zM426 718l78 -25c-16 -92 -69 -137 -127 -137c-71 0 -110 62 -160 62
c-25 0 -45 -16 -56 -60l-78 25c16 92 69 137 127 137c71 0 110 -62 160 -62c25 0 45 16 56 60z" />
    <glyph glyph-name="ograve" unicode="&#xf2;" horiz-adv-x="588" 
d="M294 -12c-147 0 -259 113 -259 262s112 262 259 262s259 -113 259 -262s-112 -262 -259 -262zM294 121c53 0 93 52 93 129s-40 129 -93 129s-93 -52 -93 -129s40 -129 93 -129zM377 564h-113l-158 166v7h177z" />
    <glyph glyph-name="oacute" unicode="&#xf3;" horiz-adv-x="588" 
d="M294 -12c-147 0 -259 113 -259 262s112 262 259 262s259 -113 259 -262s-112 -262 -259 -262zM294 121c53 0 93 52 93 129s-40 129 -93 129s-93 -52 -93 -129s40 -129 93 -129zM326 564h-113l94 173h177v-7z" />
    <glyph glyph-name="ocircumflex" unicode="&#xf4;" horiz-adv-x="588" 
d="M294 -12c-147 0 -259 113 -259 262s112 262 259 262s259 -113 259 -262s-112 -262 -259 -262zM294 121c53 0 93 52 93 129s-40 129 -93 129s-93 -52 -93 -129s40 -129 93 -129zM499 553h-94l-111 77l-111 -77h-94l156 177h98z" />
    <glyph glyph-name="otilde" unicode="&#xf5;" horiz-adv-x="588" 
d="M294 -12c-147 0 -259 113 -259 262s112 262 259 262s259 -113 259 -262s-112 -262 -259 -262zM294 121c53 0 93 52 93 129s-40 129 -93 129s-93 -52 -93 -129s40 -129 93 -129zM426 718l78 -25c-16 -92 -69 -137 -127 -137c-71 0 -110 62 -160 62c-25 0 -45 -16 -56 -60
l-78 25c16 92 69 137 127 137c71 0 110 -62 160 -62c25 0 45 16 56 60z" />
    <glyph glyph-name="odieresis" unicode="&#xf6;" horiz-adv-x="588" 
d="M294 -12c-147 0 -259 113 -259 262s112 262 259 262s259 -113 259 -262s-112 -262 -259 -262zM294 121c53 0 93 52 93 129s-40 129 -93 129s-93 -52 -93 -129s40 -129 93 -129zM268 643c0 -42 -34 -75 -78 -75s-78 33 -78 75s34 75 78 75s78 -33 78 -75zM477 643
c0 -42 -34 -75 -78 -75s-78 33 -78 75s34 75 78 75s78 -33 78 -75z" />
    <glyph glyph-name="divide" unicode="&#xf7;" horiz-adv-x="634" 
d="M317 55c-47 0 -86 39 -86 86c0 46 39 86 86 86c46 0 86 -40 86 -86c0 -47 -40 -86 -86 -86zM599 289h-564v126h564v-126zM317 480c-47 0 -86 39 -86 86c0 46 39 86 86 86c46 0 86 -40 86 -86c0 -47 -40 -86 -86 -86z" />
    <glyph glyph-name="oslash" unicode="&#xf8;" horiz-adv-x="593" 
d="M131 -12h-85l62 76c-46 47 -73 112 -73 186c0 149 112 262 259 262c54 0 103 -16 144 -43l35 43h85l-70 -86c41 -46 65 -107 65 -176c0 -149 -112 -262 -259 -262c-50 0 -96 12 -134 35zM383 297l-133 -163c13 -9 28 -13 44 -13c54 0 95 52 95 129c0 17 -2 33 -6 47z
M209 188l139 170c-15 13 -34 21 -54 21c-54 0 -95 -52 -95 -129c0 -23 3 -44 10 -62z" />
    <glyph glyph-name="ugrave" unicode="&#xf9;" horiz-adv-x="560" 
d="M345 199v301h170v-284c0 -42 -8 -80 -24 -112c-36 -73 -109 -116 -211 -116c-101 0 -174 40 -210 110c-16 32 -25 70 -25 113v289h170v-301c0 -14 2 -27 6 -38c10 -25 30 -40 59 -40c28 0 48 14 58 38c5 11 7 25 7 40zM352 564h-113l-158 166v7h177z" />
    <glyph glyph-name="uacute" unicode="&#xfa;" horiz-adv-x="560" 
d="M345 199v301h170v-284c0 -42 -8 -80 -24 -112c-36 -73 -109 -116 -211 -116c-101 0 -174 40 -210 110c-16 32 -25 70 -25 113v289h170v-301c0 -14 2 -27 6 -38c10 -25 30 -40 59 -40c28 0 48 14 58 38c5 11 7 25 7 40zM323 564h-113l94 173h177v-7z" />
    <glyph glyph-name="ucircumflex" unicode="&#xfb;" horiz-adv-x="560" 
d="M345 199v301h170v-284c0 -42 -8 -80 -24 -112c-36 -73 -109 -116 -211 -116c-101 0 -174 40 -210 110c-16 32 -25 70 -25 113v289h170v-301c0 -14 2 -27 6 -38c10 -25 30 -40 59 -40c28 0 48 14 58 38c5 11 7 25 7 40zM485 558h-94l-111 77l-111 -77h-94l156 177h98z" />
    <glyph glyph-name="udieresis" unicode="&#xfc;" horiz-adv-x="560" 
d="M345 199v301h170v-284c0 -42 -8 -80 -24 -112c-36 -73 -109 -116 -211 -116c-101 0 -174 40 -210 110c-16 32 -25 70 -25 113v289h170v-301c0 -14 2 -27 6 -38c10 -25 30 -40 59 -40c28 0 48 14 58 38c5 11 7 25 7 40zM254 638c0 -42 -34 -75 -78 -75s-78 33 -78 75
s34 75 78 75s78 -33 78 -75zM463 638c0 -42 -34 -75 -78 -75s-78 33 -78 75s34 75 78 75s78 -33 78 -75z" />
    <glyph glyph-name="yacute" unicode="&#xfd;" horiz-adv-x="548" 
d="M291 -211h-153l76 218l-209 493h170l111 -301l87 301h170l-175 -490zM328 559h-113l94 173h177v-7z" />
    <glyph glyph-name="thorn" unicode="&#xfe;" 
d="M220 -200h-170v900h170v-242c32 33 75 54 131 54c134 0 217 -113 217 -262s-83 -262 -217 -262c-56 0 -99 21 -131 54v-242zM307 121c53 0 93 51 93 129s-40 129 -93 129s-93 -51 -93 -129s40 -129 93 -129z" />
    <glyph glyph-name="ydieresis" unicode="&#xff;" horiz-adv-x="548" 
d="M291 -211h-153l76 218l-209 493h170l111 -301l87 301h170l-175 -490zM259 633c0 -42 -34 -75 -78 -75s-78 33 -78 75s34 75 78 75s78 -33 78 -75zM468 633c0 -42 -34 -75 -78 -75s-78 33 -78 75s34 75 78 75s78 -33 78 -75z" />
    <glyph glyph-name="dotlessi" unicode="&#x131;" horiz-adv-x="270" 
d="M220 0h-170v500h170v-500z" />
    <glyph glyph-name="Lslash" unicode="&#x141;" horiz-adv-x="688" 
d="M663 0h-544v244l-104 -52v105l104 52v351h183v-259l151 76v-105l-151 -76v-184h361v-152z" />
    <glyph glyph-name="lslash" unicode="&#x142;" horiz-adv-x="408" 
d="M289 0h-170v254l-104 -52v105l104 52v341h170v-256l104 52v-105l-104 -52v-339z" />
    <glyph glyph-name="OE" unicode="&#x152;" horiz-adv-x="1039" 
d="M1014 0h-572c-221 0 -402 111 -402 350c0 230 181 350 402 350h572v-152h-338v-115h299v-153h-299v-128h338v-152zM493 151v398h-51c-118 0 -217 -65 -217 -199c0 -126 89 -199 217 -199h51z" />
    <glyph glyph-name="oe" unicode="&#x153;" horiz-adv-x="929" 
d="M894 213h-350c11 -65 54 -96 100 -96c42 0 71 19 88 55h151c-34 -105 -113 -184 -241 -184c-71 0 -130 28 -172 75c-42 -47 -102 -75 -176 -75c-147 0 -259 113 -259 262s112 262 259 262c74 0 135 -29 177 -76c42 47 102 76 176 76c148 0 250 -115 250 -256
c0 -20 -2 -38 -3 -43zM294 121c54 0 95 52 95 129s-41 129 -95 129s-95 -52 -95 -129s41 -129 95 -129zM548 314h181c-10 50 -48 73 -91 73s-78 -23 -90 -73z" />
    <glyph glyph-name="Scaron" unicode="&#x160;" horiz-adv-x="618" 
d="M45 50v166c86 -58 158 -80 246 -80c73 0 115 25 115 74s-48 66 -108 81c-142 31 -254 78 -254 223s123 198 251 198c73 0 158 -13 245 -49v-165c-99 50 -189 66 -236 66c-48 0 -79 -16 -79 -50c0 -40 35 -56 113 -74c123 -29 250 -77 250 -222
c0 -147 -128 -230 -284 -230c-84 0 -172 17 -259 62zM349 758h-98l-156 177h94l111 -77l111 77h94z" />
    <glyph glyph-name="scaron" unicode="&#x161;" horiz-adv-x="487" 
d="M38 37v134c70 -41 128 -57 188 -57c55 0 84 17 84 41c0 31 -39 36 -92 44c-92 14 -181 53 -181 159c0 118 106 154 201 154c67 0 131 -12 192 -38v-131c-69 31 -144 43 -183 43s-62 -9 -62 -30c0 -24 27 -33 83 -44c92 -18 191 -46 191 -157s-97 -167 -224 -167
c-82 0 -141 18 -197 49zM292 558h-98l-156 177h94l111 -77l111 77h94z" />
    <glyph glyph-name="Ydieresis" unicode="&#x178;" horiz-adv-x="690" 
d="M436 0h-182v286l-269 414h208l151 -263h2l151 263h208l-269 -414v-286zM319 828c0 -42 -34 -75 -78 -75s-78 33 -78 75s34 75 78 75s78 -33 78 -75zM528 828c0 -42 -34 -75 -78 -75s-78 33 -78 75s34 75 78 75s78 -33 78 -75z" />
    <glyph glyph-name="Zcaron" unicode="&#x17d;" horiz-adv-x="672" 
d="M647 0h-631v2l327 546h-310v152h613v-2l-326 -546h327v-152zM377 758h-98l-156 177h94l111 -77l111 77h94z" />
    <glyph glyph-name="zcaron" unicode="&#x17e;" horiz-adv-x="526" 
d="M497 0h-484v2l232 358h-211v140h467v-2l-232 -358h228v-140zM309 558h-98l-156 177h94l111 -77l111 77h94z" />
    <glyph glyph-name="florin" unicode="&#x192;" horiz-adv-x="458" 
d="M-20 -200l15 141c57 0 88 21 94 76l36 343h-96l15 140h95l3 26c14 122 74 211 219 211c35 0 73 -5 92 -9l-13 -132c-6 1 -36 5 -53 5c-40 0 -73 -11 -79 -66l-5 -35h125l-15 -140h-124l-36 -344c-15 -142 -87 -216 -273 -216z" />
    <glyph glyph-name="circumflex" unicode="&#x2c6;" horiz-adv-x="500" 
d="M455 558h-94l-111 77l-111 -77h-94l156 177h98z" />
    <glyph glyph-name="caron" unicode="&#x2c7;" horiz-adv-x="500" 
d="M299 558h-98l-156 177h94l111 -77l111 77h94z" />
    <glyph glyph-name="breve" unicode="&#x2d8;" horiz-adv-x="500" 
d="M329 720h94c-3 -96 -73 -173 -173 -173s-170 77 -173 173h94c2 -47 30 -82 79 -82s77 35 79 82z" />
    <glyph glyph-name="dotaccent" unicode="&#x2d9;" horiz-adv-x="500" 
d="M328 633c0 -42 -34 -75 -78 -75s-78 33 -78 75s34 75 78 75s78 -33 78 -75z" />
    <glyph glyph-name="ring" unicode="&#x2da;" horiz-adv-x="500" 
d="M250 523c-81 0 -145 65 -145 146s64 146 145 146s145 -65 145 -146s-64 -146 -145 -146zM250 604c34 0 61 28 61 65s-27 65 -61 65s-61 -28 -61 -65s27 -65 61 -65z" />
    <glyph glyph-name="ogonek" unicode="&#x2db;" horiz-adv-x="500" 
d="M335 -168v-57c-22 -10 -49 -16 -77 -16c-71 0 -116 40 -117 96c-1 61 50 110 125 145l56 -19c-75 -43 -101 -80 -101 -115c0 -31 22 -47 54 -47c18 0 43 5 60 13z" />
    <glyph glyph-name="tilde" unicode="&#x2dc;" horiz-adv-x="500" 
d="M383 718l78 -25c-16 -92 -69 -137 -127 -137c-71 0 -110 62 -160 62c-25 0 -45 -16 -56 -60l-78 25c16 92 69 137 127 137c71 0 110 -62 160 -62c25 0 45 16 56 60z" />
    <glyph glyph-name="hungarumlaut" unicode="&#x2dd;" horiz-adv-x="500" 
d="M180 554h-103l69 173h152v-7zM385 554h-103l69 173h152v-7z" />
    <glyph glyph-name="pi" unicode="&#x3c0;" horiz-adv-x="702" 
d="M655 131v-136c-186 0 -242 89 -242 211v154h-130v-360h-170v360h-93v140h660v-140h-97v-163c0 -55 32 -66 72 -66z" />
    <glyph glyph-name="endash" unicode="&#x2013;" horiz-adv-x="544" 
d="M509 289h-474v126h474v-126z" />
    <glyph glyph-name="emdash" unicode="&#x2014;" horiz-adv-x="704" 
d="M669 289h-634v126h634v-126z" />
    <glyph glyph-name="quoteleft" unicode="&#x2018;" horiz-adv-x="264" 
d="M208 700l-64 -124c49 -5 85 -47 85 -97c0 -54 -43 -98 -97 -98s-97 43 -97 96c0 27 11 59 30 95l67 128h76z" />
    <glyph glyph-name="quoteright" unicode="&#x2019;" horiz-adv-x="255" 
d="M132 381h-76l64 124c-49 5 -85 47 -85 97c0 54 43 98 97 98s97 -43 97 -96c0 -27 -11 -59 -30 -95z" />
    <glyph glyph-name="quotesinglbase" unicode="&#x201a;" horiz-adv-x="264" 
d="M132 -129h-76l64 124c-49 5 -85 47 -85 97c0 54 43 98 97 98s97 -43 97 -96c0 -27 -11 -59 -30 -95z" />
    <glyph glyph-name="quotedblleft" unicode="&#x201c;" horiz-adv-x="496" 
d="M208 700l-64 -124c49 -5 85 -47 85 -97c0 -54 -43 -98 -97 -98s-97 43 -97 96c0 27 11 59 30 95l67 128h76zM440 700l-64 -124c49 -5 85 -47 85 -97c0 -54 -43 -98 -97 -98s-97 43 -97 96c0 27 11 59 30 95l67 128h76z" />
    <glyph glyph-name="quotedblright" unicode="&#x201d;" horiz-adv-x="489" 
d="M364 381h-76l64 124c-49 5 -85 47 -85 97c0 54 43 98 97 98s97 -43 97 -96c0 -27 -11 -59 -30 -95zM132 381h-76l64 124c-49 5 -85 47 -85 97c0 54 43 98 97 98s97 -43 97 -96c0 -27 -11 -59 -30 -95z" />
    <glyph glyph-name="quotedblbase" unicode="&#x201e;" horiz-adv-x="496" 
d="M364 -129h-76l64 124c-49 5 -85 47 -85 97c0 54 43 98 97 98s97 -43 97 -96c0 -27 -11 -59 -30 -95zM132 -129h-76l64 124c-49 5 -85 47 -85 97c0 54 43 98 97 98s97 -43 97 -96c0 -27 -11 -59 -30 -95z" />
    <glyph glyph-name="dagger" unicode="&#x2020;" horiz-adv-x="574" 
d="M350 -144h-126v519h-199v126h199v211h126v-211h199v-126h-199v-519z" />
    <glyph glyph-name="daggerdbl" unicode="&#x2021;" horiz-adv-x="604" 
d="M365 -154h-126v211h-199v126h199v192h-199v126h199v211h126v-211h199v-126h-199v-192h199v-126h-199v-211z" />
    <glyph glyph-name="bullet" unicode="&#x2022;" horiz-adv-x="290" 
d="M145 243c-61 0 -110 49 -110 110s49 110 110 110s110 -49 110 -110s-49 -110 -110 -110z" />
    <glyph glyph-name="ellipsis" unicode="&#x2026;" horiz-adv-x="792" 
d="M132 -6c-54 0 -97 44 -97 98s43 98 97 98s97 -44 97 -98s-43 -98 -97 -98zM396 -6c-54 0 -97 44 -97 98s43 98 97 98s97 -44 97 -98s-43 -98 -97 -98zM660 -6c-54 0 -97 44 -97 98s43 98 97 98s97 -44 97 -98s-43 -98 -97 -98z" />
    <glyph glyph-name="perthousand" unicode="&#x2030;" horiz-adv-x="1119" 
d="M224 0h-117l426 700h117zM353 550c0 -89 -71 -161 -162 -161s-161 72 -161 161s70 162 161 162s162 -73 162 -162zM191 485c35 0 60 28 60 65s-25 66 -60 66s-59 -29 -59 -66s24 -65 59 -65zM727 149c0 -89 -71 -161 -162 -161s-161 72 -161 161s70 162 161 162
s162 -73 162 -162zM565 84c35 0 60 28 60 65s-25 66 -60 66s-59 -29 -59 -66s24 -65 59 -65zM1089 149c0 -89 -71 -161 -162 -161s-161 72 -161 161s70 162 161 162s162 -73 162 -162zM927 84c35 0 60 28 60 65s-25 66 -60 66s-59 -29 -59 -66s24 -65 59 -65z" />
    <glyph glyph-name="guilsinglleft" unicode="&#x2039;" horiz-adv-x="261" 
d="M231 19h-2l-199 196v87l199 196h2v-128l-104 -112l104 -111v-128z" />
    <glyph glyph-name="guilsinglright" unicode="&#x203a;" horiz-adv-x="261" 
d="M231 215l-199 -196h-2v128l104 111l-104 112v128h2l199 -196v-87z" />
    <glyph glyph-name="fraction" unicode="&#x2044;" horiz-adv-x="473" 
d="M87 0h-127l426 700h127z" />
    <glyph glyph-name="Euro" unicode="&#x20ac;" horiz-adv-x="731" 
d="M697 178l-1 -152c-56 -26 -123 -38 -189 -38c-167 0 -301 100 -349 244h-123v76h106c-2 13 -2 28 -2 42c0 10 0 21 1 31h-105v81h121c46 146 181 250 351 250c66 0 133 -12 189 -38l1 -152c-52 31 -124 51 -192 51c-85 0 -149 -44 -181 -111h247v-81h-269
c-1 -10 -2 -21 -2 -31c0 -15 1 -29 3 -42h268v-76h-244c33 -64 95 -105 178 -105c68 0 140 20 192 51z" />
    <glyph glyph-name="trademark" unicode="&#x2122;" horiz-adv-x="689" 
d="M198 404h-81v222h-95v74h271v-74h-95v-222zM647 404h-71v187l-92 -180l-92 180v-187h-71v296h95l68 -138l68 138h95v-296z" />
    <glyph glyph-name="Omega" unicode="&#x2126;" horiz-adv-x="752" 
d="M717 0h-307v207c79 58 117 126 117 208c0 88 -56 148 -151 148s-151 -60 -151 -148c0 -82 38 -150 117 -208v-207h-307v152h176v5c-119 75 -170 174 -170 283c0 146 122 272 335 272s335 -126 335 -272c0 -109 -51 -208 -170 -283v-5h176v-152z" />
    <glyph glyph-name="partialdiff" unicode="&#x2202;" horiz-adv-x="585" 
d="M265 510l-122 166l119 80l210 -297c48 -69 81 -119 81 -209c0 -149 -112 -262 -259 -262s-259 113 -259 262c0 115 66 209 164 245c21 8 43 13 66 15zM294 121c54 0 95 52 95 129s-41 129 -95 129s-95 -52 -95 -129s41 -129 95 -129z" />
    <glyph glyph-name="Delta" unicode="&#x2206;" horiz-adv-x="672" 
d="M647 0h-622v132l218 568h186l218 -568v-132zM462 144l-126 374l-127 -374h253z" />
    <glyph glyph-name="product" unicode="&#x220f;" horiz-adv-x="746" 
d="M681 0h-183v547h-250v-547h-183v700h616v-700z" />
    <glyph glyph-name="summation" unicode="&#x2211;" horiz-adv-x="651" 
d="M621 -151h-613v2l253 423l-253 424v2h613v-152h-316l165 -274l-165 -273h316v-152z" />
    <glyph glyph-name="minus" unicode="&#x2212;" horiz-adv-x="584" 
d="M539 289h-494v126h494v-126z" />
    <glyph glyph-name="radical" unicode="&#x221a;" horiz-adv-x="620" 
d="M402 0h-142l-142 389h-98v126h188l118 -357l160 642h137z" />
    <glyph glyph-name="infinity" unicode="&#x221e;" horiz-adv-x="633" 
d="M316 284c-21 -54 -71 -94 -131 -94c-86 0 -150 72 -150 163c0 92 64 164 150 164c60 0 110 -40 131 -95c22 55 70 95 133 95c85 0 149 -72 149 -164c0 -91 -64 -163 -149 -163c-63 0 -111 40 -133 94zM365 353c7 -39 34 -68 71 -68s62 29 62 68c0 40 -25 69 -62 69
s-64 -29 -71 -69zM268 353c-7 40 -34 69 -71 69s-62 -29 -62 -69c0 -39 25 -68 62 -68s64 29 71 68z" />
    <glyph glyph-name="integral" unicode="&#x222b;" horiz-adv-x="344" 
d="M-15 -200v141c75 0 102 26 102 81v457c0 142 76 221 272 221v-141c-75 0 -102 -26 -102 -81v-457c0 -142 -76 -221 -272 -221z" />
    <glyph glyph-name="approxequal" unicode="&#x2248;" horiz-adv-x="594" 
d="M554 549v-132c-28 -31 -78 -59 -132 -59c-98 0 -162 83 -252 83c-52 0 -94 -27 -130 -66v131c29 32 78 59 132 59c98 0 162 -83 252 -83c52 0 94 27 130 67zM554 327v-132c-28 -31 -78 -59 -132 -59c-98 0 -162 83 -252 83c-52 0 -94 -27 -130 -66v131
c29 32 78 59 132 59c98 0 162 -83 252 -83c52 0 94 27 130 67z" />
    <glyph glyph-name="notequal" unicode="&#x2260;" horiz-adv-x="594" 
d="M554 179h-285l-54 -109h-119l54 109h-110v126h173l47 94h-220v126h284l55 110h119l-55 -110h111v-126h-175l-47 -94h222v-126z" />
    <glyph glyph-name="lessequal" unicode="&#x2264;" horiz-adv-x="600" 
d="M560 154l-520 216v135l520 216v-141l-383 -143l383 -142v-141zM560 0h-520v126h520v-126z" />
    <glyph glyph-name="greaterequal" unicode="&#x2265;" horiz-adv-x="600" 
d="M560 370l-520 -216v141l383 142l-383 143v141l520 -216v-135zM560 0h-520v126h520v-126z" />
    <glyph glyph-name="lozenge" unicode="&#x25ca;" horiz-adv-x="584" 
d="M360 0h-136l-204 351l204 349h136l204 -349zM292 106l138 245l-138 243l-138 -243z" />
    <glyph glyph-name="apple" unicode="&#xf8ff;" horiz-adv-x="947" 
d="M780 67c-85 -85 -196 -127 -307 -127s-222 42 -306 127c-85 85 -127 196 -127 307c0 110 42 221 127 306c84 85 195 127 306 127s222 -42 307 -127c84 -85 127 -196 127 -306c0 -111 -43 -222 -127 -307zM691 350h-39c-5 -5 -11 -6 -17 -6c-11 0 -17 7 -17 15h77
c2 8 3 15 3 21c0 27 -18 49 -48 49c-33 0 -60 -25 -65 -58c-5 -34 16 -57 48 -57c26 0 47 14 58 36zM664 384h-40c4 9 13 16 24 16c10 0 16 -7 16 -16zM803 403c0 14 -11 25 -25 25c-13 0 -24 -11 -24 -25c0 -13 11 -25 24 -25c14 0 25 12 25 25zM567 316l12 68
c5 27 -8 45 -33 45c-13 0 -28 -8 -35 -18l4 15h-35l-19 -110h38l11 62c2 11 9 18 19 18c9 0 14 -8 12 -18l-11 -62h37zM206 316l13 75h30l6 35h-99l-6 -35h31l-13 -75h38zM360 368l10 58h-37l-11 -61c-2 -10 -9 -17 -19 -17c-9 0 -14 6 -12 17l11 61h-38l-10 -58
c-6 -36 12 -54 45 -54c31 0 55 17 61 54zM399 316l19 110h-38l-19 -110h38zM468 403c0 14 -11 25 -25 25c-13 0 -25 -11 -25 -25c0 -13 12 -25 25 -25c14 0 25 12 25 25zM734 316l19 110h-38l-19 -110h38z" />
    </font>
</defs>
</svg>
