<?xml version="1.0" standalone="no"?>
<!DOCTYPE svg PUBLIC "-//W3C//DTD SVG 1.1//EN" "http://www.w3.org/Graphics/SVG/1.1/DTD/svg11.dtd" >
<svg xmlns="http://www.w3.org/2000/svg" width="100%" height="100%">
<metadata>
Created by FontXChange 20110222 at Fri Oct 23 13:46:14 2015
 By James Beall
Copyright \(c\) 2015 Turner Broadcasting System, Inc.. All rights reserved.
</metadata>
<defs>
<font id="Turner-BoldItalic" horiz-adv-x="720" >
  <font-face 
    font-family="Turner"
    font-weight="700"
    font-style="italic"
    font-stretch="normal"
    units-per-em="1000"
    panose-1="2 0 0 0 0 0 0 0 0 0"
    ascent="750"
    descent="-250"
    x-height="500"
    cap-height="700"
    bbox="-123 -250 1114 961"
    underline-thickness="0"
    underline-position="0"
    slope="-10"
    stemh="153"
    stemv="183"
    unicode-range="U+000D-FB02"
  />
<missing-glyph horiz-adv-x="483" 
d="M30 0l132 750h363l-132 -750h-363zM76 57l180 317l-68 317zM367 57l112 634l-180 -317zM285 421l167 289h-231zM103 38h231l-66 288z" />
    <glyph glyph-name="fi" unicode="fi" horiz-adv-x="600" 
d="M77 0l63 360h-92l25 140h92l5 26c24 123 82 201 243 201c52 0 109 -8 133 -12l-25 -137c-5 1 -46 8 -85 8c-49 0 -87 -11 -98 -66l-4 -20h274l-88 -500h-170l63 360h-103l-63 -360h-170z" />
    <glyph glyph-name="fl" unicode="fl" horiz-adv-x="650" 
d="M77 0l63 360h-92l25 140h92l5 26c24 126 89 201 255 201c69 0 171 -13 268 -28l-123 -699h-170l102 580c-23 5 -48 8 -73 8c-58 0 -81 -16 -91 -67l-4 -21h113l-25 -140h-112l-63 -360h-170z" />
    <glyph glyph-name=".notdef" horiz-adv-x="483" 
d="M30 0l132 750h363l-132 -750h-363zM76 57l180 317l-68 317zM367 57l112 634l-180 -317zM285 421l167 289h-231zM103 38h231l-66 288z" />
    <glyph glyph-name="NULL" horiz-adv-x="0" 
 />
    <glyph glyph-name="NULL" horiz-adv-x="0" 
 />
    <glyph glyph-name="CR" unicode="&#xd;" horiz-adv-x="230" 
 />
    <glyph glyph-name="space" unicode=" " horiz-adv-x="230" 
 />
    <glyph glyph-name="exclam" unicode="!" horiz-adv-x="276" 
d="M79 250l55 450h192l-105 -450h-142zM123 -6c-54 0 -97 44 -97 98s43 98 97 98s97 -44 97 -98s-43 -98 -97 -98z" />
    <glyph glyph-name="quotedbl" unicode="&#x22;" horiz-adv-x="375" 
d="M95 455l28 245h132l-58 -245h-102zM278 455l28 245h132l-58 -245h-102z" />
    <glyph glyph-name="numbersign" unicode="#" horiz-adv-x="712" 
d="M76 0l63 180h-113l17 99h131l50 142h-119l18 99h136l64 180h119l-64 -180h137l64 180h119l-64 -180h114l-18 -99h-131l-50 -142h119l-17 -99h-137l-63 -180h-119l63 180h-137l-63 -180h-119zM293 279h137l50 142h-137z" />
    <glyph glyph-name="dollar" unicode="$" horiz-adv-x="573" 
d="M31 76l26 137c61 -40 129 -61 197 -64l27 150c-101 33 -191 75 -191 188c0 122 104 194 258 195l17 93h63l-17 -96c51 -8 107 -23 157 -45l-23 -133c-60 29 -115 43 -157 49l-22 -124c97 -32 190 -77 190 -191c0 -128 -117 -208 -262 -218l-16 -92h-63l16 92
c-66 7 -135 23 -200 59zM341 281l-23 -129c54 7 79 39 79 70c0 32 -26 49 -56 59zM306 444l20 110c-48 -1 -78 -23 -78 -55c0 -26 20 -42 58 -55z" />
    <glyph glyph-name="percent" unicode="%" horiz-adv-x="769" 
d="M83 0l549 700h117l-549 -700h-117zM255 388c-91 0 -161 73 -161 162s70 162 161 162s162 -73 162 -162s-71 -162 -162 -162zM256 494c30 0 50 25 50 56s-20 56 -50 56s-50 -25 -50 -56s20 -56 50 -56zM572 -12c-91 0 -161 73 -161 162s70 162 161 162s162 -73 162 -162
s-71 -162 -162 -162zM573 94c30 0 50 25 50 56s-20 56 -50 56s-50 -25 -50 -56s20 -56 50 -56z" />
    <glyph glyph-name="ampersand" unicode="&#x26;" horiz-adv-x="700" 
d="M508 0l-53 69c-61 -50 -131 -81 -209 -81c-108 0 -202 60 -202 179c0 115 87 188 161 231c-23 35 -41 74 -41 123c0 117 103 191 219 191c110 0 171 -67 171 -150s-60 -145 -156 -193l72 -91c21 35 39 69 59 111h144c-35 -74 -80 -152 -124 -215l133 -174h-174zM382 163
l-105 138c-50 -27 -92 -64 -92 -117c0 -51 39 -72 84 -72c39 0 79 16 113 51zM330 460c53 28 85 58 85 89c0 22 -16 40 -45 40c-34 0 -64 -24 -64 -60c0 -21 10 -46 24 -69z" />
    <glyph glyph-name="quotesingle" unicode="'" horiz-adv-x="192" 
d="M95 455l28 245h132l-58 -245h-102z" />
    <glyph glyph-name="parenleft" unicode="(" horiz-adv-x="377" 
d="M316 -58l-25 -145c-184 104 -261 291 -223 509c39 218 182 405 402 509l-29 -165c-139 -97 -224 -248 -224 -438c0 -114 35 -211 99 -270z" />
    <glyph glyph-name="parenright" unicode=")" horiz-adv-x="378" 
d="M-45 -203l29 165c139 97 224 248 224 438c0 114 -35 211 -99 270l26 145c152 -87 231 -245 231 -421c0 -253 -151 -474 -411 -597z" />
    <glyph glyph-name="asterisk" unicode="*" horiz-adv-x="434" 
d="M118 421l106 90l-135 27l47 115l117 -74l-16 137l124 -9l-35 -134l127 58l29 -121l-137 -7l93 -104l-105 -66l-51 131l-69 -122z" />
    <glyph glyph-name="plus" unicode="+" horiz-adv-x="693" 
d="M260 40l44 249h-249l22 126h249l44 249h126l-44 -249h249l-22 -126h-249l-44 -249h-126z" />
    <glyph glyph-name="comma" unicode="," horiz-adv-x="258" 
d="M3 -129l86 126c-42 11 -72 49 -72 95c0 54 43 98 97 98s97 -42 97 -96c0 -32 -15 -65 -42 -103l-84 -120h-82z" />
    <glyph glyph-name="hyphen" unicode="-" horiz-adv-x="373" 
d="M55 289l22 126h304l-22 -126h-304z" />
    <glyph glyph-name="period" unicode="." horiz-adv-x="260" 
d="M116 -6c-54 0 -97 44 -97 98s43 98 97 98s97 -44 97 -98s-43 -98 -97 -98z" />
    <glyph glyph-name="slash" unicode="/" horiz-adv-x="395" 
d="M-42 -40l386 780h155l-386 -780h-155z" />
    <glyph glyph-name="zero" unicode="0" horiz-adv-x="677" 
d="M311 -12c-159 0 -244 130 -244 292c0 231 140 432 361 432c158 0 244 -130 244 -292c0 -231 -141 -432 -361 -432zM334 132c102 0 164 142 164 286c0 87 -29 150 -93 150c-102 0 -164 -142 -164 -286c0 -87 29 -150 93 -150z" />
    <glyph glyph-name="one" unicode="1" horiz-adv-x="392" 
d="M121 0l96 543h-130l28 157h305l-124 -700h-175z" />
    <glyph glyph-name="two" unicode="2" horiz-adv-x="567" 
d="M25 0l22 126l281 242c53 46 86 91 86 137c0 37 -22 61 -61 61c-49 0 -88 -36 -105 -107h-165c35 170 148 253 288 253c130 0 218 -74 218 -192c0 -106 -70 -194 -167 -265l-146 -107h254l-26 -148h-479z" />
    <glyph glyph-name="three" unicode="3" horiz-adv-x="589" 
d="M43 230h159c-7 -58 31 -96 86 -96c56 0 102 38 102 89c0 42 -30 68 -92 68h-49l23 132h39c71 0 111 41 111 87c0 39 -29 56 -63 56c-51 0 -86 -37 -97 -87h-171c29 144 137 233 286 233c132 0 222 -69 222 -169c0 -59 -32 -135 -133 -179c68 -32 95 -84 95 -145
c0 -131 -127 -231 -282 -231c-153 0 -258 99 -236 242z" />
    <glyph glyph-name="four" unicode="4" horiz-adv-x="625" 
d="M24 140l21 119l373 440h188l-73 -413h90l-26 -146h-90l-25 -140h-165l25 140h-318zM238 286h130l37 212z" />
    <glyph glyph-name="five" unicode="5" horiz-adv-x="562" 
d="M0 43l44 137c55 -32 109 -46 163 -46c104 0 155 52 155 116c0 62 -47 92 -139 92c-41 0 -99 -6 -144 -18l115 376h408l-26 -148h-272l-28 -92c13 1 14 1 26 1c138 0 236 -66 236 -197c0 -152 -132 -276 -321 -276c-82 0 -161 23 -217 55z" />
    <glyph glyph-name="six" unicode="6" horiz-adv-x="608" 
d="M170 477l194 223h216l-196 -214l-22 -24h5c118 -4 212 -73 218 -190c9 -156 -125 -284 -295 -284c-139 0 -233 91 -240 216c-5 96 39 180 120 273zM215 211c0 -51 36 -82 89 -82c64 0 111 50 111 117c0 49 -33 84 -88 84c-60 0 -112 -43 -112 -119z" />
    <glyph glyph-name="seven" unicode="7" horiz-adv-x="539" 
d="M56 0l331 552h-295l26 148h489l-18 -105l-340 -595h-193z" />
    <glyph glyph-name="eight" unicode="8" horiz-adv-x="605" 
d="M180 376c-40 32 -61 80 -61 130c0 123 125 206 265 206c128 0 225 -70 225 -176c0 -65 -36 -128 -113 -173c54 -35 79 -87 79 -143c0 -126 -124 -232 -288 -232c-150 0 -244 89 -244 200c0 88 60 150 137 188zM213 201c0 -47 36 -82 87 -82c57 0 106 43 106 98
c0 47 -36 82 -87 82c-57 0 -106 -43 -106 -98zM355 430c47 0 85 37 85 84c0 40 -28 70 -69 70c-47 0 -86 -37 -86 -84c0 -40 29 -70 70 -70z" />
    <glyph glyph-name="nine" unicode="9" horiz-adv-x="609" 
d="M91 0l196 214l22 24h-5c-118 4 -212 73 -218 190c-9 156 125 284 295 284c139 0 233 -91 240 -216c5 -96 -39 -180 -120 -273l-194 -223h-216zM256 454c0 -49 33 -84 88 -84c60 0 112 43 112 119c0 51 -36 82 -89 82c-64 0 -111 -50 -111 -117z" />
    <glyph glyph-name="colon" unicode=":" horiz-adv-x="260" 
d="M116 -6c-54 0 -97 44 -97 98s43 98 97 98s97 -44 97 -98s-43 -98 -97 -98zM168 289c-54 0 -97 44 -97 98s43 98 97 98s97 -44 97 -98s-43 -98 -97 -98z" />
    <glyph glyph-name="semicolon" unicode=";" horiz-adv-x="257" 
d="M165 289c-54 0 -97 44 -97 98s43 98 97 98s97 -44 97 -98s-43 -98 -97 -98zM2 -129l86 126c-42 11 -72 49 -72 95c0 54 43 98 97 98s97 -42 97 -96c0 -32 -15 -65 -42 -103l-84 -120h-82z" />
    <glyph glyph-name="less" unicode="&#x3c;" horiz-adv-x="591" 
d="M51 290l22 125l581 288l-27 -152l-429 -204l357 -203l-25 -142z" />
    <glyph glyph-name="equal" unicode="=" horiz-adv-x="594" 
d="M41 179l22 126h514l-22 -126h-514zM80 399l22 126h514l-22 -126h-514z" />
    <glyph glyph-name="greater" unicode="&#x3e;" horiz-adv-x="590" 
d="M0 2l27 152l429 203l-357 204l25 142l479 -288l-22 -125z" />
    <glyph glyph-name="question" unicode="?" horiz-adv-x="493" 
d="M176 251l8 45c15 85 45 125 121 169c38 22 68 41 68 73c0 26 -22 40 -55 40c-51 0 -83 -34 -96 -90h-151c31 156 139 228 268 228c95 0 197 -46 197 -150c0 -103 -78 -154 -140 -192c-49 -30 -70 -58 -79 -103l-4 -20h-137zM217 -6c-54 0 -97 44 -97 98s43 98 97 98
s97 -44 97 -98s-43 -98 -97 -98z" />
    <glyph glyph-name="at" unicode="@" horiz-adv-x="835" 
d="M631 30l-16 -90c-75 -45 -169 -66 -252 -66c-199 0 -314 140 -314 309c0 247 215 444 470 444c174 0 307 -106 307 -265c0 -186 -162 -309 -258 -309c-47 0 -79 30 -82 68c-42 -54 -97 -78 -145 -78c-69 0 -116 57 -116 142c0 163 123 283 235 283c44 0 84 -21 104 -59
l22 38h85l-88 -251c-13 -37 -13 -61 11 -61c53 0 148 101 148 221s-96 193 -230 193c-202 0 -378 -152 -378 -356c0 -132 79 -241 236 -241c89 0 190 32 261 78zM391 149c56 0 120 74 120 164c0 34 -17 56 -50 56c-56 0 -118 -74 -118 -164c0 -34 18 -56 48 -56z" />
    <glyph glyph-name="A" unicode="A" 
d="M-30 0l385 700h196l139 -700h-189l-24 155h-233l-80 -155h-194zM307 285h151l-35 227z" />
    <glyph glyph-name="B" unicode="B" horiz-adv-x="675" 
d="M35 0l123 700h307c126 0 235 -41 235 -157c0 -70 -43 -146 -140 -181c68 -32 98 -86 98 -147c0 -141 -122 -215 -286 -215h-337zM244 142h128c61 0 102 23 102 81c0 48 -35 67 -89 67h-115zM293 422h124c57 0 95 20 95 74c0 45 -32 62 -83 62h-112z" />
    <glyph glyph-name="C" unicode="C" horiz-adv-x="632" 
d="M600 190l-29 -163c-61 -27 -131 -39 -186 -39c-188 0 -320 135 -320 323c0 223 187 401 416 401c78 0 152 -20 204 -42l-28 -152c-47 21 -113 40 -169 40c-134 0 -236 -109 -236 -242c0 -101 59 -174 167 -174c62 0 128 21 181 48z" />
    <glyph glyph-name="D" unicode="D" horiz-adv-x="741" 
d="M245 151h74c59 0 106 17 142 46c55 44 91 114 91 188c0 62 -26 113 -70 141c-23 15 -57 23 -99 23h-68zM35 0l123 700h239c72 0 133 -14 181 -39c99 -52 161 -151 161 -269c0 -130 -71 -245 -176 -316c-70 -48 -160 -76 -258 -76h-270z" />
    <glyph glyph-name="E" unicode="E" horiz-adv-x="631" 
d="M35 0l123 700h541l-26 -152h-358l-21 -115h319l-27 -153h-319l-22 -128h358l-27 -152h-541z" />
    <glyph glyph-name="F" unicode="F" horiz-adv-x="616" 
d="M35 0l123 700h536l-26 -152h-353l-23 -130h318l-27 -153h-318l-47 -265h-183z" />
    <glyph glyph-name="G" unicode="G" horiz-adv-x="781" 
d="M377 264l25 142h381c-1 -17 -3 -34 -5 -50c-9 -69 -29 -131 -59 -184c-66 -115 -180 -184 -325 -184c-198 0 -330 135 -330 323c0 223 187 401 427 401c88 0 183 -20 243 -48l-29 -154c-64 29 -141 48 -213 48c-139 0 -241 -109 -241 -242c0 -98 55 -174 156 -174
c72 0 141 46 166 122h-196z" />
    <glyph glyph-name="H" unicode="H" horiz-adv-x="764" 
d="M35 0l123 700h183l-46 -266h268l46 266h183l-123 -700h-183l50 281h-268l-50 -281h-183z" />
    <glyph glyph-name="I" unicode="I" horiz-adv-x="313" 
d="M35 0l123 700h183l-123 -700h-183z" />
    <glyph glyph-name="J" unicode="J" horiz-adv-x="552" 
d="M0 47l27 154c55 -40 115 -56 162 -56c58 0 92 23 113 59c12 21 19 44 24 70l75 426h184l-74 -415c-9 -49 -18 -84 -31 -117c-43 -107 -130 -180 -268 -180c-78 0 -160 23 -212 59z" />
    <glyph glyph-name="K" unicode="K" horiz-adv-x="670" 
d="M35 0l123 700h183l-54 -309l239 309h233l-291 -340l191 -360h-218l-163 342l-60 -342h-183z" />
    <glyph glyph-name="L" unicode="L" horiz-adv-x="635" 
d="M35 0l123 700h183l-96 -548h361l-27 -152h-544z" />
    <glyph glyph-name="M" unicode="M" horiz-adv-x="872" 
d="M35 0l123 700h180l126 -337l244 337h192l-123 -700h-178l72 411h-1l-251 -342h-3l-130 342h-1l-72 -411h-178z" />
    <glyph glyph-name="N" unicode="N" horiz-adv-x="756" 
d="M35 0l123 700h188l191 -414l72 414h175l-123 -700h-187l-190 415l-73 -415h-176z" />
    <glyph glyph-name="O" unicode="O" horiz-adv-x="815" 
d="M392 -12c-193 0 -327 139 -327 319c0 222 198 405 419 405c192 0 327 -138 327 -319c0 -222 -198 -405 -419 -405zM406 142c118 0 218 117 218 244c0 98 -61 172 -154 172c-112 0 -218 -109 -218 -243c0 -100 60 -173 154 -173z" />
    <glyph glyph-name="P" unicode="P" horiz-adv-x="668" 
d="M35 0l123 700h281c143 0 255 -61 255 -205c0 -187 -144 -266 -313 -266h-123l-40 -229h-183zM285 380h118c61 0 105 29 105 98c0 52 -34 72 -84 72h-109z" />
    <glyph glyph-name="Q" unicode="Q" horiz-adv-x="815" 
d="M551 -95l-48 98c-36 -9 -73 -15 -111 -15c-193 0 -327 139 -327 319c0 222 198 405 419 405c192 0 327 -138 327 -319c0 -134 -72 -254 -178 -328l46 -94zM435 144l-57 119l128 66l54 -112c39 45 64 106 64 169c0 98 -61 172 -154 172c-112 0 -218 -109 -218 -243
c0 -100 60 -173 154 -173c10 0 19 1 29 2z" />
    <glyph glyph-name="R" unicode="R" horiz-adv-x="702" 
d="M35 0l123 700h295c51 0 91 -7 129 -22c71 -28 115 -86 115 -171c0 -64 -23 -114 -62 -155c-22 -23 -50 -43 -88 -62l100 -290h-203l-74 253h-106l-45 -253h-184zM289 399h120c21 0 39 3 55 10c29 13 47 37 47 75c0 27 -11 46 -31 56c-14 7 -31 11 -52 11h-112z" />
    <glyph glyph-name="S" unicode="S" horiz-adv-x="618" 
d="M23 50l26 149c73 -46 158 -63 226 -63c89 0 138 29 138 79c0 46 -42 61 -94 78c-123 40 -221 83 -221 210c0 152 136 209 278 209c79 0 173 -17 250 -49l-27 -153c-87 39 -169 54 -222 54c-58 0 -93 -18 -93 -55s35 -50 100 -71c108 -35 215 -77 215 -211
c0 -151 -143 -239 -321 -239c-83 0 -178 19 -255 62z" />
    <glyph glyph-name="T" unicode="T" horiz-adv-x="681" 
d="M218 0l97 548h-224l27 152h631l-27 -152h-224l-97 -548h-183z" />
    <glyph glyph-name="U" unicode="U" horiz-adv-x="745" 
d="M84 308l69 392h183l-69 -389c-3 -17 -6 -36 -6 -56c0 -59 28 -115 113 -115c79 0 117 49 138 115c6 18 10 38 14 61l68 384h184l-68 -387c-6 -33 -13 -62 -21 -88c-46 -143 -146 -237 -327 -237c-176 0 -284 91 -284 251c0 22 2 45 6 69z" />
    <glyph glyph-name="V" unicode="V" horiz-adv-x="700" 
d="M232 0l-139 700h185l73 -483l243 483h199l-385 -700h-176z" />
    <glyph glyph-name="W" unicode="W" horiz-adv-x="975" 
d="M153 0l-55 700h190l12 -457h4l185 457h176l22 -457h5l174 457h197l-300 -700h-197l-23 471h-4l-189 -471h-197z" />
    <glyph glyph-name="X" unicode="X" horiz-adv-x="714" 
d="M-35 0l302 364l-158 336h208l86 -221l167 221h220l-276 -336l175 -364h-208l-105 252l-192 -252h-219z" />
    <glyph glyph-name="Y" unicode="Y" horiz-adv-x="690" 
d="M224 0l50 286l-196 414h202l105 -263h2l197 263h214l-342 -414l-50 -286h-182z" />
    <glyph glyph-name="Z" unicode="Z" horiz-adv-x="672" 
d="M-14 0v2l419 546h-305l26 152h613v-2l-417 -546h322l-27 -152h-631z" />
    <glyph glyph-name="bracketleft" unicode="[" horiz-adv-x="356" 
d="M-16 -201l179 1016h286l-19 -109h-128l-141 -798h128l-19 -109h-286z" />
    <glyph glyph-name="backslash" unicode="\" horiz-adv-x="394" 
d="M213 -40l-118 780h147l118 -780h-147z" />
    <glyph glyph-name="bracketright" unicode="]" horiz-adv-x="357" 
d="M-45 -201l19 109h128l141 798h-128l19 109h286l-179 -1016h-286z" />
    <glyph glyph-name="asciicircum" unicode="^" horiz-adv-x="528" 
d="M40 345l241 367h156l111 -367h-148l-60 237l-144 -237h-156z" />
    <glyph glyph-name="underscore" unicode="_" horiz-adv-x="515" 
d="M-55 -147l22 126h514l-22 -126h-514z" />
    <glyph glyph-name="grave" unicode="`" horiz-adv-x="500" 
d="M303 564l-158 166v7h177l94 -173h-113z" />
    <glyph glyph-name="a" unicode="a" horiz-adv-x="602" 
d="M362 0l8 49c-39 -37 -87 -61 -147 -61c-115 0 -181 89 -181 209c0 172 107 315 259 315c56 0 104 -24 132 -54l8 42h169l-88 -500h-160zM284 121c63 0 121 69 121 162c0 58 -29 96 -75 96c-63 0 -120 -69 -120 -162c0 -58 28 -96 74 -96z" />
    <glyph glyph-name="b" unicode="b" horiz-adv-x="603" 
d="M20 0l123 700h170l-42 -238c37 31 82 50 136 50c114 0 181 -89 181 -209c0 -172 -108 -315 -262 -315c-65 0 -113 24 -138 60l-8 -48h-160zM300 121c63 0 120 69 120 162c0 58 -28 96 -74 96c-63 0 -121 -69 -121 -162c0 -58 29 -96 75 -96z" />
    <glyph glyph-name="c" unicode="c" horiz-adv-x="506" 
d="M474 168l-24 -140c-59 -31 -116 -40 -164 -40c-160 0 -242 99 -242 227c0 167 138 297 306 297c57 0 122 -15 177 -42l-23 -132c-47 28 -98 41 -139 41c-92 0 -151 -66 -151 -151c0 -67 37 -107 113 -107c43 0 90 13 147 47z" />
    <glyph glyph-name="d" unicode="d" horiz-adv-x="602" 
d="M362 0l8 49c-39 -37 -87 -61 -147 -61c-115 0 -181 89 -181 209c0 172 107 315 259 315c56 0 104 -24 132 -54l42 242h170l-123 -700h-160zM284 121c63 0 121 69 121 162c0 58 -29 96 -75 96c-63 0 -120 -69 -120 -162c0 -58 28 -96 74 -96z" />
    <glyph glyph-name="e" unicode="e" horiz-adv-x="574" 
d="M268 -12c-138 0 -224 99 -224 228c0 165 138 296 294 296c137 0 224 -98 224 -217c0 -37 -8 -67 -13 -82h-354c0 -8 0 -14 1 -21c7 -51 43 -75 85 -75c40 0 72 19 96 55h157c-51 -110 -146 -184 -266 -184zM221 314h179c2 50 -32 73 -74 73c-44 0 -85 -25 -105 -73z" />
    <glyph glyph-name="f" unicode="f" horiz-adv-x="415" 
d="M77 0l63 360h-92l25 140h92l5 26c23 120 86 201 230 201c36 0 78 -5 96 -9l-24 -137c-6 1 -31 5 -53 5c-36 0 -70 -11 -81 -66l-4 -20h123l-25 -140h-122l-63 -360h-170z" />
    <glyph glyph-name="g" unicode="g" horiz-adv-x="603" 
d="M15 -35h148c1 -51 42 -72 84 -72c60 0 106 43 117 123l6 44c-39 -37 -88 -60 -147 -60c-115 0 -181 87 -181 204c0 168 107 308 259 308c56 0 104 -23 132 -53l8 41h169l-84 -476c-31 -174 -145 -267 -291 -267c-115 0 -225 58 -220 208zM284 130c63 0 121 67 121 158
c0 57 -29 94 -75 94c-63 0 -120 -67 -120 -158c0 -57 28 -94 74 -94z" />
    <glyph glyph-name="h" unicode="h" horiz-adv-x="594" 
d="M20 0l123 700h170l-44 -249c42 36 99 61 158 61c84 0 135 -40 147 -111c5 -29 2 -73 -7 -121l-49 -280h-170l49 280c4 24 6 39 5 51c-3 28 -20 48 -57 48c-58 0 -96 -46 -109 -119l-46 -260h-170z" />
    <glyph glyph-name="i" unicode="i" horiz-adv-x="268" 
d="M20 0l88 500h170l-88 -500h-170zM121 648c0 52 42 94 97 94s98 -42 98 -94s-43 -93 -98 -93s-97 41 -97 93z" />
    <glyph glyph-name="j" unicode="j" horiz-adv-x="288" 
d="M-123 -221l24 136c6 -1 32 -5 53 -5c36 0 71 11 81 66l92 524h171l-94 -529c-22 -122 -87 -201 -231 -201c-36 0 -78 5 -96 9zM142 648c0 52 42 94 97 94s98 -42 98 -94s-43 -93 -98 -93s-97 41 -97 93z" />
    <glyph glyph-name="k" unicode="k" horiz-adv-x="533" 
d="M20 0l123 700h170l-71 -405l156 205h191l-199 -241l134 -259h-184l-107 243l-43 -243h-170z" />
    <glyph glyph-name="l" unicode="l" horiz-adv-x="270" 
d="M20 0l123 700h170l-123 -700h-170z" />
    <glyph glyph-name="m" unicode="m" horiz-adv-x="880" 
d="M20 0l88 500h160l-10 -56c42 44 87 68 152 68c67 0 113 -34 130 -87c44 53 105 87 176 87c80 0 136 -45 145 -111c4 -29 1 -73 -7 -120l-50 -281h-170l50 281c4 23 5 39 4 51c-3 29 -18 47 -48 47c-49 0 -83 -42 -95 -109l-48 -270h-170l50 281c4 23 5 39 4 51
c-3 29 -18 47 -48 47c-51 0 -84 -46 -97 -119l-46 -260h-170z" />
    <glyph glyph-name="n" unicode="n" horiz-adv-x="594" 
d="M20 0l88 500h170l-9 -49c42 36 99 61 158 61c84 0 135 -40 147 -111c5 -29 2 -73 -7 -121l-49 -280h-170l49 280c4 24 6 39 5 51c-3 28 -20 48 -57 48c-58 0 -96 -46 -109 -119l-46 -260h-170z" />
    <glyph glyph-name="o" unicode="o" horiz-adv-x="581" 
d="M274 -12c-140 0 -230 95 -230 227c0 165 136 297 295 297c140 0 230 -95 230 -227c0 -165 -137 -297 -295 -297zM283 121c63 0 121 69 121 162c0 58 -29 96 -75 96c-63 0 -120 -69 -120 -162c0 -58 28 -96 74 -96z" />
    <glyph glyph-name="p" unicode="p" horiz-adv-x="602" 
d="M-16 -200l123 700h160l-8 -49c39 37 87 61 147 61c115 0 181 -89 181 -209c0 -172 -107 -315 -259 -315c-56 0 -104 24 -132 54l-42 -242h-170zM299 121c63 0 120 69 120 162c0 58 -28 96 -74 96c-63 0 -121 -69 -121 -162c0 -58 29 -96 75 -96z" />
    <glyph glyph-name="q" unicode="q" horiz-adv-x="602" 
d="M317 -200l42 238c-37 -31 -82 -50 -136 -50c-114 0 -181 89 -181 209c0 172 108 315 262 315c65 0 113 -24 138 -60l8 48h160l-123 -700h-170zM284 121c63 0 121 69 121 162c0 58 -29 96 -75 96c-63 0 -120 -69 -120 -162c0 -58 28 -96 74 -96z" />
    <glyph glyph-name="r" unicode="r" horiz-adv-x="429" 
d="M20 0l88 500h160l-13 -77c41 58 101 86 172 86c13 0 37 -1 46 -2l-25 -143c-7 1 -16 3 -33 3c-78 0 -130 -35 -162 -93c-15 -26 -27 -69 -35 -116l-28 -158h-170z" />
    <glyph glyph-name="s" unicode="s" horiz-adv-x="487" 
d="M14 37l22 124c59 -36 125 -47 177 -47c64 0 94 17 94 44c0 28 -33 35 -84 44c-94 17 -156 57 -156 145c0 115 109 165 219 165c63 0 145 -16 197 -36l-22 -128c-63 26 -137 38 -180 38c-35 0 -64 -8 -64 -33c0 -26 31 -34 75 -44c81 -19 166 -43 166 -144
c0 -115 -109 -177 -244 -177c-77 0 -149 20 -200 49z" />
    <glyph glyph-name="t" unicode="t" horiz-adv-x="432" 
d="M101 0l63 360h-116l25 140h116l29 164h170l-29 -164h116l-25 -140h-116l-63 -360h-170z" />
    <glyph glyph-name="u" unicode="u" horiz-adv-x="559" 
d="M257 -12c-120 0 -208 69 -208 184c0 14 2 32 5 49l49 279h169l-51 -290c-2 -10 -3 -21 -3 -27c0 -31 14 -62 56 -62c32 0 53 19 65 45c5 10 9 24 11 38l52 296h170l-50 -284c-5 -26 -11 -46 -18 -65c-39 -99 -127 -163 -247 -163z" />
    <glyph glyph-name="v" unicode="v" horiz-adv-x="550" 
d="M156 0l-92 500h163l41 -347l158 347h176l-268 -500h-178z" />
    <glyph glyph-name="w" unicode="w" horiz-adv-x="757" 
d="M95 0l-27 500h155l1 -331h1l128 331h161l12 -331h1l117 331h161l-203 -500h-182l-13 331l-130 -331h-182z" />
    <glyph glyph-name="x" unicode="x" horiz-adv-x="551" 
d="M-40 0l221 254l-121 246h191l52 -146l103 146h201l-207 -246l131 -254h-188l-66 156l-119 -156h-198z" />
    <glyph glyph-name="y" unicode="y" horiz-adv-x="548" 
d="M69 -205l114 218l-120 487h166l58 -301l140 301h174l-261 -490l-116 -221z" />
    <glyph glyph-name="z" unicode="z" horiz-adv-x="526" 
d="M-17 0v2l286 358h-202l25 140h467v-2l-286 -358h219l-25 -140h-484z" />
    <glyph glyph-name="braceleft" unicode="{" horiz-adv-x="448" 
d="M97 3l29 167c11 61 -1 83 -56 83h-36l19 108h36c55 0 75 22 86 83l33 187c24 138 92 184 212 184h121l-19 -109h-72c-50 0 -75 -25 -84 -73l-33 -184c-12 -70 -43 -126 -137 -146l-1 -2c88 -20 99 -76 87 -146l-31 -174c-8 -48 8 -73 58 -73h72l-19 -109h-101
c-120 0 -188 66 -164 204z" />
    <glyph glyph-name="bar" unicode="|" horiz-adv-x="250" 
d="M-11 -200l182 1030h140l-182 -1030h-140z" />
    <glyph glyph-name="braceright" unicode="}" horiz-adv-x="449" 
d="M-45 -201l19 109h72c50 0 75 25 84 73l33 184c12 70 43 126 137 146l1 2c-88 20 -99 76 -87 146l31 174c8 48 -8 73 -58 73h-72l19 109h101c120 0 188 -66 164 -204l-29 -167c-11 -61 1 -83 56 -83h36l-19 -108h-36c-55 0 -75 -22 -86 -83l-33 -187
c-24 -138 -92 -184 -212 -184h-121z" />
    <glyph glyph-name="asciitilde" unicode="~" horiz-adv-x="607" 
d="M153 255l-96 42c26 112 89 167 167 167c99 0 147 -88 216 -88c34 0 62 22 78 86l96 -42c-26 -112 -89 -167 -167 -167c-99 0 -147 88 -216 88c-34 0 -62 -22 -78 -86z" />
    <glyph glyph-name="DEL" horiz-adv-x="0" 
 />
    <glyph glyph-name="uni00A0" unicode="&#xa0;" horiz-adv-x="230" 
 />
    <glyph glyph-name="exclamdown" unicode="&#xa1;" horiz-adv-x="276" 
d="M-22 -194l105 450h142l-55 -450h-192zM181 316c-54 0 -97 44 -97 98s43 98 97 98s97 -44 97 -98s-43 -98 -97 -98z" />
    <glyph glyph-name="cent" unicode="&#xa2;" horiz-adv-x="505" 
d="M238 -92l17 92c-139 12 -210 106 -210 225c0 166 136 295 302 297l16 90h63l-17 -95c40 -6 82 -19 119 -37l-22 -123c-40 24 -81 38 -118 43l-50 -283c40 4 84 19 136 52l-23 -131c-47 -25 -93 -36 -134 -39l-16 -91h-63zM277 122l49 278c-77 -15 -125 -82 -125 -165
c0 -59 25 -100 76 -113z" />
    <glyph glyph-name="sterling" unicode="&#xa3;" horiz-adv-x="590" 
d="M38 0l25 140h5c80 0 111 60 111 116c0 14 -2 29 -4 42h-132l21 121h84c-2 14 -4 33 -4 54c0 172 141 239 280 239c63 0 140 -14 210 -47l-25 -146c-77 42 -139 54 -188 54c-78 0 -123 -30 -123 -103c0 -15 2 -36 7 -51h201l-21 -121h-148c-1 -11 -1 -26 -3 -39
c-7 -46 -40 -92 -81 -119h302l-25 -140h-492z" />
    <glyph glyph-name="yen" unicode="&#xa5;" 
d="M55 135l16 90h212l12 69h-212l17 95h157l-149 311h197l98 -243h2l184 243h209l-260 -311h158l-17 -95h-212l-12 -69h212l-16 -90h-212l-24 -135h-172l24 135h-212z" />
    <glyph glyph-name="brokenbar" unicode="&#xa6;" horiz-adv-x="250" 
d="M91 380l80 450h140l-80 -450h-140zM-11 -200l78 440h140l-78 -440h-140z" />
    <glyph glyph-name="section" unicode="&#xa7;" horiz-adv-x="564" 
d="M51 -57l21 117c61 -30 125 -43 176 -43c57 0 99 16 99 52c0 33 -32 51 -89 65c-93 23 -199 50 -199 147c0 68 47 120 133 149c-41 30 -65 62 -65 114c0 123 122 168 235 168c61 0 139 -12 199 -38l-21 -117c-62 30 -126 43 -177 43c-55 0 -98 -15 -98 -52
c0 -35 36 -52 88 -65c93 -23 198 -50 198 -147c0 -69 -48 -121 -133 -149c40 -28 66 -61 66 -115c0 -123 -125 -167 -236 -167c-60 0 -139 12 -197 38zM291 240c73 -5 121 34 121 72c0 33 -35 50 -93 65c-71 4 -120 -34 -120 -73c0 -32 33 -50 92 -64z" />
    <glyph glyph-name="dieresis" unicode="&#xa8;" horiz-adv-x="497" 
d="M149 643c0 42 34 75 78 75s78 -33 78 -75s-34 -75 -78 -75s-78 33 -78 75zM358 643c0 42 34 75 78 75s78 -33 78 -75s-34 -75 -78 -75s-78 33 -78 75z" />
    <glyph glyph-name="copyright" unicode="&#xa9;" horiz-adv-x="812" 
d="M376 48c183 0 364 157 364 347c0 145 -94 257 -243 257c-184 0 -364 -157 -364 -347c0 -145 94 -257 243 -257zM373 -12c-179 0 -303 136 -303 309c0 226 207 415 431 415c179 0 303 -136 303 -309c0 -226 -208 -415 -431 -415zM584 284l-19 -110
c-55 -25 -105 -35 -145 -35c-113 0 -182 76 -182 178c0 135 113 244 256 244c40 0 87 -10 133 -35l-20 -110c-39 27 -76 38 -110 38c-78 0 -125 -52 -125 -124c0 -51 30 -84 88 -84c34 0 75 11 124 38z" />
    <glyph glyph-name="ordfeminine" unicode="&#xaa;" horiz-adv-x="400" 
d="M289 379l5 29c-25 -24 -55 -36 -92 -36c-71 0 -117 61 -117 136c0 107 65 192 162 192c42 0 74 -17 92 -37l5 30h112l-55 -314h-112zM244 466c35 0 69 36 69 87c0 33 -17 53 -41 53c-35 0 -69 -36 -69 -87c0 -33 17 -53 41 -53z" />
    <glyph glyph-name="guillemotleft" unicode="&#xab;" horiz-adv-x="461" 
d="M201 19l-164 196l15 87l234 196h2l-24 -133l-123 -112l84 -111l-22 -123h-2zM401 19l-164 196l15 87l234 196h2l-24 -133l-123 -112l84 -111l-22 -123h-2z" />
    <glyph glyph-name="logicalnot" unicode="&#xac;" horiz-adv-x="674" 
d="M58 389l22 126h604l-66 -375h-126l44 249h-478z" />
    <glyph glyph-name="registered" unicode="&#xae;" horiz-adv-x="589" 
d="M297 188c-131 0 -221 96 -221 223c0 166 149 301 314 301c131 0 221 -96 221 -223c0 -166 -149 -301 -314 -301zM300 238c131 0 255 109 255 245c0 102 -64 179 -169 179c-131 0 -255 -109 -255 -245c0 -102 63 -179 169 -179zM215 309l50 280h105c17 0 33 -2 47 -6
c32 -9 53 -31 53 -69c0 -28 -13 -52 -30 -68c-9 -9 -20 -16 -31 -21l40 -116h-76l-29 103h-40l-19 -103h-70zM314 469h36c23 0 49 9 49 37c0 20 -16 27 -38 27h-36z" />
    <glyph glyph-name="macron" unicode="&#xaf;" horiz-adv-x="500" 
d="M137 579l18 103h370l-18 -103h-370z" />
    <glyph glyph-name="degree" unicode="&#xb0;" horiz-adv-x="352" 
d="M244 403c-83 0 -149 67 -149 154c0 88 66 155 149 155s149 -67 149 -155c0 -87 -66 -154 -149 -154zM244 496c33 0 57 26 57 61c0 36 -24 62 -57 62s-57 -26 -57 -62c0 -35 24 -61 57 -61z" />
    <glyph glyph-name="plusminus" unicode="&#xb1;" horiz-adv-x="684" 
d="M76 374l22 126h239l34 194h126l-34 -194h239l-22 -126h-239l-34 -194h-126l34 194h-239zM10 0l22 126h604l-22 -126h-604z" />
    <glyph glyph-name="twosuperior" unicode="&#xb2;" horiz-adv-x="359" 
d="M79 340l13 72l154 121c26 21 43 41 43 63c0 17 -10 27 -30 27c-24 0 -44 -19 -55 -54h-96c20 84 76 137 163 137c71 0 125 -40 125 -102c0 -55 -39 -99 -91 -134l-68 -46h130l-15 -84h-273z" />
    <glyph glyph-name="threesuperior" unicode="&#xb3;" horiz-adv-x="356" 
d="M88 463h96c-3 -29 17 -48 44 -48c26 0 50 17 50 41c0 17 -15 31 -47 31h-23l13 72h17c35 0 55 20 55 40c0 17 -14 26 -31 26c-25 0 -44 -19 -50 -44h-101c15 76 79 125 164 125c73 0 125 -39 125 -90c0 -33 -23 -71 -70 -91c36 -16 51 -44 51 -72
c0 -70 -71 -119 -160 -119c-86 0 -146 51 -133 129z" />
    <glyph glyph-name="acute" unicode="&#xb4;" horiz-adv-x="501" 
d="M237 564l94 173h177v-7l-158 -166h-113z" />
    <glyph glyph-name="mu" unicode="&#xb5;" horiz-adv-x="569" 
d="M-11 -200l123 700h170l-51 -290c-2 -10 -3 -21 -3 -27c0 -31 14 -62 56 -62c32 0 53 19 65 45c5 10 9 24 11 38l52 296h170l-49 -279c-8 -43 -17 -71 -33 -101c-41 -77 -114 -132 -210 -132c-33 0 -72 7 -95 17l-36 -205h-170z" />
    <glyph glyph-name="paragraph" unicode="&#xb6;" horiz-adv-x="605" 
d="M205 -100l77 437h-10c-101 0 -180 44 -180 149c0 152 115 214 244 214h312l-141 -800h-105l125 710h-82l-125 -710h-115z" />
    <glyph glyph-name="periodcentered" unicode="&#xb7;" horiz-adv-x="260" 
d="M162 254c-54 0 -97 44 -97 98s43 98 97 98s97 -44 97 -98s-43 -98 -97 -98z" />
    <glyph glyph-name="cedilla" unicode="&#xb8;" horiz-adv-x="499" 
d="M94 -234l10 58c15 -8 37 -14 57 -14c38 0 57 25 57 51c0 24 -17 40 -50 40c-10 0 -22 -1 -33 -5l-4 4l32 100h56l-14 -50c50 -4 92 -34 92 -85c0 -64 -57 -115 -128 -115c-29 0 -57 7 -75 16z" />
    <glyph glyph-name="onesuperior" unicode="&#xb9;" horiz-adv-x="243" 
d="M121 340l48 271h-71l16 89h177l-64 -360h-106z" />
    <glyph glyph-name="ordmasculine" unicode="&#xba;" horiz-adv-x="389" 
d="M230 372c-86 0 -144 60 -144 140c0 104 95 188 202 188c85 0 143 -60 143 -140c0 -104 -95 -188 -201 -188zM244 466c36 0 70 37 70 88c0 21 -12 52 -42 52c-36 0 -70 -37 -70 -88c0 -21 12 -52 42 -52z" />
    <glyph glyph-name="guillemotright" unicode="&#xbb;" horiz-adv-x="461" 
d="M203 19l24 133l123 111l-84 112l21 123h2l165 -196l-15 -87l-234 -196h-2zM3 19l24 133l123 111l-84 112l21 123h2l165 -196l-15 -87l-234 -196h-2z" />
    <glyph glyph-name="onequarter" unicode="&#xbc;" horiz-adv-x="688" 
d="M315 70l12 66l203 223h112l-36 -206h49l-15 -83h-49l-12 -70h-101l12 70h-175zM439 153h66l17 95zM122 340l48 271h-71l15 89h177l-63 -360h-106zM53 0l529 700h93l-529 -700h-93z" />
    <glyph glyph-name="onehalf" unicode="&#xbd;" horiz-adv-x="710" 
d="M34 0l529 700h93l-529 -700h-93zM122 340l48 271h-71l15 89h177l-63 -360h-106zM364 0l13 72l154 121c26 21 43 41 43 63c0 17 -10 27 -30 27c-24 0 -44 -19 -55 -54h-96c20 84 76 137 163 137c71 0 125 -40 125 -102c0 -55 -39 -99 -91 -134l-68 -46h130l-15 -84h-273z
" />
    <glyph glyph-name="threequarters" unicode="&#xbe;" horiz-adv-x="760" 
d="M88 463h96c-3 -29 17 -48 44 -48c26 0 50 17 50 41c0 17 -15 31 -47 31h-23l13 72h17c35 0 55 20 55 40c0 17 -14 26 -31 26c-25 0 -44 -19 -50 -44h-101c15 76 79 125 164 125c73 0 125 -39 125 -90c0 -33 -23 -71 -70 -91c36 -16 51 -44 51 -72
c0 -70 -71 -119 -160 -119c-86 0 -146 51 -133 129zM131 0l530 700h93l-530 -700h-93zM385 70l12 66l203 223h112l-36 -206h49l-15 -83h-49l-12 -70h-101l12 70h-175zM509 153h66l17 95z" />
    <glyph glyph-name="questiondown" unicode="&#xbf;" horiz-adv-x="493" 
d="M300 18h151c-31 -156 -139 -228 -268 -228c-95 0 -197 46 -197 150c0 103 78 154 140 192c49 30 70 58 79 103l4 20h137l-8 -45c-15 -85 -45 -125 -121 -169c-38 -22 -68 -41 -68 -73c0 -26 22 -40 55 -40c51 0 83 34 96 90zM305 316c-54 0 -97 44 -97 98s43 98 97 98
s97 -44 97 -98s-43 -98 -97 -98z" />
    <glyph glyph-name="Agrave" unicode="&#xc0;" 
d="M-30 0l385 700h196l139 -700h-189l-24 155h-233l-80 -155h-194zM307 285h151l-35 227zM435 754l-158 166v7h177l94 -173h-113z" />
    <glyph glyph-name="Aacute" unicode="&#xc1;" 
d="M-30 0l385 700h196l139 -700h-189l-24 155h-233l-80 -155h-194zM307 285h151l-35 227zM390 754l94 173h177v-7l-158 -166h-113z" />
    <glyph glyph-name="Acircumflex" unicode="&#xc2;" 
d="M-30 0l385 700h196l139 -700h-189l-24 155h-233l-80 -155h-194zM307 285h151l-35 227zM256 744l187 177h98l125 -177h-89l-97 77l-125 -77h-99z" />
    <glyph glyph-name="Atilde" unicode="&#xc3;" 
d="M-30 0l385 700h196l139 -700h-189l-24 155h-233l-80 -155h-194zM307 285h151l-35 227zM341 758l-78 25c16 92 69 137 127 137c71 0 110 -62 160 -62c25 0 45 16 56 60l78 -25c-16 -92 -69 -137 -127 -137c-71 0 -110 62 -160 62c-25 0 -45 -16 -56 -60z" />
    <glyph glyph-name="Adieresis" unicode="&#xc4;" 
d="M-30 0l385 700h196l139 -700h-189l-24 155h-233l-80 -155h-194zM307 285h151l-35 227zM291 833c0 42 34 75 78 75s78 -33 78 -75s-34 -75 -78 -75s-78 33 -78 75zM500 833c0 42 34 75 78 75s78 -33 78 -75s-34 -75 -78 -75s-78 33 -78 75z" />
    <glyph glyph-name="Aring" unicode="&#xc5;" 
d="M-30 0l391 711c-22 24 -34 57 -34 93c0 86 73 157 158 157c77 0 133 -60 133 -135c0 -53 -27 -100 -68 -128l140 -698h-189l-24 155h-233l-80 -155h-194zM307 285h151l-35 230zM467 750c36 0 67 31 67 70c0 34 -24 60 -56 60c-36 0 -67 -31 -67 -70c0 -34 24 -60 56 -60z
" />
    <glyph glyph-name="AE" unicode="&#xc6;" horiz-adv-x="1046" 
d="M-45 0l507 700h652l-26 -152h-338l-21 -115h299l-27 -153h-299l-22 -128h338l-27 -152h-521l27 155h-224l-107 -155h-211zM359 285h161l47 263h-27z" />
    <glyph glyph-name="Ccedilla" unicode="&#xc7;" horiz-adv-x="632" 
d="M216 -234l10 58c15 -8 37 -14 57 -14c38 0 57 25 57 51c0 24 -17 40 -50 40c-10 0 -22 -1 -33 -5l-4 4l32 102c-133 39 -220 156 -220 309c0 223 187 401 416 401c78 0 152 -20 204 -42l-28 -152c-47 21 -113 40 -169 40c-134 0 -236 -109 -236 -242
c0 -101 59 -174 167 -174c62 0 128 21 181 48l-29 -163c-61 -27 -131 -39 -186 -39c-16 0 -32 1 -47 3l-11 -41c50 -4 92 -34 92 -85c0 -64 -57 -115 -128 -115c-29 0 -57 7 -75 16z" />
    <glyph glyph-name="Egrave" unicode="&#xc8;" horiz-adv-x="631" 
d="M35 0l123 700h541l-26 -152h-358l-21 -115h319l-27 -153h-319l-22 -128h358l-27 -152h-541zM419 764l-158 166v7h177l94 -173h-113z" />
    <glyph glyph-name="Eacute" unicode="&#xc9;" horiz-adv-x="631" 
d="M35 0l123 700h541l-26 -152h-358l-21 -115h319l-27 -153h-319l-22 -128h358l-27 -152h-541zM373 764l94 173h177v-7l-158 -166h-113z" />
    <glyph glyph-name="Ecircumflex" unicode="&#xca;" horiz-adv-x="631" 
d="M35 0l123 700h541l-26 -152h-358l-21 -115h319l-27 -153h-319l-22 -128h358l-27 -152h-541zM235 758l187 177h98l125 -177h-89l-97 77l-125 -77h-99z" />
    <glyph glyph-name="Edieresis" unicode="&#xcb;" horiz-adv-x="631" 
d="M35 0l123 700h541l-26 -152h-358l-21 -115h319l-27 -153h-319l-22 -128h358l-27 -152h-541zM273 843c0 42 34 75 78 75s78 -33 78 -75s-34 -75 -78 -75s-78 33 -78 75zM482 843c0 42 34 75 78 75s78 -33 78 -75s-34 -75 -78 -75s-78 33 -78 75z" />
    <glyph glyph-name="Igrave" unicode="&#xcc;" horiz-adv-x="313" 
d="M35 0l123 700h183l-123 -700h-183zM234 764l-158 166v7h177l94 -173h-113z" />
    <glyph glyph-name="Iacute" unicode="&#xcd;" horiz-adv-x="313" 
d="M35 0l123 700h183l-123 -700h-183zM190 764l94 173h177v-7l-158 -166h-113z" />
    <glyph glyph-name="Icircumflex" unicode="&#xce;" horiz-adv-x="313" 
d="M35 0l123 700h183l-123 -700h-183zM53 748l187 177h98l125 -177h-89l-97 77l-125 -77h-99z" />
    <glyph glyph-name="Idieresis" unicode="&#xcf;" horiz-adv-x="313" 
d="M80 843c0 42 34 75 78 75s78 -33 78 -75s-34 -75 -78 -75s-78 33 -78 75zM289 843c0 42 34 75 78 75s78 -33 78 -75s-34 -75 -78 -75s-78 33 -78 75zM35 0l123 700h183l-123 -700h-183z" />
    <glyph glyph-name="Eth" unicode="&#xd0;" horiz-adv-x="795" 
d="M89 0l55 312h-104l17 95h103l52 293h239c72 0 133 -14 181 -39c99 -52 161 -151 161 -269c0 -130 -71 -245 -176 -316c-70 -48 -160 -76 -258 -76h-270zM299 151h74c59 0 106 17 142 46c55 44 91 114 91 188c0 62 -26 113 -70 141c-23 15 -57 23 -99 23h-68l-25 -142h121
l-17 -95h-121z" />
    <glyph glyph-name="Ntilde" unicode="&#xd1;" horiz-adv-x="756" 
d="M35 0l123 700h188l191 -414l72 414h175l-123 -700h-187l-190 415l-73 -415h-176zM365 758l-78 25c16 92 69 137 127 137c71 0 110 -62 160 -62c25 0 45 16 56 60l78 -25c-16 -92 -69 -137 -127 -137c-71 0 -110 62 -160 62c-25 0 -45 -16 -56 -60z" />
    <glyph glyph-name="Ograve" unicode="&#xd2;" horiz-adv-x="815" 
d="M392 -12c-193 0 -327 139 -327 319c0 222 198 405 419 405c192 0 327 -138 327 -319c0 -222 -198 -405 -419 -405zM406 142c118 0 218 117 218 244c0 98 -61 172 -154 172c-112 0 -218 -109 -218 -243c0 -100 60 -173 154 -173zM497 764l-158 166v7h177l94 -173h-113z
" />
    <glyph glyph-name="Oacute" unicode="&#xd3;" horiz-adv-x="815" 
d="M392 -12c-193 0 -327 139 -327 319c0 222 198 405 419 405c192 0 327 -138 327 -319c0 -222 -198 -405 -419 -405zM406 142c118 0 218 117 218 244c0 98 -61 172 -154 172c-112 0 -218 -109 -218 -243c0 -100 60 -173 154 -173zM430 764l94 173h177v-7l-158 -166h-113z
" />
    <glyph glyph-name="Ocircumflex" unicode="&#xd4;" horiz-adv-x="815" 
d="M392 -12c-193 0 -327 139 -327 319c0 222 198 405 419 405c192 0 327 -138 327 -319c0 -222 -198 -405 -419 -405zM406 142c118 0 218 117 218 244c0 98 -61 172 -154 172c-112 0 -218 -109 -218 -243c0 -100 60 -173 154 -173zM306 758l187 177h98l125 -177h-89l-97 77
l-125 -77h-99z" />
    <glyph glyph-name="Otilde" unicode="&#xd5;" horiz-adv-x="815" 
d="M392 -12c-193 0 -327 139 -327 319c0 222 198 405 419 405c192 0 327 -138 327 -319c0 -222 -198 -405 -419 -405zM406 142c118 0 218 117 218 244c0 98 -61 172 -154 172c-112 0 -218 -109 -218 -243c0 -100 60 -173 154 -173zM392 758l-78 25c16 92 69 137 127 137
c71 0 110 -62 160 -62c25 0 45 16 56 60l78 -25c-16 -92 -69 -137 -127 -137c-71 0 -110 62 -160 62c-25 0 -45 -16 -56 -60z" />
    <glyph glyph-name="Odieresis" unicode="&#xd6;" horiz-adv-x="815" 
d="M392 -12c-193 0 -327 139 -327 319c0 222 198 405 419 405c192 0 327 -138 327 -319c0 -222 -198 -405 -419 -405zM406 142c118 0 218 117 218 244c0 98 -61 172 -154 172c-112 0 -218 -109 -218 -243c0 -100 60 -173 154 -173zM340 838c0 42 34 75 78 75s78 -33 78 -75
s-34 -75 -78 -75s-78 33 -78 75zM549 838c0 42 34 75 78 75s78 -33 78 -75s-34 -75 -78 -75s-78 33 -78 75z" />
    <glyph glyph-name="multiply" unicode="&#xd7;" horiz-adv-x="624" 
d="M96 63l-77 92l238 203l-162 197l95 82l163 -197l239 202l77 -92l-240 -202l162 -198l-95 -82l-162 198z" />
    <glyph glyph-name="Oslash" unicode="&#xd8;" horiz-adv-x="815" 
d="M22 -12l115 113c-46 55 -72 126 -72 206c0 222 198 405 419 405c80 0 151 -25 206 -66l67 66h105l-119 -118c43 -54 68 -124 68 -201c0 -222 -198 -405 -419 -405c-79 0 -148 23 -202 62l-63 -62h-105zM268 230l298 294c-26 21 -58 34 -96 34c-112 0 -218 -109 -218 -243
c0 -31 5 -60 16 -85zM610 463l-296 -291c24 -19 56 -30 92 -30c118 0 218 117 218 244c0 28 -5 54 -14 77z" />
    <glyph glyph-name="Ugrave" unicode="&#xd9;" horiz-adv-x="745" 
d="M84 308l69 392h183l-69 -389c-3 -17 -6 -36 -6 -56c0 -59 28 -115 113 -115c79 0 117 49 138 115c6 18 10 38 14 61l68 384h184l-68 -387c-6 -33 -13 -62 -21 -88c-46 -143 -146 -237 -327 -237c-176 0 -284 91 -284 251c0 22 2 45 6 69zM437 754l-158 166v7h177l94 -173
h-113z" />
    <glyph glyph-name="Uacute" unicode="&#xda;" horiz-adv-x="745" 
d="M84 308l69 392h183l-69 -389c-3 -17 -6 -36 -6 -56c0 -59 28 -115 113 -115c79 0 117 49 138 115c6 18 10 38 14 61l68 384h184l-68 -387c-6 -33 -13 -62 -21 -88c-46 -143 -146 -237 -327 -237c-176 0 -284 91 -284 251c0 22 2 45 6 69zM393 754l94 173h177v-7
l-158 -166h-113z" />
    <glyph glyph-name="Ucircumflex" unicode="&#xdb;" horiz-adv-x="745" 
d="M84 308l69 392h183l-69 -389c-3 -17 -6 -36 -6 -56c0 -59 28 -115 113 -115c79 0 117 49 138 115c6 18 10 38 14 61l68 384h184l-68 -387c-6 -33 -13 -62 -21 -88c-46 -143 -146 -237 -327 -237c-176 0 -284 91 -284 251c0 22 2 45 6 69zM269 748l187 177h98l125 -177
h-89l-97 77l-125 -77h-99z" />
    <glyph glyph-name="Udieresis" unicode="&#xdc;" horiz-adv-x="745" 
d="M84 308l69 392h183l-69 -389c-3 -17 -6 -36 -6 -56c0 -59 28 -115 113 -115c79 0 117 49 138 115c6 18 10 38 14 61l68 384h184l-68 -387c-6 -33 -13 -62 -21 -88c-46 -143 -146 -237 -327 -237c-176 0 -284 91 -284 251c0 22 2 45 6 69zM304 838c0 42 34 75 78 75
s78 -33 78 -75s-34 -75 -78 -75s-78 33 -78 75zM513 838c0 42 34 75 78 75s78 -33 78 -75s-34 -75 -78 -75s-78 33 -78 75z" />
    <glyph glyph-name="Yacute" unicode="&#xdd;" horiz-adv-x="690" 
d="M224 0l50 286l-196 414h202l105 -263h2l197 263h214l-342 -414l-50 -286h-182zM371 749l94 173h177v-7l-158 -166h-113z" />
    <glyph glyph-name="Thorn" unicode="&#xde;" horiz-adv-x="668" 
d="M35 0l123 700h183l-19 -112h98c143 0 255 -61 255 -205c0 -187 -144 -266 -313 -266h-123l-21 -117h-183zM266 268h118c61 0 105 29 105 98c0 52 -34 72 -84 72h-109z" />
    <glyph glyph-name="germandbls" unicode="&#xdf;" horiz-adv-x="666" 
d="M64 -100l81 460h-92l25 140h93c34 134 125 212 273 212c113 0 208 -64 208 -158c0 -70 -50 -142 -133 -172c81 -32 125 -86 125 -160c0 -143 -125 -240 -275 -240c-30 0 -69 4 -82 6l24 134s22 -4 42 -4c77 0 128 44 128 113c0 59 -52 84 -136 84l22 122
c79 0 118 40 118 90c0 33 -21 54 -58 54c-48 0 -79 -34 -90 -96l-103 -585h-170z" />
    <glyph glyph-name="agrave" unicode="&#xe0;" horiz-adv-x="603" 
d="M362 0l8 49c-39 -37 -87 -61 -147 -61c-115 0 -181 89 -181 209c0 172 107 315 259 315c56 0 104 -24 132 -54l8 42h169l-88 -500h-160zM284 121c63 0 121 69 121 162c0 58 -29 96 -75 96c-63 0 -120 -69 -120 -162c0 -58 28 -96 74 -96zM354 564l-158 166v7h177l94 -173
h-113z" />
    <glyph glyph-name="aacute" unicode="&#xe1;" horiz-adv-x="603" 
d="M362 0l8 49c-39 -37 -87 -61 -147 -61c-115 0 -181 89 -181 209c0 172 107 315 259 315c56 0 104 -24 132 -54l8 42h169l-88 -500h-160zM284 121c63 0 121 69 121 162c0 58 -29 96 -75 96c-63 0 -120 -69 -120 -162c0 -58 28 -96 74 -96zM297 564l94 173h177v-7
l-158 -166h-113z" />
    <glyph glyph-name="acircumflex" unicode="&#xe2;" horiz-adv-x="603" 
d="M362 0l8 49c-39 -37 -87 -61 -147 -61c-115 0 -181 89 -181 209c0 172 107 315 259 315c56 0 104 -24 132 -54l8 42h169l-88 -500h-160zM284 121c63 0 121 69 121 162c0 58 -29 96 -75 96c-63 0 -120 -69 -120 -162c0 -58 28 -96 74 -96zM172 558l187 177h98l125 -177
h-89l-97 77l-125 -77h-99z" />
    <glyph glyph-name="atilde" unicode="&#xe3;" horiz-adv-x="603" 
d="M362 0l8 49c-39 -37 -87 -61 -147 -61c-115 0 -181 89 -181 209c0 172 107 315 259 315c56 0 104 -24 132 -54l8 42h169l-88 -500h-160zM284 121c63 0 121 69 121 162c0 58 -29 96 -75 96c-63 0 -120 -69 -120 -162c0 -58 28 -96 74 -96zM256 563l-78 25
c16 92 69 137 127 137c71 0 110 -62 160 -62c25 0 45 16 56 60l78 -25c-16 -92 -69 -137 -127 -137c-71 0 -110 62 -160 62c-25 0 -45 -16 -56 -60z" />
    <glyph glyph-name="adieresis" unicode="&#xe4;" horiz-adv-x="603" 
d="M362 0l8 49c-39 -37 -87 -61 -147 -61c-115 0 -181 89 -181 209c0 172 107 315 259 315c56 0 104 -24 132 -54l8 42h169l-88 -500h-160zM284 121c63 0 121 69 121 162c0 58 -29 96 -75 96c-63 0 -120 -69 -120 -162c0 -58 28 -96 74 -96zM200 643c0 42 34 75 78 75
s78 -33 78 -75s-34 -75 -78 -75s-78 33 -78 75zM409 643c0 42 34 75 78 75s78 -33 78 -75s-34 -75 -78 -75s-78 33 -78 75z" />
    <glyph glyph-name="aring" unicode="&#xe5;" horiz-adv-x="602" 
d="M362 0l8 49c-39 -37 -87 -61 -147 -61c-115 0 -181 89 -181 209c0 172 107 315 259 315c56 0 104 -24 132 -54l8 42h169l-88 -500h-160zM284 121c63 0 121 69 121 162c0 58 -29 96 -75 96c-63 0 -120 -69 -120 -162c0 -58 28 -96 74 -96zM380 553c-77 0 -133 60 -133 135
c0 86 73 157 158 157c77 0 133 -60 133 -135c0 -86 -73 -157 -158 -157zM387 634c36 0 67 31 67 70c0 34 -24 60 -56 60c-36 0 -67 -31 -67 -70c0 -34 24 -60 56 -60z" />
    <glyph glyph-name="ae" unicode="&#xe6;" horiz-adv-x="925" 
d="M110 347l22 126c60 26 114 39 176 39c83 0 152 -24 188 -86c52 55 118 86 193 86c133 0 221 -98 221 -218c0 -36 -8 -66 -13 -81h-354c-1 -65 38 -96 87 -96c39 0 71 19 95 55h157c-51 -110 -147 -184 -265 -184c-84 0 -144 38 -177 104c-55 -61 -135 -104 -228 -104
c-87 0 -185 38 -185 154c0 87 56 144 135 163c25 6 56 9 90 9h152c-4 47 -51 73 -129 73c-49 0 -101 -10 -165 -40zM386 213h-149c-15 0 -28 -2 -38 -5c-27 -8 -41 -29 -41 -53c0 -35 29 -48 69 -48c70 0 129 40 159 106zM569 314h179c2 50 -32 73 -74 73
c-44 0 -85 -25 -105 -73z" />
    <glyph glyph-name="ccedilla" unicode="&#xe7;" horiz-adv-x="506" 
d="M129 -234l10 58c15 -8 37 -14 57 -14c38 0 57 25 57 51c0 24 -17 40 -50 40c-10 0 -22 -1 -33 -5l-4 4l32 100c-102 29 -154 113 -154 215c0 167 138 297 306 297c57 0 122 -15 177 -42l-23 -132c-47 28 -98 41 -139 41c-92 0 -151 -66 -151 -151c0 -67 37 -107 113 -107
c43 0 90 13 147 47l-24 -140c-59 -31 -116 -40 -164 -40c-12 0 -24 1 -35 2l-11 -40c50 -4 92 -34 92 -85c0 -64 -57 -115 -128 -115c-29 0 -57 7 -75 16z" />
    <glyph glyph-name="egrave" unicode="&#xe8;" horiz-adv-x="578" 
d="M268 -12c-138 0 -224 99 -224 228c0 165 138 296 294 296c137 0 224 -98 224 -217c0 -37 -8 -67 -13 -82h-354c0 -8 0 -14 1 -21c7 -51 43 -75 85 -75c40 0 72 19 96 55h157c-51 -110 -146 -184 -266 -184zM221 314h179c2 50 -32 73 -74 73c-44 0 -85 -25 -105 -73z
M336 564l-158 166v7h177l94 -173h-113z" />
    <glyph glyph-name="eacute" unicode="&#xe9;" horiz-adv-x="578" 
d="M268 -12c-138 0 -224 99 -224 228c0 165 138 296 294 296c137 0 224 -98 224 -217c0 -37 -8 -67 -13 -82h-354c0 -8 0 -14 1 -21c7 -51 43 -75 85 -75c40 0 72 19 96 55h157c-51 -110 -146 -184 -266 -184zM221 314h179c2 50 -32 73 -74 73c-44 0 -85 -25 -105 -73z
M308 564l94 173h177v-7l-158 -166h-113z" />
    <glyph glyph-name="ecircumflex" unicode="&#xea;" horiz-adv-x="578" 
d="M268 -12c-138 0 -224 99 -224 228c0 165 138 296 294 296c137 0 224 -98 224 -217c0 -37 -8 -67 -13 -82h-354c0 -8 0 -14 1 -21c7 -51 43 -75 85 -75c40 0 72 19 96 55h157c-51 -110 -146 -184 -266 -184zM221 314h179c2 50 -32 73 -74 73c-44 0 -85 -25 -105 -73z
M152 558l187 177h98l125 -177h-89l-97 77l-125 -77h-99z" />
    <glyph glyph-name="edieresis" unicode="&#xeb;" horiz-adv-x="578" 
d="M268 -12c-138 0 -224 99 -224 228c0 165 138 296 294 296c137 0 224 -98 224 -217c0 -37 -8 -67 -13 -82h-354c0 -8 0 -14 1 -21c7 -51 43 -75 85 -75c40 0 72 19 96 55h157c-51 -110 -146 -184 -266 -184zM221 314h179c2 50 -32 73 -74 73c-44 0 -85 -25 -105 -73z
M194 643c0 42 34 75 78 75s78 -33 78 -75s-34 -75 -78 -75s-78 33 -78 75zM403 643c0 42 34 75 78 75s78 -33 78 -75s-34 -75 -78 -75s-78 33 -78 75z" />
    <glyph glyph-name="igrave" unicode="&#xec;" horiz-adv-x="270" 
d="M20 0l88 500h170l-88 -500h-170zM171 564l-158 166v7h177l94 -173h-113z" />
    <glyph glyph-name="iacute" unicode="&#xed;" horiz-adv-x="270" 
d="M20 0l88 500h170l-88 -500h-170zM144 564l94 173h177v-7l-158 -166h-113z" />
    <glyph glyph-name="icircumflex" unicode="&#xee;" horiz-adv-x="270" 
d="M20 0l88 500h170l-88 -500h-170zM-2 558l187 177h98l125 -177h-89l-97 77l-125 -77h-99z" />
    <glyph glyph-name="idieresis" unicode="&#xef;" horiz-adv-x="270" 
d="M24 643c0 42 34 75 78 75s78 -33 78 -75s-34 -75 -78 -75s-78 33 -78 75zM233 643c0 42 34 75 78 75s78 -33 78 -75s-34 -75 -78 -75s-78 33 -78 75zM20 0l88 500h170l-88 -500h-170z" />
    <glyph glyph-name="eth" unicode="&#xf0;" horiz-adv-x="584" 
d="M214 533l-22 38l80 48l-35 63l128 74l32 -62l77 46l22 -38l-78 -47l104 -196c29 -54 49 -105 49 -170c0 -167 -139 -301 -297 -301c-140 0 -230 95 -230 227c0 162 131 292 287 297l-38 68zM283 121c63 0 121 69 121 162c0 58 -29 96 -75 96c-63 0 -120 -69 -120 -162
c0 -58 28 -96 74 -96z" />
    <glyph glyph-name="ntilde" unicode="&#xf1;" horiz-adv-x="593" 
d="M20 0l88 500h170l-9 -49c42 36 99 61 158 61c84 0 135 -40 147 -111c5 -29 2 -73 -7 -121l-49 -280h-170l49 280c4 24 6 39 5 51c-3 28 -20 48 -57 48c-58 0 -96 -46 -109 -119l-46 -260h-170zM241 558l-78 25c16 92 69 137 127 137c71 0 110 -62 160 -62
c25 0 45 16 56 60l78 -25c-16 -92 -69 -137 -127 -137c-71 0 -110 62 -160 62c-25 0 -45 -16 -56 -60z" />
    <glyph glyph-name="ograve" unicode="&#xf2;" horiz-adv-x="588" 
d="M274 -12c-140 0 -230 95 -230 227c0 165 136 297 295 297c140 0 230 -95 230 -227c0 -165 -137 -297 -295 -297zM283 121c63 0 121 69 121 162c0 58 -29 96 -75 96c-63 0 -120 -69 -120 -162c0 -58 28 -96 74 -96zM338 564l-158 166v7h177l94 -173h-113z" />
    <glyph glyph-name="oacute" unicode="&#xf3;" horiz-adv-x="588" 
d="M274 -12c-140 0 -230 95 -230 227c0 165 136 297 295 297c140 0 230 -95 230 -227c0 -165 -137 -297 -295 -297zM283 121c63 0 121 69 121 162c0 58 -29 96 -75 96c-63 0 -120 -69 -120 -162c0 -58 28 -96 74 -96zM292 564l94 173h177v-7l-158 -166h-113z" />
    <glyph glyph-name="ocircumflex" unicode="&#xf4;" horiz-adv-x="588" 
d="M274 -12c-140 0 -230 95 -230 227c0 165 136 297 295 297c140 0 230 -95 230 -227c0 -165 -137 -297 -295 -297zM283 121c63 0 121 69 121 162c0 58 -29 96 -75 96c-63 0 -120 -69 -120 -162c0 -58 28 -96 74 -96zM157 553l187 177h98l125 -177h-89l-97 77l-125 -77h-99z
" />
    <glyph glyph-name="otilde" unicode="&#xf5;" horiz-adv-x="588" 
d="M274 -12c-140 0 -230 95 -230 227c0 165 136 297 295 297c140 0 230 -95 230 -227c0 -165 -137 -297 -295 -297zM283 121c63 0 121 69 121 162c0 58 -29 96 -75 96c-63 0 -120 -69 -120 -162c0 -58 28 -96 74 -96zM241 558l-78 25c16 92 69 137 127 137
c71 0 110 -62 160 -62c25 0 45 16 56 60l78 -25c-16 -92 -69 -137 -127 -137c-71 0 -110 62 -160 62c-25 0 -45 -16 -56 -60z" />
    <glyph glyph-name="odieresis" unicode="&#xf6;" horiz-adv-x="588" 
d="M274 -12c-140 0 -230 95 -230 227c0 165 136 297 295 297c140 0 230 -95 230 -227c0 -165 -137 -297 -295 -297zM283 121c63 0 121 69 121 162c0 58 -29 96 -75 96c-63 0 -120 -69 -120 -162c0 -58 28 -96 74 -96zM193 643c0 42 34 75 78 75s78 -33 78 -75
s-34 -75 -78 -75s-78 33 -78 75zM402 643c0 42 34 75 78 75s78 -33 78 -75s-34 -75 -78 -75s-78 33 -78 75z" />
    <glyph glyph-name="divide" unicode="&#xf7;" horiz-adv-x="633" 
d="M55 289l22 126h564l-22 -126h-564zM310 55c-47 0 -86 39 -86 86c0 46 39 86 86 86c46 0 86 -40 86 -86c0 -47 -40 -86 -86 -86zM385 480c-47 0 -86 39 -86 86c0 46 39 86 86 86c46 0 86 -40 86 -86c0 -47 -40 -86 -86 -86z" />
    <glyph glyph-name="oslash" unicode="&#xf8;" horiz-adv-x="592" 
d="M13 -12l79 80c-31 38 -48 89 -48 147c0 165 136 297 295 297c59 0 109 -17 147 -46l46 46h85l-89 -90c26 -37 41 -84 41 -137c0 -165 -137 -297 -295 -297c-54 0 -101 14 -138 39l-38 -39h-85zM211 188l168 170c-12 13 -30 21 -50 21c-63 0 -120 -69 -120 -162
c0 -10 1 -20 2 -29zM403 296l-161 -163c11 -8 25 -12 41 -12c63 0 121 69 121 162c0 4 0 9 -1 13z" />
    <glyph glyph-name="ugrave" unicode="&#xf9;" horiz-adv-x="560" 
d="M257 -12c-120 0 -208 69 -208 184c0 14 2 32 5 49l49 279h169l-51 -290c-2 -10 -3 -21 -3 -27c0 -31 14 -62 56 -62c32 0 53 19 65 45c5 10 9 24 11 38l52 296h170l-50 -284c-5 -26 -11 -46 -18 -65c-39 -99 -127 -163 -247 -163zM313 564l-158 166v7h177l94 -173h-113z
" />
    <glyph glyph-name="uacute" unicode="&#xfa;" horiz-adv-x="560" 
d="M257 -12c-120 0 -208 69 -208 184c0 14 2 32 5 49l49 279h169l-51 -290c-2 -10 -3 -21 -3 -27c0 -31 14 -62 56 -62c32 0 53 19 65 45c5 10 9 24 11 38l52 296h170l-50 -284c-5 -26 -11 -46 -18 -65c-39 -99 -127 -163 -247 -163zM289 564l94 173h177v-7l-158 -166h-113z
" />
    <glyph glyph-name="ucircumflex" unicode="&#xfb;" horiz-adv-x="560" 
d="M257 -12c-120 0 -208 69 -208 184c0 14 2 32 5 49l49 279h169l-51 -290c-2 -10 -3 -21 -3 -27c0 -31 14 -62 56 -62c32 0 53 19 65 45c5 10 9 24 11 38l52 296h170l-50 -284c-5 -26 -11 -46 -18 -65c-39 -99 -127 -163 -247 -163zM143 558l187 177h98l125 -177h-89
l-97 77l-125 -77h-99z" />
    <glyph glyph-name="udieresis" unicode="&#xfc;" horiz-adv-x="560" 
d="M257 -12c-120 0 -208 69 -208 184c0 14 2 32 5 49l49 279h169l-51 -290c-2 -10 -3 -21 -3 -27c0 -31 14 -62 56 -62c32 0 53 19 65 45c5 10 9 24 11 38l52 296h170l-50 -284c-5 -26 -11 -46 -18 -65c-39 -99 -127 -163 -247 -163zM178 638c0 42 34 75 78 75
s78 -33 78 -75s-34 -75 -78 -75s-78 33 -78 75zM387 638c0 42 34 75 78 75s78 -33 78 -75s-34 -75 -78 -75s-78 33 -78 75z" />
    <glyph glyph-name="yacute" unicode="&#xfd;" horiz-adv-x="548" 
d="M69 -205l114 218l-120 487h166l58 -301l140 301h174l-261 -490l-116 -221zM284 559l94 173h177v-7l-158 -166h-113z" />
    <glyph glyph-name="thorn" unicode="&#xfe;" horiz-adv-x="602" 
d="M-16 -200l159 900h170l-42 -238c37 31 81 50 135 50c115 0 181 -89 181 -209c0 -172 -107 -315 -259 -315c-56 0 -104 24 -132 54l-42 -242h-170zM299 121c63 0 120 69 120 162c0 58 -28 96 -74 96c-63 0 -121 -69 -121 -162c0 -58 29 -96 75 -96z" />
    <glyph glyph-name="ydieresis" unicode="&#xff;" horiz-adv-x="548" 
d="M69 -205l114 218l-120 487h166l58 -301l140 301h174l-261 -490l-116 -221zM177 633c0 42 34 75 78 75s78 -33 78 -75s-34 -75 -78 -75s-78 33 -78 75zM386 633c0 42 34 75 78 75s78 -33 78 -75s-34 -75 -78 -75s-78 33 -78 75z" />
    <glyph glyph-name="dotlessi" unicode="&#x131;" horiz-adv-x="270" 
d="M20 0l88 500h170l-88 -500h-170z" />
    <glyph glyph-name="Lslash" unicode="&#x141;" horiz-adv-x="688" 
d="M88 0l43 244l-113 -52l19 105l113 52l62 351h183l-46 -259l164 76l-18 -105l-165 -76l-32 -184h361l-27 -152h-544z" />
    <glyph glyph-name="lslash" unicode="&#x142;" horiz-adv-x="408" 
d="M88 0l45 254l-113 -52l19 105l113 52l60 341h170l-45 -256l113 52l-19 -105l-113 -52l-60 -339h-170z" />
    <glyph glyph-name="OE" unicode="&#x152;" horiz-adv-x="1038" 
d="M672 152h338l-27 -152h-577c-72 0 -133 14 -181 39c-101 52 -161 154 -161 271c0 127 71 243 176 314c68 46 155 76 258 76h608l-26 -152h-338l-21 -115h299l-27 -153h-299zM420 151h68l70 398h-74c-59 0 -106 -17 -142 -46c-55 -44 -91 -114 -91 -187
c0 -61 25 -114 70 -142c21 -13 50 -23 99 -23z" />
    <glyph glyph-name="oe" unicode="&#x153;" horiz-adv-x="935" 
d="M272 -12c-138 0 -228 95 -228 228c0 164 136 296 296 296c76 0 135 -30 173 -78c50 48 118 78 193 78c136 0 223 -98 223 -217c0 -37 -8 -67 -13 -82h-354c0 -15 2 -29 6 -41c12 -37 44 -55 81 -55c39 0 71 19 95 55h157c-51 -110 -146 -184 -266 -184
c-76 0 -132 29 -168 77c-51 -48 -118 -77 -195 -77zM283 121c63 0 121 70 121 158c0 63 -29 100 -75 100c-63 0 -120 -70 -120 -159c0 -62 28 -99 74 -99zM588 314h179c2 50 -32 73 -74 73c-44 0 -85 -25 -105 -73z" />
    <glyph glyph-name="Scaron" unicode="&#x160;" horiz-adv-x="618" 
d="M23 50l26 149c73 -46 158 -63 226 -63c89 0 138 29 138 79c0 46 -42 61 -94 78c-123 40 -221 83 -221 210c0 152 136 209 278 209c79 0 173 -17 250 -49l-27 -153c-87 39 -169 54 -222 54c-58 0 -93 -18 -93 -55s35 -50 100 -71c108 -35 215 -77 215 -211
c0 -151 -143 -239 -321 -239c-83 0 -178 19 -255 62zM354 758l-125 177h90l97 -77l125 77h98l-187 -177h-98z" />
    <glyph glyph-name="scaron" unicode="&#x161;" horiz-adv-x="487" 
d="M14 37l22 124c59 -36 125 -47 177 -47c64 0 94 17 94 44c0 28 -33 35 -84 44c-94 17 -156 57 -156 145c0 115 109 165 219 165c63 0 145 -16 197 -36l-22 -128c-63 26 -137 38 -180 38c-35 0 -64 -8 -64 -33c0 -26 31 -34 75 -44c81 -19 166 -43 166 -144
c0 -115 -109 -177 -244 -177c-77 0 -149 20 -200 49zM262 558l-125 177h90l97 -77l125 77h98l-187 -177h-98z" />
    <glyph glyph-name="Ydieresis" unicode="&#x178;" horiz-adv-x="690" 
d="M224 0l50 286l-196 414h202l105 -263h2l197 263h214l-342 -414l-50 -286h-182zM276 828c0 42 34 75 78 75s78 -33 78 -75s-34 -75 -78 -75s-78 33 -78 75zM485 828c0 42 34 75 78 75s78 -33 78 -75s-34 -75 -78 -75s-78 33 -78 75z" />
    <glyph glyph-name="Zcaron" unicode="&#x17d;" horiz-adv-x="672" 
d="M-14 0v2l419 546h-305l26 152h613v-2l-417 -546h322l-27 -152h-631zM382 758l-125 177h90l97 -77l125 77h98l-187 -177h-98z" />
    <glyph glyph-name="zcaron" unicode="&#x17e;" horiz-adv-x="526" 
d="M-17 0v2l286 358h-202l25 140h467v-2l-286 -358h219l-25 -140h-484zM279 558l-125 177h90l97 -77l125 77h98l-187 -177h-98z" />
    <glyph glyph-name="florin" unicode="&#x192;" horiz-adv-x="459" 
d="M-85 -200l40 141c57 0 92 21 107 76l97 343h-96l39 140h95l10 36c34 122 94 201 239 201c40 0 87 -5 106 -9l-37 -132c-5 1 -35 5 -52 5c-40 0 -75 -11 -91 -66l-10 -35h124l-39 -140h-124l-99 -354c-40 -142 -103 -206 -309 -206z" />
    <glyph glyph-name="circumflex" unicode="&#x2c6;" horiz-adv-x="500" 
d="M113 558l187 177h98l125 -177h-89l-97 77l-125 -77h-99z" />
    <glyph glyph-name="caron" unicode="&#x2c7;" horiz-adv-x="500" 
d="M269 558l-125 177h90l97 -77l125 77h98l-187 -177h-98z" />
    <glyph glyph-name="breve" unicode="&#x2d8;" horiz-adv-x="499" 
d="M172 720h92c-2 -47 23 -82 72 -82s80 35 86 82h96c-11 -96 -88 -173 -188 -173s-163 77 -158 173z" />
    <glyph glyph-name="dotaccent" unicode="&#x2d9;" horiz-adv-x="496" 
d="M251 633c0 42 34 75 78 75s78 -33 78 -75s-34 -75 -78 -75s-78 33 -78 75z" />
    <glyph glyph-name="ring" unicode="&#x2da;" horiz-adv-x="495" 
d="M322 523c-77 0 -133 60 -133 135c0 86 73 157 158 157c77 0 133 -60 133 -135c0 -86 -73 -157 -158 -157zM329 604c36 0 67 31 67 70c0 34 -24 60 -56 60c-36 0 -67 -31 -67 -70c0 -34 24 -60 56 -60z" />
    <glyph glyph-name="ogonek" unicode="&#x2db;" horiz-adv-x="499" 
d="M274 -168l-10 -59c-24 -9 -46 -14 -77 -14c-64 0 -104 37 -104 88c0 67 60 119 152 153l52 -19c-92 -48 -122 -87 -122 -123c0 -26 19 -39 47 -39c18 0 44 5 62 13z" />
    <glyph glyph-name="tilde" unicode="&#x2dc;" horiz-adv-x="499" 
d="M198 558l-78 25c16 92 69 137 127 137c71 0 110 -62 160 -62c25 0 45 16 56 60l78 -25c-16 -92 -69 -137 -127 -137c-71 0 -110 62 -160 62c-25 0 -45 -16 -56 -60z" />
    <glyph glyph-name="hungarumlaut" unicode="&#x2dd;" horiz-adv-x="500" 
d="M155 554l69 173h152v-7l-118 -166h-103zM360 554l69 173h152v-7l-118 -166h-103z" />
    <glyph glyph-name="pi" unicode="&#x3c0;" horiz-adv-x="702" 
d="M83 0l63 360h-93l25 140h660l-25 -140h-97l-29 -163c-10 -55 21 -66 61 -66l-24 -136c-196 0 -226 89 -205 211l27 154h-130l-63 -360h-170z" />
    <glyph glyph-name="endash" unicode="&#x2013;" horiz-adv-x="543" 
d="M55 289l22 126h474l-22 -126h-474z" />
    <glyph glyph-name="emdash" unicode="&#x2014;" horiz-adv-x="703" 
d="M55 289l22 126h634l-22 -126h-634z" />
    <glyph glyph-name="quoteleft" unicode="&#x2018;" horiz-adv-x="258" 
d="M129 580l84 120h82l-86 -126c42 -11 72 -49 72 -95c0 -54 -43 -98 -97 -98s-97 42 -97 96c0 32 15 65 42 103z" />
    <glyph glyph-name="quoteright" unicode="&#x2019;" horiz-adv-x="249" 
d="M93 381l86 126c-42 11 -72 49 -72 95c0 54 43 98 97 98s97 -42 97 -96c0 -32 -15 -65 -42 -103l-84 -120h-82z" />
    <glyph glyph-name="quotesinglbase" unicode="&#x201a;" horiz-adv-x="258" 
d="M3 -129l86 126c-42 11 -72 49 -72 95c0 54 43 98 97 98s97 -42 97 -96c0 -32 -15 -65 -42 -103l-84 -120h-82z" />
    <glyph glyph-name="quotedblleft" unicode="&#x201c;" horiz-adv-x="490" 
d="M129 580l84 120h82l-86 -126c42 -11 72 -49 72 -95c0 -54 -43 -98 -97 -98s-97 42 -97 96c0 32 15 65 42 103zM361 580l84 120h82l-86 -126c42 -11 72 -49 72 -95c0 -54 -43 -98 -97 -98s-97 42 -97 96c0 32 15 65 42 103z" />
    <glyph glyph-name="quotedblright" unicode="&#x201d;" horiz-adv-x="483" 
d="M325 381l86 126c-42 11 -72 49 -72 95c0 54 43 98 97 98s97 -42 97 -96c0 -32 -15 -65 -42 -103l-84 -120h-82zM93 381l86 126c-42 11 -72 49 -72 95c0 54 43 98 97 98s97 -42 97 -96c0 -32 -15 -65 -42 -103l-84 -120h-82z" />
    <glyph glyph-name="quotedblbase" unicode="&#x201e;" horiz-adv-x="490" 
d="M235 -129l86 126c-42 11 -72 49 -72 95c0 54 43 98 97 98s97 -42 97 -96c0 -32 -15 -65 -42 -103l-84 -120h-82zM3 -129l86 126c-42 11 -72 49 -72 95c0 54 43 98 97 98s97 -42 97 -96c0 -32 -15 -65 -42 -103l-84 -120h-82z" />
    <glyph glyph-name="dagger" unicode="&#x2020;" horiz-adv-x="574" 
d="M168 -144l92 519h-199l22 126h199l37 211h126l-37 -211h199l-22 -126h-199l-92 -519h-126z" />
    <glyph glyph-name="daggerdbl" unicode="&#x2021;" horiz-adv-x="604" 
d="M182 -154l37 211h-199l22 126h199l34 192h-199l22 126h199l37 211h126l-37 -211h199l-22 -126h-199l-34 -192h199l-22 -126h-199l-37 -211h-126z" />
    <glyph glyph-name="bullet" unicode="&#x2022;" horiz-adv-x="286" 
d="M175 243c-61 0 -110 49 -110 110s49 110 110 110s110 -49 110 -110s-49 -110 -110 -110z" />
    <glyph glyph-name="ellipsis" unicode="&#x2026;" horiz-adv-x="788" 
d="M116 -6c-54 0 -97 44 -97 98s43 98 97 98s97 -44 97 -98s-43 -98 -97 -98zM380 -6c-54 0 -97 44 -97 98s43 98 97 98s97 -44 97 -98s-43 -98 -97 -98zM644 -6c-54 0 -97 44 -97 98s43 98 97 98s97 -44 97 -98s-43 -98 -97 -98z" />
    <glyph glyph-name="perthousand" unicode="&#x2030;" horiz-adv-x="1119" 
d="M98 550c0 89 70 162 161 162s162 -73 162 -162s-71 -161 -162 -161s-161 72 -161 161zM259 485c35 0 60 28 60 65s-25 66 -60 66s-59 -29 -59 -66s24 -65 59 -65zM400 149c0 89 70 162 161 162s162 -73 162 -162s-71 -161 -162 -161s-161 72 -161 161zM561 84
c35 0 60 28 60 65s-25 66 -60 66s-59 -29 -59 -66s24 -65 59 -65zM762 149c0 89 70 162 161 162s162 -73 162 -162s-71 -161 -162 -161s-161 72 -161 161zM923 84c35 0 60 28 60 65s-25 66 -60 66s-59 -29 -59 -66s24 -65 59 -65zM77 0l549 700h117l-549 -700h-117z" />
    <glyph glyph-name="guilsinglleft" unicode="&#x2039;" horiz-adv-x="261" 
d="M201 19l-164 196l15 87l234 196h2l-24 -133l-123 -112l84 -111l-22 -123h-2z" />
    <glyph glyph-name="guilsinglright" unicode="&#x203a;" horiz-adv-x="261" 
d="M3 19l24 133l123 111l-84 112l21 123h2l165 -196l-15 -87l-234 -196h-2z" />
    <glyph glyph-name="fraction" unicode="&#x2044;" horiz-adv-x="473" 
d="M-70 0l544 700h132l-544 -700h-132z" />
    <glyph glyph-name="Euro" unicode="&#x20ac;" horiz-adv-x="731" 
d="M45 232l13 76h108c2 24 4 48 10 73h-105l15 81h114c70 155 212 250 382 250c66 0 147 -14 202 -38l-25 -143c-51 24 -123 42 -181 42c-89 0 -160 -42 -203 -111h247l-15 -81h-269c-7 -24 -11 -46 -12 -73h268l-13 -76h-246c24 -68 80 -105 165 -105c62 0 140 20 197 51
l-27 -152c-59 -26 -117 -38 -177 -38c-173 0 -299 99 -323 244h-125z" />
    <glyph glyph-name="trademark" unicode="&#x2122;" horiz-adv-x="689" 
d="M158 404l39 222h-95l13 74h271l-13 -74h-95l-39 -222h-81zM362 404l52 296h91l44 -138l92 138h99l-52 -296h-71l33 187l-124 -180l-60 180l-33 -187h-71z" />
    <glyph glyph-name="Omega" unicode="&#x2126;" horiz-adv-x="752" 
d="M5 0l27 152h179l1 5c-84 66 -129 154 -129 243c0 170 146 312 373 312c199 0 307 -109 307 -246c0 -109 -65 -224 -221 -309l-1 -5h173l-27 -152h-307l37 209c109 70 156 150 156 229c0 78 -46 125 -131 125c-107 0 -178 -74 -178 -182c0 -66 27 -128 83 -176l-35 -205
h-307z" />
    <glyph glyph-name="partialdiff" unicode="&#x2202;" horiz-adv-x="584" 
d="M274 -12c-140 0 -230 95 -230 227c0 134 90 246 209 284c25 8 51 12 78 13l-94 170l128 74l157 -297c29 -54 49 -105 49 -170c0 -167 -139 -301 -297 -301zM283 121c63 0 121 69 121 162c0 58 -29 96 -75 96c-63 0 -120 -69 -120 -162c0 -58 28 -96 74 -96z" />
    <glyph glyph-name="Delta" unicode="&#x2206;" horiz-adv-x="672" 
d="M-5 0l23 132l318 568h186l118 -568l-23 -132h-622zM208 144h253l-60 374z" />
    <glyph glyph-name="product" unicode="&#x220f;" horiz-adv-x="746" 
d="M35 0l123 700h616l-123 -700h-183l96 547h-250l-96 -547h-183z" />
    <glyph glyph-name="summation" unicode="&#x2211;" horiz-adv-x="652" 
d="M-48 -151v2l328 423l-178 424v2h613l-27 -152h-323l124 -286l-206 -261h309l-27 -152h-613z" />
    <glyph glyph-name="minus" unicode="&#x2212;" horiz-adv-x="583" 
d="M65 289l22 126h494l-22 -126h-494z" />
    <glyph glyph-name="radical" unicode="&#x221a;" horiz-adv-x="619" 
d="M229 0l-73 389h-98l22 126h184l55 -357l273 642h141l-362 -800h-142z" />
    <glyph glyph-name="infinity" unicode="&#x221e;" horiz-adv-x="627" 
d="M345 284c-21 -54 -71 -94 -131 -94c-86 0 -150 72 -150 163c0 92 64 164 150 164c60 0 110 -40 131 -95c22 55 70 95 133 95c85 0 149 -72 149 -164c0 -91 -64 -163 -149 -163c-63 0 -111 40 -133 94zM394 353c7 -39 34 -68 71 -68s62 29 62 68c0 40 -25 69 -62 69
s-64 -29 -71 -69zM297 353c-7 40 -34 69 -71 69s-62 -29 -62 -69c0 -39 25 -68 62 -68s64 29 71 68z" />
    <glyph glyph-name="integral" unicode="&#x222b;" horiz-adv-x="345" 
d="M-80 -200l25 141c75 0 106 26 116 81l82 462c27 152 101 216 310 216l-25 -141c-75 0 -106 -26 -116 -81l-82 -462c-27 -152 -101 -216 -310 -216z" />
    <glyph glyph-name="approxequal" unicode="&#x2248;" horiz-adv-x="594" 
d="M75 375l23 134c35 32 89 56 143 56c98 0 147 -83 237 -83c52 0 99 27 142 67l-23 -134c-34 -31 -89 -57 -143 -57c-98 0 -147 83 -237 83c-52 0 -99 -27 -142 -66zM36 153l23 131c35 32 89 59 143 59c98 0 147 -83 237 -83c52 0 99 27 142 67l-24 -134
c-33 -31 -88 -57 -142 -57c-98 0 -147 83 -237 83c-52 0 -99 -27 -142 -66z" />
    <glyph glyph-name="notequal" unicode="&#x2260;" horiz-adv-x="594" 
d="M78 70l73 109h-110l22 126h173l64 94h-220l22 126h284l74 110h119l-74 -110h111l-22 -126h-175l-64 -94h222l-22 -126h-285l-73 -109h-119z" />
    <glyph glyph-name="lessequal" unicode="&#x2264;" horiz-adv-x="600" 
d="M75 370l24 135l558 216l-27 -146l-408 -143l358 -142l-23 -136zM10 0l22 126h520l-22 -126h-520z" />
    <glyph glyph-name="greaterequal" unicode="&#x2265;" horiz-adv-x="600" 
d="M37 154l26 145l408 142l-358 143l24 137l482 -216l-24 -135zM10 0l22 126h520l-22 -126h-520z" />
    <glyph glyph-name="lozenge" unicode="&#x25ca;" horiz-adv-x="584" 
d="M193 0l-142 351l266 349h136l142 -349l-266 -351h-136zM275 105l189 253l-93 237l-189 -251z" />
    <glyph glyph-name="apple" unicode="&#xf8ff;" horiz-adv-x="947" 
d="M233 67c-85 85 -127 196 -127 307c0 110 42 221 127 306c84 85 195 127 306 127s222 -42 307 -127c84 -85 127 -196 127 -306c0 -111 -43 -222 -127 -307c-85 -85 -196 -127 -307 -127s-222 42 -306 127zM684 359h77c2 8 3 15 3 21c0 27 -18 49 -48 49
c-33 0 -60 -25 -65 -58c-5 -34 16 -57 48 -57c26 0 47 14 58 36h-39c-5 -5 -11 -6 -17 -6c-11 0 -17 7 -17 15zM730 384h-40c4 9 13 16 24 16c10 0 16 -7 16 -16zM844 378c14 0 25 12 25 25c0 14 -11 25 -25 25c-13 0 -24 -11 -24 -25c0 -13 11 -25 24 -25zM527 316h38
l11 62c2 11 9 18 19 18c9 0 14 -8 12 -18l-11 -62h37l12 68c5 27 -8 45 -33 45c-13 0 -28 -8 -35 -18l4 15h-35zM234 316h38l13 75h30l6 35h-99l-6 -35h31zM357 365l11 61h-38l-10 -58c-6 -36 12 -54 45 -54c31 0 55 17 61 54l10 58h-37l-11 -61c-2 -10 -9 -17 -19 -17
c-9 0 -14 6 -12 17zM427 316h38l19 110h-38zM509 378c14 0 25 12 25 25c0 14 -11 25 -25 25c-13 0 -25 -11 -25 -25c0 -13 12 -25 25 -25zM762 316h38l19 110h-38z" />
    </font>
</defs>
</svg>
